<svg width="261" height="66" viewBox="0 0 261 66" fill="none" xmlns="http://www.w3.org/2000/svg">
<path d="M15.0798 51.7261L15.0798 59.9654C15.0798 63.2982 17.7862 66.0001 21.1247 66.0001H34.0297C44.283 66.0001 52.5948 57.7021 52.5948 47.466L52.5946 45.6914C52.5946 49.0243 49.8883 51.7261 46.5498 51.7261H38.7747C38.9622 52.2636 39.064 52.841 39.064 53.4422C39.064 56.3241 36.7239 58.6603 33.8372 58.6603C30.9505 58.6603 28.6104 56.3241 28.6104 53.4422C28.6104 52.841 28.7123 52.2636 28.8997 51.7261H15.0798Z" fill="#FBBF24"/>
<path d="M34.043 65.9999H48.3266C58.5798 65.9999 66.8917 57.702 66.8917 47.4659V20.3086C66.8917 16.9758 64.1854 14.2739 60.8469 14.2739H52.5938V28.0707C52.0554 27.8836 51.4769 27.7819 50.8747 27.7819C47.988 27.7819 45.6479 30.1181 45.6479 32.9999C45.6479 35.8818 47.988 38.218 50.8747 38.218C51.4769 38.218 52.0554 38.1163 52.5938 37.9292V45.6913L52.594 47.4659C52.594 57.6973 44.2897 65.9923 34.043 65.9999Z" fill="#EA580C"/>
<path d="M52.5947 14.274L52.5947 6.0347C52.5947 2.70183 49.8884 5.48584e-06 46.5499 5.19447e-06L33.6448 4.06816e-06C23.3916 3.1733e-06 15.0797 8.29798 15.0797 18.5341L15.0799 20.3087C15.0799 16.9758 17.7863 14.2739 21.1247 14.2739L28.8998 14.2739C28.7124 13.7365 28.6106 13.159 28.6106 12.5578C28.6106 9.67599 30.9507 7.33979 33.8373 7.33979C36.724 7.33979 39.0641 9.67599 39.0641 12.5578C39.0641 13.159 38.9623 13.7365 38.7749 14.274L52.5947 14.274Z" fill="#172554"/>
<path d="M33.6219 0C23.3805 0.0138466 15.0825 8.30651 15.0825 18.534L15.0827 20.2591C15.0826 20.2756 15.0825 20.2921 15.0825 20.3086V28.0707C14.5442 27.8836 13.9657 27.7819 13.3635 27.7819C10.4768 27.7819 8.13671 30.1181 8.13671 32.9999C8.13671 35.8817 10.4768 38.2179 13.3635 38.2179C13.9657 38.2179 14.5442 38.1163 15.0825 37.9292V51.726L6.82947 51.726C3.49102 51.726 0.784668 49.0242 0.784668 45.6913V18.5341C0.784668 8.29797 9.09656 0 19.3498 0H33.6219Z" fill="#2563EB"/>
<path fill-rule="evenodd" clip-rule="evenodd" d="M36.1708 35.0552C37.8804 34.2001 39.054 32.4349 39.054 30.396C39.054 27.5197 36.7184 25.188 33.8373 25.188C30.9562 25.188 28.6206 27.5197 28.6206 30.396C28.6206 32.4349 29.7942 34.2002 31.5038 35.0552L28.6206 40.812H39.054L36.1708 35.0552Z" fill="#172554"/>
<path d="M92.6563 29.9117C94.4047 29.9117 95.969 30.2218 97.3493 30.8419C98.7296 31.439 99.8108 32.3117 100.593 33.46C101.398 34.6083 101.801 35.9748 101.801 37.5595H99.4542C99.4082 36.3652 99.0746 35.3432 98.4535 34.4935C97.8554 33.6437 97.0502 33.0007 96.038 32.5643C95.0488 32.128 93.9331 31.9098 92.6908 31.9098C90.8735 31.9098 89.3897 32.3117 88.2394 33.1155C87.1122 33.9193 86.5486 35.148 86.5486 36.8016C86.5486 37.9269 86.8822 38.7652 87.5493 39.3164C88.2394 39.8676 89.0561 40.258 89.9993 40.4877L96.0035 41.969C98.35 42.5431 100.041 43.3584 101.076 44.4149C102.134 45.4713 102.663 46.8378 102.663 48.5143C102.663 49.5478 102.41 50.5928 101.904 51.6492C101.421 52.7057 100.478 53.6243 99.0746 54.4052C97.6713 55.1631 95.7274 55.542 93.2429 55.542C91.2185 55.542 89.4702 55.2434 87.9979 54.6463C86.5256 54.0262 85.3868 53.1191 84.5817 51.9248C83.7995 50.7306 83.4084 49.2722 83.4084 47.5498V46.9297H85.7549V47.1364C85.7549 49.3182 86.4451 50.9373 87.8253 51.9937C89.2286 53.0272 91.1955 53.5439 93.726 53.5439C94.7382 53.5439 95.7504 53.3602 96.7627 52.9928C97.7749 52.6253 98.6145 52.0741 99.2817 51.3392C99.9718 50.5813 100.317 49.6512 100.317 48.5488C100.317 47.4464 99.9028 46.5393 99.0746 45.8273C98.2465 45.1154 97.0157 44.5527 95.3824 44.1393L89.7577 42.7613C87.8714 42.302 86.4681 41.6015 85.5479 40.6599C84.6507 39.7183 84.2021 38.4437 84.2021 36.836C84.2021 35.7796 84.4667 34.7232 84.9958 33.6667C85.5479 32.6103 86.4566 31.7261 87.7218 31.0141C88.9871 30.2792 90.6319 29.9117 92.6563 29.9117Z" fill="#172554"/>
<path d="M112.839 36.7327C117.187 36.7327 119.361 38.6389 119.361 42.4513V51.8904C119.361 52.7631 119.786 53.1995 120.637 53.1995C120.867 53.1995 121.098 53.1535 121.328 53.0617V54.8875C120.867 54.9793 120.407 55.0253 119.947 55.0253C119.004 55.0253 118.337 54.7956 117.946 54.3363C117.555 53.877 117.359 53.1076 117.359 52.0282V51.9248H117.29C116.692 52.8435 116.083 53.5669 115.461 54.0951C114.84 54.6234 114.15 54.9908 113.391 55.1975C112.655 55.4272 111.792 55.542 110.803 55.542C109.607 55.542 108.56 55.3468 107.663 54.9564C106.766 54.543 106.064 53.9459 105.558 53.165C105.075 52.3842 104.833 51.4425 104.833 50.3402C104.833 48.6407 105.42 47.366 106.593 46.5163C107.214 46.0799 108.008 45.724 108.974 45.4484C109.963 45.1728 111.47 44.9316 113.495 44.7249C114.53 44.6101 115.277 44.4953 115.737 44.3804C116.198 44.2656 116.554 44.0474 116.807 43.7259C117.06 43.4044 117.187 42.8991 117.187 42.2101C117.187 40.924 116.796 39.9939 116.014 39.4197C115.231 38.8456 114.07 38.5585 112.528 38.5585C111.056 38.5585 109.906 38.9145 109.078 39.6264C108.249 40.3154 107.812 41.3374 107.766 42.6924H105.592C105.707 40.7403 106.386 39.259 107.628 38.2485C108.871 37.238 110.607 36.7327 112.839 36.7327ZM117.118 45.3106C116.98 45.5402 116.727 45.724 116.359 45.8618C116.014 45.9766 115.519 46.0799 114.875 46.1718L113.805 46.344C112.31 46.5278 111.217 46.7115 110.527 46.8952C109.446 47.1708 108.583 47.5498 107.939 48.0321C107.318 48.5143 107.007 49.2378 107.007 50.2024C107.007 50.8913 107.191 51.5114 107.559 52.0626C107.927 52.5908 108.41 53.0042 109.009 53.3028C109.607 53.5784 110.262 53.7162 110.975 53.7162C112.149 53.7162 113.207 53.4865 114.15 53.0272C115.093 52.5449 115.829 51.8904 116.359 51.0636C116.911 50.2138 117.187 49.2493 117.187 48.1699V45.3106H117.118Z" fill="#172554"/>
<path d="M124.694 39.0752H121.657V37.2494H124.694V35.527C124.694 33.7815 125.016 32.4954 125.66 31.6687C126.327 30.8419 127.454 30.4285 129.042 30.4285C129.64 30.4285 130.238 30.4744 130.836 30.5663V32.4265C130.215 32.3117 129.686 32.2543 129.249 32.2543C128.605 32.2543 128.11 32.3691 127.765 32.5988C127.42 32.8055 127.178 33.1155 127.04 33.5289C126.925 33.9423 126.868 34.505 126.868 35.2169V37.2494H130.388V39.0752H126.868V55.0253H124.694V39.0752Z" fill="#172554"/>
<path d="M139.421 36.7327C141.054 36.7327 142.458 37.1346 143.631 37.9384C144.804 38.7422 145.701 39.8676 146.323 41.3145C146.944 42.7384 147.254 44.369 147.254 46.2062V46.723H133.555C133.578 47.9402 133.808 49.0885 134.245 50.1679C134.682 51.2244 135.338 52.0856 136.212 52.7516C137.086 53.3947 138.156 53.7162 139.421 53.7162C140.87 53.7162 142.067 53.3372 143.01 52.5794C143.976 51.7985 144.643 50.6617 145.011 49.1689H147.185C146.679 51.3277 145.782 52.9353 144.494 53.9918C143.228 55.0253 141.538 55.542 139.421 55.542C137.673 55.542 136.2 55.1516 135.004 54.3707C133.808 53.5669 132.899 52.4531 132.278 51.0291C131.68 49.6052 131.381 47.9746 131.381 46.1374C131.381 44.4608 131.669 42.9106 132.244 41.4867C132.842 40.0398 133.739 38.8915 134.935 38.0418C136.154 37.1691 137.65 36.7327 139.421 36.7327ZM145.08 44.8972C145.034 43.7718 144.781 42.7269 144.321 41.7623C143.861 40.7977 143.205 40.0283 142.354 39.4542C141.503 38.8571 140.514 38.5585 139.387 38.5585C138.351 38.5585 137.42 38.8226 136.592 39.3508C135.786 39.8561 135.119 40.591 134.59 41.5556C134.061 42.4972 133.716 43.6111 133.555 44.8972H145.08Z" fill="#172554"/>
<path d="M158.454 39.1786C157.211 39.1786 156.107 39.4657 155.141 40.0398C154.198 40.591 153.462 41.3604 152.932 42.3479C152.426 43.3125 152.173 44.3919 152.173 45.5862V55.0253H149.999V37.2494H152.001V41.4178H152.07C152.599 40.0169 153.416 38.9375 154.52 38.1796C155.624 37.3987 156.901 37.0083 158.35 37.0083H158.799V39.1786H158.454Z" fill="#172554"/>
<path d="M173.41 48.2388C173.41 49.9383 173.168 51.3277 172.685 52.4071C172.225 53.4636 171.466 54.2559 170.408 54.7841C169.373 55.2894 167.992 55.542 166.267 55.542C163.944 55.542 162.207 54.853 161.056 53.475C159.929 52.0971 159.366 50.0072 159.366 47.2053V47.1364H161.712C161.712 48.5373 161.839 49.6971 162.092 50.6158C162.368 51.5344 162.851 52.2578 163.541 52.7861C164.254 53.2913 165.232 53.5439 166.474 53.5439C167.624 53.5439 168.521 53.3487 169.166 52.9583C169.833 52.5679 170.316 51.9248 170.615 51.0291C170.914 50.1335 171.063 48.9048 171.063 47.3431V30.4285H173.41V48.2388Z" fill="#172554"/>
<path d="M185.315 36.7327C187.063 36.7327 188.57 37.1576 189.835 38.0073C191.101 38.8341 192.067 39.9709 192.734 41.4178C193.401 42.8417 193.735 44.4149 193.735 46.1374C193.735 47.8828 193.401 49.4789 192.734 50.9258C192.067 52.3497 191.089 53.475 189.801 54.3018C188.536 55.1286 187.04 55.542 185.315 55.542C183.59 55.542 182.083 55.1286 180.794 54.3018C179.529 53.4521 178.563 52.3153 177.896 50.8913C177.229 49.4674 176.895 47.8828 176.895 46.1374C176.895 44.3919 177.229 42.8073 177.896 41.3834C178.563 39.9594 179.529 38.8341 180.794 38.0073C182.083 37.1576 183.59 36.7327 185.315 36.7327ZM179.069 46.1374C179.069 47.4694 179.311 48.721 179.794 49.8923C180.3 51.0406 181.024 51.9708 181.968 52.6827C182.911 53.3717 184.027 53.7162 185.315 53.7162C186.626 53.7162 187.753 53.3602 188.697 52.6483C189.64 51.9363 190.353 51.0062 190.836 49.8579C191.319 48.6866 191.561 47.4464 191.561 46.1374C191.561 44.8512 191.319 43.634 190.836 42.4857C190.376 41.3145 189.663 40.3728 188.697 39.6609C187.753 38.926 186.615 38.5585 185.28 38.5585C183.992 38.5585 182.876 38.9145 181.933 39.6264C181.013 40.3154 180.3 41.2456 179.794 42.4168C179.311 43.5651 179.069 44.8053 179.069 46.1374Z" fill="#172554"/>
<path d="M198.934 48.3766C198.934 49.5019 199.06 50.455 199.313 51.2358C199.589 52.0167 200.072 52.6253 200.762 53.0617C201.453 53.498 202.419 53.7162 203.661 53.7162C204.857 53.7162 205.858 53.3947 206.663 52.7516C207.468 52.0856 208.066 51.2129 208.457 50.1335C208.849 49.0311 209.044 47.8368 209.044 46.5507V37.2494H211.218V55.0253H209.217V51.8215H209.148C208.572 52.9928 207.744 53.9114 206.663 54.5774C205.582 55.2205 204.363 55.542 203.005 55.542C200.843 55.542 199.256 54.9678 198.243 53.8195C197.254 52.6483 196.76 50.9717 196.76 48.7899V37.2494H198.934V48.3766Z" fill="#172554"/>
<path d="M223.61 39.1786C222.368 39.1786 221.263 39.4657 220.297 40.0398C219.354 40.591 218.618 41.3604 218.089 42.3479C217.583 43.3125 217.33 44.3919 217.33 45.5862V55.0253H215.156V37.2494H217.157V41.4178H217.226C217.755 40.0169 218.572 38.9375 219.676 38.1796C220.78 37.3987 222.057 37.0083 223.506 37.0083H223.955V39.1786H223.61Z" fill="#172554"/>
<path d="M233.804 36.7327C236.059 36.7327 237.703 37.2839 238.739 38.3863C239.774 39.4886 240.292 41.1881 240.292 43.4848V55.0253H238.118V43.8981C238.118 42.1298 237.749 40.7977 237.013 39.902C236.277 39.0064 235.138 38.5585 233.597 38.5585C232.378 38.5585 231.343 38.8571 230.492 39.4542C229.663 40.0283 229.042 40.7977 228.628 41.7623C228.214 42.7039 228.007 43.7259 228.007 44.8283V55.0253H225.833V37.2494H228.007V40.3154H228.076C228.352 39.6035 228.778 38.9834 229.353 38.4552C229.928 37.904 230.595 37.4791 231.354 37.1805C232.136 36.882 232.953 36.7327 233.804 36.7327Z" fill="#172554"/>
<path d="M251.752 36.7327C253.5 36.7327 255.007 37.1576 256.272 38.0073C257.537 38.8341 258.503 39.9709 259.171 41.4178C259.838 42.8417 260.171 44.4149 260.171 46.1374C260.171 47.8828 259.838 49.4789 259.171 50.9258C258.503 52.3497 257.526 53.475 256.238 54.3018C254.972 55.1286 253.477 55.542 251.752 55.542C250.026 55.542 248.519 55.1286 247.231 54.3018C245.966 53.4521 245 52.3153 244.333 50.8913C243.665 49.4674 243.332 47.8828 243.332 46.1374C243.332 44.3919 243.665 42.8073 244.333 41.3834C245 39.9594 245.966 38.8341 247.231 38.0073C248.519 37.1576 250.026 36.7327 251.752 36.7327ZM245.506 46.1374C245.506 47.4694 245.747 48.721 246.23 49.8923C246.737 51.0406 247.461 51.9708 248.404 52.6827C249.348 53.3717 250.463 53.7162 251.752 53.7162C253.063 53.7162 254.19 53.3602 255.133 52.6483C256.076 51.9363 256.79 51.0062 257.273 49.8579C257.756 48.6866 257.997 47.4464 257.997 46.1374C257.997 44.8512 257.756 43.634 257.273 42.4857C256.813 41.3145 256.099 40.3728 255.133 39.6609C254.19 38.926 253.051 38.5585 251.717 38.5585C250.429 38.5585 249.313 38.9145 248.37 39.6264C247.45 40.3154 246.737 41.2456 246.23 42.4168C245.747 43.5651 245.506 44.8053 245.506 46.1374Z" fill="#172554"/>
<path d="M86.1905 23.1056H83.3948V10.4124H86.1905V23.1056Z" fill="#172554"/>
<path d="M93.5792 13.6657C94.7426 13.6657 95.5915 13.962 96.1257 14.5545C96.6599 15.1471 96.927 16.0893 96.927 17.3812V23.1056H94.3984V17.8967C94.3984 17.1264 94.2737 16.5634 94.0244 16.2079C93.7751 15.8405 93.3596 15.6568 92.7779 15.6568C92.2674 15.6568 91.8697 15.7634 91.5848 15.9768C91.2999 16.1901 91.0981 16.4923 90.9793 16.8834C90.8725 17.2627 90.8191 17.7427 90.8191 18.3234V23.1056H88.2904V13.9145H90.6944V15.1945H90.7479C91.0446 14.7086 91.4423 14.3353 91.9409 14.0745C92.4396 13.802 92.9857 13.6657 93.5792 13.6657Z" fill="#172554"/>
<path d="M101.962 13.9145H103.814V15.6034H101.962V20.1545C101.962 20.4508 101.992 20.676 102.052 20.8301C102.111 20.9723 102.212 21.073 102.354 21.1323C102.509 21.1915 102.734 21.2212 103.031 21.2212C103.363 21.2212 103.625 21.1975 103.814 21.15V23.1234C103.458 23.1826 102.96 23.2123 102.319 23.2123C101.321 23.2123 100.591 23.0463 100.128 22.7145C99.6653 22.3708 99.4338 21.796 99.4338 20.9901V15.6034H97.9024V13.9145H99.4338V11.159H101.962V13.9145Z" fill="#172554"/>
<path d="M109.098 13.6657C110.035 13.6657 110.843 13.8908 111.519 14.3412C112.196 14.7797 112.707 15.3782 113.051 16.1368C113.407 16.8953 113.585 17.7367 113.585 18.6612L113.567 19.1234H106.925C106.961 19.9175 107.162 20.5041 107.531 20.8834C107.899 21.2626 108.445 21.4523 109.169 21.4523C109.477 21.4523 109.774 21.3989 110.059 21.2923C110.344 21.1856 110.587 21.0434 110.789 20.8656C110.991 20.676 111.122 20.4745 111.181 20.2612H113.407C113.075 21.3041 112.546 22.0804 111.822 22.59C111.11 23.0997 110.202 23.3545 109.098 23.3545C108.136 23.3545 107.299 23.153 106.587 22.75C105.886 22.3352 105.346 21.7604 104.966 21.0256C104.586 20.2908 104.396 19.4552 104.396 18.519C104.396 17.6064 104.592 16.7827 104.984 16.0479C105.388 15.3012 105.946 14.7205 106.658 14.3057C107.37 13.879 108.183 13.6657 109.098 13.6657ZM111.039 17.5234C110.92 16.836 110.7 16.3382 110.38 16.0301C110.059 15.7219 109.602 15.5679 109.009 15.5679C108.403 15.5679 107.916 15.7397 107.548 16.0834C107.192 16.4271 106.984 16.9071 106.925 17.5234H111.039Z" fill="#172554"/>
<path d="M120.356 13.6657C120.51 13.6657 120.694 13.6953 120.908 13.7546V16.1012C120.635 16.0419 120.332 16.0123 120 16.0123C119.133 16.0123 118.498 16.279 118.094 16.8123C117.702 17.3338 117.507 18.0508 117.507 18.9634V23.1056H114.978V13.9145H117.382V15.6212H117.418C117.572 15.2419 117.797 14.9042 118.094 14.6079C118.403 14.3116 118.753 14.0805 119.145 13.9145C119.537 13.7486 119.94 13.6657 120.356 13.6657Z" fill="#172554"/>
<path d="M127.099 13.6657C128.262 13.6657 129.111 13.962 129.645 14.5545C130.18 15.1471 130.447 16.0893 130.447 17.3812V23.1056H127.918V17.8967C127.918 17.1264 127.793 16.5634 127.544 16.2079C127.295 15.8405 126.879 15.6568 126.298 15.6568C125.787 15.6568 125.389 15.7634 125.104 15.9768C124.82 16.1901 124.618 16.4923 124.499 16.8834C124.392 17.2627 124.339 17.7427 124.339 18.3234V23.1056H121.81V13.9145H124.214V15.1945H124.268C124.564 14.7086 124.962 14.3353 125.461 14.0745C125.959 13.802 126.505 13.6657 127.099 13.6657Z" fill="#172554"/>
<path d="M136.533 13.6657C137.471 13.6657 138.278 13.8908 138.955 14.3412C139.631 14.7797 140.142 15.3782 140.486 16.1368C140.842 16.8953 141.02 17.7367 141.02 18.6612L141.002 19.1234H134.36C134.396 19.9175 134.598 20.5041 134.966 20.8834C135.334 21.2626 135.88 21.4523 136.604 21.4523C136.913 21.4523 137.21 21.3989 137.494 21.2923C137.779 21.1856 138.023 21.0434 138.225 20.8656C138.426 20.676 138.557 20.4745 138.616 20.2612H140.842C140.51 21.3041 139.982 22.0804 139.257 22.59C138.545 23.0997 137.637 23.3545 136.533 23.3545C135.571 23.3545 134.734 23.153 134.022 22.75C133.322 22.3352 132.781 21.7604 132.402 21.0256C132.022 20.2908 131.832 19.4552 131.832 18.519C131.832 17.6064 132.028 16.7827 132.419 16.0479C132.823 15.3012 133.381 14.7205 134.093 14.3057C134.806 13.879 135.619 13.6657 136.533 13.6657ZM138.474 17.5234C138.355 16.836 138.135 16.3382 137.815 16.0301C137.494 15.7219 137.037 15.5679 136.444 15.5679C135.838 15.5679 135.352 15.7397 134.984 16.0834C134.627 16.4271 134.42 16.9071 134.36 17.5234H138.474Z" fill="#172554"/>
<path d="M145.921 20.1545H145.957L147.488 13.9145H149.946L151.513 20.1367H151.548L153.24 13.9145H155.84L152.937 23.1056H150.337L148.699 16.9367H148.664L147.097 23.1056H144.479L141.558 13.9145H144.23L145.921 20.1545Z" fill="#172554"/>
<path d="M160.603 13.6657C161.849 13.6657 162.817 13.9205 163.505 14.4301C164.194 14.9279 164.58 15.6508 164.663 16.599H162.259C162.223 16.1605 162.057 15.8464 161.76 15.6568C161.475 15.4553 161.066 15.3545 160.531 15.3545C159.594 15.3545 159.125 15.639 159.125 16.2079C159.125 16.4093 159.19 16.5812 159.32 16.7234C159.451 16.8538 159.659 16.9723 159.944 17.079C160.229 17.1856 160.614 17.2864 161.101 17.3812C162.003 17.559 162.674 17.7308 163.113 17.8967C163.553 18.0627 163.915 18.2641 164.2 18.5012C164.675 18.9278 164.912 19.479 164.912 20.1545C164.912 20.9012 164.716 21.5175 164.324 22.0034C163.944 22.4774 163.44 22.8211 162.811 23.0345C162.182 23.2478 161.481 23.3545 160.709 23.3545C159.855 23.3545 159.107 23.236 158.466 22.9989C157.837 22.75 157.338 22.3886 156.97 21.9145C156.602 21.4286 156.406 20.8301 156.382 20.1189H158.786C158.786 20.6167 158.97 21.0019 159.338 21.2745C159.706 21.5352 160.169 21.6656 160.727 21.6656C161.19 21.6656 161.582 21.5649 161.903 21.3634C162.223 21.1619 162.383 20.8715 162.383 20.4923C162.383 20.2671 162.288 20.0775 162.098 19.9234C161.92 19.7693 161.635 19.6271 161.244 19.4967C160.852 19.3664 160.306 19.2301 159.605 19.0878C158.881 18.9338 158.3 18.7501 157.86 18.5367C157.433 18.3234 157.112 18.0627 156.899 17.7545C156.697 17.4345 156.596 17.0553 156.596 16.6168C156.596 15.6449 156.934 14.9101 157.611 14.4123C158.3 13.9145 159.297 13.6657 160.603 13.6657Z" fill="#172554"/>
</svg>
