<svg width="78" height="78" viewBox="0 0 78 78" fill="none" xmlns="http://www.w3.org/2000/svg">
<path d="M17.4632 60.9162L17.4632 70.5434C17.4632 74.4377 20.6367 77.5947 24.5514 77.5947H39.684C51.7071 77.5947 61.4536 67.8989 61.4536 55.9385L61.4534 53.8649C61.4534 57.7592 58.2799 60.9162 54.3652 60.9162H45.2481C45.4678 61.5442 45.5872 62.2189 45.5872 62.9214C45.5872 66.2887 42.8432 69.0185 39.4583 69.0185C36.0733 69.0185 33.3293 66.2887 33.3293 62.9214C33.3293 62.2189 33.4487 61.5442 33.6685 60.9162H17.4632Z" fill="#FBBF24"/>
<path d="M39.6997 77.5946H56.4488C68.4718 77.5946 78.2185 67.8988 78.2185 55.9384V24.2063C78.2185 20.312 75.045 17.155 71.1303 17.155H61.4525V33.276C60.8212 33.0573 60.1429 32.9385 59.4367 32.9385C56.0518 32.9385 53.3078 35.6682 53.3078 39.0356C53.3078 42.4029 56.0518 45.1326 59.4367 45.1326C60.1429 45.1326 60.8212 45.0138 61.4525 44.7951V53.8649L61.4528 55.9384C61.4528 67.8933 51.7151 77.5857 39.6997 77.5946Z" fill="#EA580C"/>
<path d="M61.4537 17.1551L61.4537 7.52787C61.4537 3.63356 58.2802 0.476591 54.3655 0.47659L39.2329 0.476589C27.2098 0.476588 17.4632 10.1724 17.4632 22.1328L17.4635 24.2064C17.4635 20.312 20.637 17.1551 24.5517 17.1551L33.6688 17.1551C33.4491 16.5271 33.3296 15.8523 33.3296 15.1499C33.3296 11.7826 36.0737 9.05281 39.4586 9.05281C42.8435 9.05281 45.5876 11.7826 45.5876 15.1499C45.5876 15.8523 45.4681 16.5271 45.2484 17.1551L61.4537 17.1551Z" fill="#172554"/>
<path d="M39.206 0.476562C27.1968 0.492742 17.4665 10.1824 17.4665 22.1328L17.4667 24.1485C17.4665 24.1677 17.4665 24.187 17.4665 24.2063V33.2759C16.8352 33.0573 16.1569 32.9385 15.4507 32.9385C12.0658 32.9385 9.32176 35.6682 9.32176 39.0355C9.32176 42.4028 12.0658 45.1326 15.4507 45.1326C16.1569 45.1326 16.8352 45.0138 17.4665 44.7951V60.9161L7.78888 60.9161C3.87417 60.9161 0.700684 57.7592 0.700684 53.8649V22.1328C0.700684 10.1724 10.4473 0.476562 22.4703 0.476562H39.206Z" fill="#2563EB"/>
<path fill-rule="evenodd" clip-rule="evenodd" d="M42.1947 41.437C44.1994 40.438 45.5756 38.3753 45.5756 35.993C45.5756 32.6322 42.8368 29.9077 39.4584 29.9077C36.08 29.9077 33.3413 32.6322 33.3413 35.993C33.3413 38.3754 34.7175 40.438 36.7222 41.437L33.3413 48.1636H45.5756L42.1947 41.437Z" fill="#172554"/>
</svg>
