<?xml version="1.0" standalone="no"?>
<!DOCTYPE svg PUBLIC "-//W3C//DTD SVG 20010904//EN"
 "http://www.w3.org/TR/2001/REC-SVG-20010904/DTD/svg10.dtd">
<svg version="1.0" xmlns="http://www.w3.org/2000/svg"
 width="700.000000pt" height="700.000000pt" viewBox="0 0 700.000000 700.000000"
 preserveAspectRatio="xMidYMid meet">
<metadata>
Created by potrace 1.14, written by Peter Selinger 2001-2017
</metadata>
<g transform="translate(0.000000,700.000000) scale(0.100000,-0.100000)"
fill="#000000" stroke="none">
<path d="M1835 6949 c-239 -25 -439 -80 -644 -175 -402 -188 -730 -506 -924
-899 -110 -223 -173 -441 -194 -679 -10 -105 -10 -3077 0 -3136 39 -238 221
-438 462 -506 52 -15 125 -17 545 -19 l485 -2 1 -469 c2 -391 5 -480 18 -537
58 -247 267 -442 519 -483 69 -11 1611 -10 1619 1 5 7 8 7 8 0 0 -11 1401 -12
1505 -1 119 13 152 18 264 43 748 164 1340 773 1489 1531 4 20 7 793 7 1718
l0 1681 -25 54 c-69 152 -173 259 -319 329 -115 55 -118 55 -646 55 l-490 0 0
-717 c0 -473 -3 -718 -10 -718 -5 0 -37 6 -70 13 -168 34 -342 -16 -474 -139
-133 -123 -198 -307 -170 -483 9 -62 54 -175 87 -221 133 -185 365 -275 578
-225 30 7 56 10 57 6 2 -3 3 -206 2 -451 -1 -377 -4 -454 -18 -507 -61 -232
-260 -421 -492 -468 -22 -5 -238 -10 -480 -11 -242 -1 -446 -3 -452 -3 -10 -1
-10 -7 -1 -28 20 -48 16 -249 -6 -313 -29 -85 -75 -159 -136 -220 -263 -267
-718 -192 -880 145 -59 122 -74 263 -41 375 6 19 11 37 11 40 0 3 -326 5 -725
4 l-725 -1 -1 26 c0 14 -1 340 -1 724 0 383 -2 697 -3 697 -2 0 -16 -5 -32
-11 -46 -18 -211 -20 -274 -4 -212 56 -366 214 -409 419 -11 54 -15 162 -6
201 46 219 185 375 389 436 93 28 295 27 313 -2 3 -5 9 -9 13 -9 5 0 9 199 9
443 1 472 1 485 27 562 79 233 261 391 499 434 37 7 228 11 494 11 408 0 433
1 428 18 -30 100 -29 230 3 332 37 119 139 243 251 306 61 35 166 65 240 69
261 15 499 -161 565 -418 18 -71 19 -161 1 -245 l-13 -62 726 2 726 3 -1 450
c0 466 -3 522 -30 602 -69 203 -206 337 -425 414 l-64 23 -840 2 c-609 1 -844
-2 -854 -10 -10 -8 -13 -8 -8 0 7 12 -1346 15 -1458 3z"/>
<path d="M3430 4304 c-162 -33 -308 -148 -379 -297 -46 -95 -61 -164 -56 -263
3 -90 26 -168 72 -246 41 -71 130 -163 186 -193 20 -11 37 -23 37 -27 0 -5
-66 -139 -146 -299 -80 -160 -143 -293 -140 -296 6 -7 1075 -11 1081 -4 2 2
-64 139 -148 304 -98 195 -147 302 -139 305 7 2 39 23 71 47 271 200 294 602
47 833 -55 51 -173 116 -241 131 -77 18 -173 20 -245 5z"/>
</g>
</svg>
