<svg height="80" viewBox="0 0 155 80" width="155" xmlns="http://www.w3.org/2000/svg"><g fill="#da291c" transform="translate(0 -.201439)"><path d="m52.1546296 51.0201879 3.2530864.3651088-1.0524691-2.2771257h-2.2006173z"/><path d="m54.4796296 43.2568227h-2.325v3.7759932h1.9135803c.7155306.0740163 1.4353625-.0914979 2.0475308-.4707981.7378427-.7995303.7378427-2.0348667 0-2.834397-.4702487-.351434-1.0518828-.5188018-1.6361111-.4707981z"/><path d="m66.5064815 54.5463699h-2.5450617v-.4996225l-4.755247-.4707982.4783951.9704207h-2.8225309l-.5836419-1.2586644-4.1237655-.4035413v1.6622057h-2.5450617v-1.912017l-1.8944444-.1921625.5932098 2.1041795h-2.5354938l-.5932099-2.3443826-4.3725308-.4323656-.7654321 2.7767482h-2.525926l.8611112-3.0169514-23.2021605-2.2771257 22.3027777 30.986204 80.9540119-20.8496318-51.9249995-5.0923064z"/><path d="m42.9598765 43.7372289-1.645679 6.053119 2.0283951.230595 1.2725309.1152975-1.6169754-6.3990115z"/><path d="m125.071605 37.9723538c-.227975-.2514497-.509136-.4484333-.82284-.5764875-.304048-.1228395-.629064-.1848522-.95679-.1825544-.583474-.0225077-1.148307.2085768-1.55.6341363-.408369.4603608-.615245 1.066285-.574074 1.6814219-.044332.6417778.161525 1.2757265.574074 1.767895.448465.4585145 1.074147.6972029 1.712655.6533525 1.031804.0254424 1.978225-.5728173 2.401543-1.5180837.011182-.4959207-.063272-.9900382-.220062-1.4604351-.119493-.3677454-.311474-.7075757-.564506-.999245z"/><path d="m0 45.1015827 38.9604938 4.4197377 2.3919753-8.359069h3.1669753l2.621605 9.2910571 2.4685185.2786356v-9.5504765h5.3101852c.6509233-.0116188 1.2987624.0924712 1.9135802.30746.9822088.3358927 1.7507731 1.1148014 2.0762346 2.1041795.1690941.501199.2531849 1.0273523.2487654 1.5565163.0289363.7691603-.1817764 1.5282283-.6027777 2.1714363-.4373727.6359717-1.0904055 1.0902347-1.8370371 1.2778806l1.5404321 3.1226407 5.6737654.6437444v-9.050854h-3.4635802v-2.15222h9.5200617v2.15222h-3.482716v9.3390978l5.2719136.5957038v-12.0678054h2.516358v12.3560491l4.6308642.5284469c-.4795885-.2872088-.9014511-.6619638-1.2438272-1.1049344-1.8570146-3.1318922-1.8570146-7.0335044 0-10.1653965.947441-1.2293359 2.4342903-1.9148698 3.9802469-1.835152 1.0814199-.0566925 2.1511539.2473351 3.0425926.8647313.8150874.6834236 1.3805869 1.6197444 1.6074074 2.6614507l-2.3058642.5572713c-.1632927-.5354448-.4673898-1.0167433-.8802469-1.3931782-.4273686-.3683021-.97771-.56053-1.5404321-.538055-.8310741-.0104466-1.6001022.4403469-1.9996913 1.1721913-.5554452 1.0946381-.8066514 2.3194376-.7271605 3.5453982-.0382716 3.1450597.8961934 4.7207922 2.803395 4.7271976.2645098.0013041.5281226-.030979.7845679-.0960812.2383246-.0620562.4624846-.1697138.6601852-.3170681.2264145-.1712507.4263204-.3752349.5932099-.6053119.2201899-.3001774.4093363-.6221121.5645062-.9608126l2.3632716.6341363c-.316971 1.0543865-.9688795 1.9756196-1.8561729 2.6230182-.4686863.3181334-.9904389.5491903-1.5404321.6821769l59.8089502 6.7833364 11.481482-60.99237915zm96.8080247 9.4447872h-8.333642v-13.3649023h2.5450617v11.2222903h5.7885803zm11.0509263 0h-9.0225312v-13.3649023h8.8120372v2.1522201h-6.276543v3.1802894h4.554321v2.1330039h-4.554321v3.7375607h6.477469zm9.127777-5.7648752h-6.506172v-1.8639763h2.085802v-9.2238002h-2.391975v-1.5373001c.56656-.0177354 1.128845-.1048527 1.674382-.2594194.452791-.1182399.869938-.3458315 1.215124-.6629606h1.865741v11.6834803h2.04753zm10.888272-4.3140482c-.223054.8688599-.602442 1.6894377-1.119444 2.4212475-.467173.6507783-1.084355 1.1782482-1.798766 1.5373001-.750656.3664828-1.576538.5507837-2.411111.538055-.593726.0084818-1.184937-.0791129-1.750926-.2594194-.543636-.1850478-1.06384-.433345-1.55-.7398256l1.052469-1.9216251c.290952.2538061.612377.4700665.95679.6437444.39663.1915694.832489.2870059 1.272531.2786356.446779.001381.887052-.1075003 1.282099-.3170681.404877-.2147306.760213-.5126346 1.042901-.8743394.305399-.3903474.544616-.8285909.708025-1.2970969.181487-.5124177.278441-1.0511544.287037-1.5949488-.394837.3618391-.856398.6425516-1.358642.8262988-.527446.1753003-1.080616.2597617-1.636111.2498112-.561031.0056149-1.117449-.1022154-1.636111-.3170681-.487369-.2051089-.92716-.5093491-1.291667-.8935557-.373118-.3975225-.665596-.8641914-.861111-1.3739619-.215361-.5606768-.322513-1.1573848-.315741-1.7582869-.011097-.6432315.112783-1.2816034.36358-1.8735844.216392-.5247801.542709-.9966519.956791-1.3835701.435783-.3843968.943078-.6782971 1.492592-.8647312.597929-.202232 1.225261-.3028972 1.856173-.2978519.657381-.0052856 1.308792.1255443 1.91358.384325.584921.2546026 1.102569.6428261 1.511729 1.1337588.44706.5676973.772769 1.2218549.95679 1.921625.248946.8678621.36825 1.7680215.354012 2.6710589.047148 1.0613771-.046156 2.1243444-.277469 3.1610732z"/></g></svg>