<?xml version="1.0" encoding="utf-8"?>
<!-- Generator: Adobe Illustrator 25.4.1, SVG Export Plug-In . SVG Version: 6.00 Build 0)  -->
<svg version="1.1" id="Layer_1" xmlns="http://www.w3.org/2000/svg" xmlns:xlink="http://www.w3.org/1999/xlink" x="0px" y="0px"
	 viewBox="0 0 600 320" style="enable-background:new 0 0 600 320;" xml:space="preserve">
<style type="text/css">
	.st0{fill:#385E8A;}
</style>
<g>
	<polygon class="st0" points="160.73,115.44 209.94,115.44 209.94,127.91 175.02,127.91 175.02,150.59 205.86,150.59 205.86,162.38
		175.02,162.38 175.02,197.08 160.73,197.08 	"/>
	<path class="st0" d="M251.23,150.82c-0.91-0.12-2.39-0.23-3.63-0.23c-8.17,0-14.28,5.45-16.66,7.94v38.56h-14.06v-57.84h14.06v8.96
		c3.29-5.44,9.07-10.32,16.78-10.32c1.25,0,2.61,0.12,3.52,0.35V150.82z"/>
	<path class="st0" d="M268.12,163.06h24.83c-0.11-10.43-4.76-14.97-11.56-14.97C274.25,148.09,269.03,153.2,268.12,163.06
		 M268.36,172.14c0.91,11.45,6.92,15.76,15.76,15.76c5.67,0,11.23-1.82,17.46-4.88l2.95,10.1c-6.13,3.29-14.51,5.33-22.23,5.33
		c-17.24,0-28.35-9.97-28.35-29.48c0-20.3,12.14-31.07,27.9-31.07c14.63,0,24.27,9.19,24.27,28.12c0,2.04-0.11,4.09-0.34,6.13
		H268.36z"/>
	<path class="st0" d="M326.88,163.06h24.84c-0.11-10.43-4.76-14.97-11.57-14.97C333,148.09,327.78,153.2,326.88,163.06
		 M327.11,172.14c0.91,11.45,6.92,15.76,15.76,15.76c5.67,0,11.23-1.82,17.46-4.88l2.95,10.1c-6.13,3.29-14.51,5.33-22.23,5.33
		c-17.24,0-28.35-9.97-28.35-29.48c0-20.3,12.14-31.07,27.9-31.07c14.63,0,24.27,9.19,24.27,28.12c0,2.04-0.11,4.09-0.34,6.13
		H327.11z"/>
	<path class="st0" d="M410.91,180.53v-24.38c-3.97-4.19-8.17-6.23-12.59-6.23c-7.6,0-12.81,5.78-12.81,18.71
		c0,12.92,5.22,18.59,12.36,18.59C402.4,187.22,406.6,184.95,410.91,180.53 M412.5,197.08c-0.57-0.91-1.13-2.49-1.47-7.6
		c-4.99,5.78-10.77,8.96-17.81,8.96c-12.93,0-21.77-10.44-21.77-29.26c0-20.3,10.21-31.29,23.13-31.29c6.46,0,11.68,2.72,16.33,8.17
		v-30.62h14.06v68.49c0,9.07,0.56,12.02,1.13,13.15H412.5z"/>
	<path class="st0" d="M461.61,188.12c7.26,0,13.16-5.56,13.16-19.73c0-14.17-5.9-19.73-13.16-19.73c-7.26,0-13.15,5.56-13.15,19.73
		C448.45,182.57,454.35,188.12,461.61,188.12 M461.38,198.44c-14.63,0-26.99-9.41-26.99-30.05c0-20.86,12.58-30.5,27.44-30.5
		c14.62,0,26.99,9.41,26.99,30.05C488.83,188.8,476.24,198.44,461.38,198.44"/>
	<path class="st0" d="M498.25,139.25h14.06v7.71c4.65-4.76,11.45-9.07,20.07-9.07c6,0,12.02,2.15,14.17,9.19
		c4.88-4.76,11.91-9.19,21.09-9.19c8.73,0,14.97,4.09,14.97,16.1v43.09h-14.06v-39c0-6.13-2.61-7.94-6.8-7.94
		c-5.44,0-10.21,2.95-14.28,6.69v40.25h-14.07v-39c0-6.13-2.72-7.94-6.8-7.94c-5.33,0-10.21,2.95-14.28,6.92v40.03h-14.06V139.25z"
		/>
	<polygon class="st0" points="208.24,213.48 208.24,246.92 175.01,246.92 175.01,213.48 160.73,213.48 160.73,295.12 175.01,295.12
		175.01,259.28 208.24,259.28 208.24,295.12 222.53,295.12 222.53,213.48 	"/>
	<path class="st0" d="M259.85,286.16c7.26,0,13.16-5.56,13.16-19.73c0-14.17-5.9-19.73-13.16-19.73c-7.26,0-13.15,5.56-13.15,19.73
		C246.69,280.6,252.59,286.16,259.85,286.16 M259.62,296.48c-14.63,0-26.99-9.41-26.99-30.05c0-20.86,12.58-30.5,27.44-30.5
		c14.62,0,26.99,9.41,26.99,30.05C287.07,286.84,274.48,296.48,259.62,296.48"/>
	<path class="st0" d="M345.81,295.12h-14.06v-7.71c-5.33,5.22-12.36,9.07-20.86,9.07c-8.84,0-15.42-4.09-15.42-16.1v-43.09h14.06
		v39.46c0,6.01,2.72,7.94,7.15,7.94c5.55,0,10.77-3.06,15.08-6.92v-40.48h14.06V295.12z"/>
	<path class="st0" d="M394.7,252.14c-4.42-3.06-9.87-5.33-14.86-5.33c-5.21,0-8.16,2.6-8.16,6.12c0,10.89,27.78,3.4,27.78,24.27
		c0,12.02-9.19,19.28-23.47,19.28c-7.26,0-14.51-1.92-20.19-5.1l2.95-10.88c5.44,3.06,11.34,5.44,17.12,5.44
		c6.46,0,9.98-2.95,9.98-7.14c0-11.8-27.79-4.54-27.79-24.61c0-11.22,8.51-18.26,21.66-18.26c6.8,0,12.93,1.93,17.92,4.99
		L394.7,252.14z"/>
	<path class="st0" d="M420.21,261.1h24.84c-0.11-10.43-4.76-14.97-11.57-14.97C426.34,246.13,421.12,251.23,420.21,261.1
		 M420.44,270.17c0.91,11.45,6.92,15.76,15.76,15.76c5.67,0,11.23-1.82,17.46-4.88l2.95,10.1c-6.13,3.29-14.51,5.33-22.23,5.33
		c-17.24,0-28.35-9.97-28.35-29.48c0-20.3,12.14-31.07,27.9-31.07c14.63,0,24.27,9.19,24.27,28.12c0,2.04-0.11,4.09-0.34,6.13
		H420.44z"/>
</g>
<g>
	<path class="st0" d="M53.67,158.57c-8.1,0-13.21-5.66-13.21-13.87v-15.09c0-4.44,1.89-7.66,4.77-9.43
		c-2.89-1.66-4.77-4.88-4.77-9.32V96.32c0-8.1,5.1-13.87,13.21-13.87c7.99,0,13.09,5.77,13.09,13.87v14.54
		c0,4.44-1.89,7.66-4.77,9.32c2.88,1.78,4.88,4.99,4.88,9.43v15.09C66.87,152.91,61.66,158.57,53.67,158.57z M58,96.09
		c0-2.66-1.78-4.44-4.33-4.44c-2.55,0-4.33,1.78-4.33,4.44v16.76c0,2.22,1.55,4.11,4.33,4.11c2.77,0,4.33-1.89,4.33-4.11V96.09z
		 M58,127.61c0-2.33-1.55-4.11-4.33-4.11c-2.77,0-4.33,1.78-4.33,4.11v17.31c0,2.66,1.78,4.44,4.33,4.44c2.55,0,4.33-1.78,4.33-4.44
		V127.61z"/>
	<path class="st0" d="M86.96,158.57c-7.99,0-13.65-5.88-13.65-14.65V97.09c0-8.77,5.66-14.65,13.65-14.65
		c8.1,0,13.54,5.88,13.54,14.65v46.83C100.5,152.69,95.06,158.57,86.96,158.57z M91.4,95.98c0-2.44-1.78-4.44-4.44-4.44
		c-2.66,0-4.44,2-4.44,4.44v49.05c0,2.44,1.78,4.44,4.44,4.44c2.66,0,4.44-2,4.44-4.44V95.98z"/>
</g>
<g>
	<path class="st0" d="M30.43,125.17c-4.35-11.32-5.09-26.22,12.81-45.5c6.97-7.51,12.87-11.41,17.79-20.36
		c8.43-15.32,5.78-35.33-5.08-47.02C58.3,23.3,60,36.46,49.71,45.66c-9.87,8.62-20.88,14.48-26.82,25.77
		c-8.23,15.4-9.88,37.35,8.57,59.35C32.56,135.08,29.4,115.27,30.43,125.17z"/>
	<path class="st0" d="M99.56,161.37c12.84,0.15,25.24-9.74,27.14-22.3c0.76-6.62-1.54-11.72-3.86-17.52
		c-3.45-7.83-7.24-14.6-4.1-22.36c2.2-5.29,4.8-10.26,9.54-12.88c-15.83,2.75-15.93,23.91-14.43,36.02
		C117.48,151.4,99.56,161.37,99.56,161.37z"/>
</g>
<path class="st0" d="M51.22,195.41l11.25,98.16c0,0,8.7,6.55,18.05,0l9.69-98.16H51.22z"/>
<g>
	<polygon class="st0" points="69.98,173.02 68.34,179.06 71.57,179.06 70.02,173.02 	"/>
	<path class="st0" d="M83.55,172.52h-2.43v3.93h1.96c2.08,0,2.72-0.66,2.72-1.96S85.01,172.52,83.55,172.52z"/>
	<path class="st0" d="M34.98,164.1v27.18h71.23V164.1H34.98z M45.95,178.72v5.55h-2.66v-5.55l-3.83-8.36h2.77l2.39,5.51l2.39-5.51
		h2.77L45.95,178.72z M62.16,184.27h-9.42v-13.9h9.21v2.23H55.4v3.31h4.76v2.23H55.4v3.89h6.76V184.27z M72.92,184.27l-0.77-3h-4.39
		l-0.83,3H64.3l4-13.92h3.31l3.95,13.92H72.92z M86.03,184.27l-2.62-5.66h-2.29v5.66h-2.66v-13.9h5.55c3.16,0,4.43,1.83,4.45,4.12
		c0.02,1.71-0.85,3.1-2.54,3.58l3.06,6.2H86.03z M96.85,184.46c-2.27,0-4.41-1.27-5.2-3.29l2.2-0.96c0.64,1.31,1.46,2.18,3.02,2.18
		c1.33,0,2.35-0.5,2.35-1.85c0-2.74-7.16-2.2-7.16-6.47c0-2.48,2.08-3.89,4.49-3.89c2.23,0,4.08,1.12,4.91,3.14l-2.43,0.75
		c-0.4-1.08-1.23-1.81-2.48-1.81c-1.16,0-1.98,0.46-1.98,1.54c0,2.39,7.16,1.89,7.16,6.39C101.72,183.03,99.93,184.46,96.85,184.46z
		"/>
</g>
</svg>
