<svg width="480" height="318" viewBox="0 0 480 318" fill="none" xmlns="http://www.w3.org/2000/svg">
<path d="M12.6661 201.449C12.6661 199.801 12.8261 199.201 13.4501 199.201C14.0741 199.201 14.2341 199.801 14.2341 201.449C14.2341 203.097 14.0741 203.697 13.4501 203.697C12.8261 203.697 12.6661 203.097 12.6661 201.449ZM11.7541 201.449C11.7541 203.649 12.3621 204.337 13.4501 204.337C14.5381 204.337 15.1461 203.649 15.1461 201.449C15.1461 199.249 14.5381 198.561 13.4501 198.561C12.3621 198.561 11.7541 199.249 11.7541 201.449Z" fill="black"/>
<path d="M7.41864 179.06H5.12264C5.55464 177.676 7.39464 177.556 7.39464 175.676C7.39464 174.852 6.95464 174.164 5.79464 174.164C4.58664 174.164 4.12264 174.86 4.12264 175.988H4.98664C4.98664 175.412 5.09864 174.804 5.77864 174.804C6.28264 174.804 6.48264 175.196 6.48264 175.66C6.48264 177.42 4.10664 177.364 4.10664 179.828H7.41864V179.06ZM8.82239 177.052C8.82239 175.404 8.98239 174.804 9.60639 174.804C10.2304 174.804 10.3904 175.404 10.3904 177.052C10.3904 178.7 10.2304 179.3 9.60639 179.3C8.98239 179.3 8.82239 178.7 8.82239 177.052ZM7.91039 177.052C7.91039 179.252 8.51839 179.94 9.60639 179.94C10.6944 179.94 11.3024 179.252 11.3024 177.052C11.3024 174.852 10.6944 174.164 9.60639 174.164C8.51839 174.164 7.91039 174.852 7.91039 177.052ZM12.6661 177.052C12.6661 175.404 12.8261 174.804 13.4501 174.804C14.0741 174.804 14.2341 175.404 14.2341 177.052C14.2341 178.7 14.0741 179.3 13.4501 179.3C12.8261 179.3 12.6661 178.7 12.6661 177.052ZM11.7541 177.052C11.7541 179.252 12.3621 179.94 13.4501 179.94C14.5381 179.94 15.1461 179.252 15.1461 177.052C15.1461 174.852 14.5381 174.164 13.4501 174.164C12.3621 174.164 11.7541 174.852 11.7541 177.052Z" fill="black"/>
<path d="M4.01087 154.16H6.03487V155.432H6.89887V154.16H7.51487V153.432H6.89887V149.768H5.97087L4.01087 153.376V154.16ZM6.03487 153.432H4.74687L6.01887 151.096H6.03487V153.432ZM8.82262 152.656C8.82262 151.008 8.98262 150.408 9.60662 150.408C10.2306 150.408 10.3906 151.008 10.3906 152.656C10.3906 154.304 10.2306 154.904 9.60662 154.904C8.98262 154.904 8.82262 154.304 8.82262 152.656ZM7.91062 152.656C7.91062 154.856 8.51862 155.544 9.60662 155.544C10.6946 155.544 11.3026 154.856 11.3026 152.656C11.3026 150.456 10.6946 149.768 9.60662 149.768C8.51862 149.768 7.91062 150.456 7.91062 152.656ZM12.6664 152.656C12.6664 151.008 12.8264 150.408 13.4504 150.408C14.0744 150.408 14.2344 151.008 14.2344 152.656C14.2344 154.304 14.0744 154.904 13.4504 154.904C12.8264 154.904 12.6664 154.304 12.6664 152.656ZM11.7544 152.656C11.7544 154.856 12.3624 155.544 13.4504 155.544C14.5384 155.544 15.1464 154.856 15.1464 152.656C15.1464 150.456 14.5384 149.768 13.4504 149.768C12.3624 149.768 11.7544 150.456 11.7544 152.656Z" fill="black"/>
<path d="M5.05076 102.463C5.05076 102.015 5.19476 101.615 5.76276 101.615C6.33076 101.615 6.47476 102.015 6.47476 102.463C6.47476 102.919 6.33076 103.327 5.76276 103.327C5.19476 103.327 5.05076 102.919 5.05076 102.463ZM4.96276 105.039C4.96276 104.439 5.12276 103.967 5.76276 103.967C6.40276 103.967 6.56276 104.439 6.56276 105.039C6.56276 105.631 6.40276 106.111 5.76276 106.111C5.12276 106.111 4.96276 105.631 4.96276 105.039ZM5.76276 106.751C6.92276 106.751 7.47476 106.167 7.47476 105.055C7.47476 104.215 7.06676 103.751 6.50676 103.639V103.623C6.99476 103.455 7.29076 103.079 7.29076 102.399C7.29076 101.519 6.70676 100.975 5.76276 100.975C4.81876 100.975 4.23476 101.519 4.23476 102.399C4.23476 103.079 4.53076 103.455 5.01876 103.623V103.639C4.45876 103.751 4.05076 104.215 4.05076 105.055C4.05076 106.167 4.60276 106.751 5.76276 106.751ZM8.82251 103.863C8.82251 102.215 8.98251 101.615 9.60651 101.615C10.2305 101.615 10.3905 102.215 10.3905 103.863C10.3905 105.511 10.2305 106.111 9.60651 106.111C8.98251 106.111 8.82251 105.511 8.82251 103.863ZM7.91051 103.863C7.91051 106.063 8.51851 106.751 9.60651 106.751C10.6945 106.751 11.3025 106.063 11.3025 103.863C11.3025 101.663 10.6945 100.975 9.60651 100.975C8.51851 100.975 7.91051 101.663 7.91051 103.863ZM12.6663 103.863C12.6663 102.215 12.8263 101.615 13.4503 101.615C14.0743 101.615 14.2343 102.215 14.2343 103.863C14.2343 105.511 14.0743 106.111 13.4503 106.111C12.8263 106.111 12.6663 105.511 12.6663 103.863ZM11.7543 103.863C11.7543 106.063 12.3623 106.751 13.4503 106.751C14.5383 106.751 15.1463 106.063 15.1463 103.863C15.1463 101.663 14.5383 100.975 13.4503 100.975C12.3623 100.975 11.7543 101.663 11.7543 103.863Z" fill="black"/>
<path d="M7.37876 126.747C7.37876 125.819 6.84276 125.371 5.85076 125.371C4.35476 125.371 4.04276 126.739 4.04276 128.435C4.04276 130.059 4.31476 131.147 5.74676 131.147C6.94676 131.147 7.48276 130.371 7.48276 129.067C7.48276 127.939 6.85876 127.379 6.08276 127.379C5.58676 127.379 5.20276 127.571 4.97876 127.979L4.95476 127.963C4.95476 127.139 5.00276 126.011 5.85876 126.011C6.31476 126.011 6.46676 126.419 6.46676 126.747H7.37876ZM5.03476 129.331C5.03476 128.651 5.15476 128.067 5.81876 128.067C6.33876 128.067 6.57076 128.507 6.57076 129.291C6.57076 129.955 6.37876 130.507 5.81876 130.507C5.28276 130.507 5.03476 129.987 5.03476 129.331ZM8.82251 128.259C8.82251 126.611 8.98251 126.011 9.60651 126.011C10.2305 126.011 10.3905 126.611 10.3905 128.259C10.3905 129.907 10.2305 130.507 9.60651 130.507C8.98251 130.507 8.82251 129.907 8.82251 128.259ZM7.91051 128.259C7.91051 130.459 8.51851 131.147 9.60651 131.147C10.6945 131.147 11.3025 130.459 11.3025 128.259C11.3025 126.059 10.6945 125.371 9.60651 125.371C8.51851 125.371 7.91051 126.059 7.91051 128.259ZM12.6663 128.259C12.6663 126.611 12.8263 126.011 13.4503 126.011C14.0743 126.011 14.2343 126.611 14.2343 128.259C14.2343 129.907 14.0743 130.507 13.4503 130.507C12.8263 130.507 12.6663 129.907 12.6663 128.259ZM11.7543 128.259C11.7543 130.459 12.3623 131.147 13.4503 131.147C14.5383 131.147 15.1463 130.459 15.1463 128.259C15.1463 126.059 14.5383 125.371 13.4503 125.371C12.3623 125.371 11.7543 126.059 11.7543 128.259Z" fill="black"/>
<path d="M2.56701 57.845V52.181H1.90301V52.293C1.74301 53.013 1.11101 53.141 0.567014 53.141H0.479014V53.733H1.65501V57.845H2.56701ZM7.41876 57.077H5.12276C5.55476 55.693 7.39476 55.573 7.39476 53.693C7.39476 52.869 6.95476 52.181 5.79476 52.181C4.58676 52.181 4.12276 52.877 4.12276 54.005H4.98676C4.98676 53.429 5.09876 52.821 5.77876 52.821C6.28276 52.821 6.48276 53.213 6.48276 53.677C6.48276 55.437 4.10676 55.381 4.10676 57.845H7.41876V57.077ZM8.82251 55.069C8.82251 53.421 8.98251 52.821 9.60651 52.821C10.2305 52.821 10.3905 53.421 10.3905 55.069C10.3905 56.717 10.2305 57.317 9.60651 57.317C8.98251 57.317 8.82251 56.717 8.82251 55.069ZM7.91051 55.069C7.91051 57.269 8.51851 57.957 9.60651 57.957C10.6945 57.957 11.3025 57.269 11.3025 55.069C11.3025 52.869 10.6945 52.181 9.60651 52.181C8.51851 52.181 7.91051 52.869 7.91051 55.069ZM12.6663 55.069C12.6663 53.421 12.8263 52.821 13.4503 52.821C14.0743 52.821 14.2343 53.421 14.2343 55.069C14.2343 56.717 14.0743 57.317 13.4503 57.317C12.8263 57.317 12.6663 56.717 12.6663 55.069ZM11.7543 55.069C11.7543 57.269 12.3623 57.957 13.4503 57.957C14.5383 57.957 15.1463 57.269 15.1463 55.069C15.1463 52.869 14.5383 52.181 13.4503 52.181C12.3623 52.181 11.7543 52.869 11.7543 55.069Z" fill="black"/>
<path d="M2.56701 82.2419V76.5779H1.90301V76.6899C1.74301 77.4099 1.11101 77.5379 0.567014 77.5379H0.479014V78.1299H1.65501V82.2419H2.56701ZM4.97876 79.4659C4.97876 77.8179 5.13876 77.2179 5.76276 77.2179C6.38676 77.2179 6.54676 77.8179 6.54676 79.4659C6.54676 81.1139 6.38676 81.7139 5.76276 81.7139C5.13876 81.7139 4.97876 81.1139 4.97876 79.4659ZM4.06676 79.4659C4.06676 81.6659 4.67476 82.3539 5.76276 82.3539C6.85076 82.3539 7.45876 81.6659 7.45876 79.4659C7.45876 77.2659 6.85076 76.5779 5.76276 76.5779C4.67476 76.5779 4.06676 77.2659 4.06676 79.4659ZM8.82251 79.4659C8.82251 77.8179 8.98251 77.2179 9.60651 77.2179C10.2305 77.2179 10.3905 77.8179 10.3905 79.4659C10.3905 81.1139 10.2305 81.7139 9.60651 81.7139C8.98251 81.7139 8.82251 81.1139 8.82251 79.4659ZM7.91051 79.4659C7.91051 81.6659 8.51851 82.3539 9.60651 82.3539C10.6945 82.3539 11.3025 81.6659 11.3025 79.4659C11.3025 77.2659 10.6945 76.5779 9.60651 76.5779C8.51851 76.5779 7.91051 77.2659 7.91051 79.4659ZM12.6663 79.4659C12.6663 77.8179 12.8263 77.2179 13.4503 77.2179C14.0743 77.2179 14.2343 77.8179 14.2343 79.4659C14.2343 81.1139 14.0743 81.7139 13.4503 81.7139C12.8263 81.7139 12.6663 81.1139 12.6663 79.4659ZM11.7543 79.4659C11.7543 81.6659 12.3623 82.3539 13.4503 82.3539C14.5383 82.3539 15.1463 81.6659 15.1463 79.4659C15.1463 77.2659 14.5383 76.5779 13.4503 76.5779C12.3623 76.5779 11.7543 77.2659 11.7543 79.4659Z" fill="black"/>
<path d="M2.56701 33.4485V27.7845H1.90301V27.8965C1.74301 28.6165 1.11101 28.7445 0.567014 28.7445H0.479014V29.3365H1.65501V33.4485H2.56701ZM4.01076 32.1765H6.03476V33.4485H6.89876V32.1765H7.51476V31.4485H6.89876V27.7845H5.97076L4.01076 31.3925V32.1765ZM6.03476 31.4485H4.74676L6.01876 29.1125H6.03476V31.4485ZM8.82251 30.6725C8.82251 29.0245 8.98251 28.4245 9.60651 28.4245C10.2305 28.4245 10.3905 29.0245 10.3905 30.6725C10.3905 32.3205 10.2305 32.9205 9.60651 32.9205C8.98251 32.9205 8.82251 32.3205 8.82251 30.6725ZM7.91051 30.6725C7.91051 32.8725 8.51851 33.5605 9.60651 33.5605C10.6945 33.5605 11.3025 32.8725 11.3025 30.6725C11.3025 28.4725 10.6945 27.7845 9.60651 27.7845C8.51851 27.7845 7.91051 28.4725 7.91051 30.6725ZM12.6663 30.6725C12.6663 29.0245 12.8263 28.4245 13.4503 28.4245C14.0743 28.4245 14.2343 29.0245 14.2343 30.6725C14.2343 32.3205 14.0743 32.9205 13.4503 32.9205C12.8263 32.9205 12.6663 32.3205 12.6663 30.6725ZM11.7543 30.6725C11.7543 32.8725 12.3623 33.5605 13.4503 33.5605C14.5383 33.5605 15.1463 32.8725 15.1463 30.6725C15.1463 28.4725 14.5383 27.7845 13.4503 27.7845C12.3623 27.7845 11.7543 28.4725 11.7543 30.6725Z" fill="black"/>
<path d="M2.56701 9.05176V3.38776H1.90301V3.49976C1.74301 4.21976 1.11101 4.34776 0.567014 4.34776H0.479014V4.93976H1.65501V9.05176H2.56701ZM7.37876 4.76376C7.37876 3.83576 6.84276 3.38776 5.85076 3.38776C4.35476 3.38776 4.04276 4.75576 4.04276 6.45176C4.04276 8.07576 4.31476 9.16376 5.74676 9.16376C6.94676 9.16376 7.48276 8.38776 7.48276 7.08376C7.48276 5.95576 6.85876 5.39576 6.08276 5.39576C5.58676 5.39576 5.20276 5.58776 4.97876 5.99576L4.95476 5.97976C4.95476 5.15576 5.00276 4.02776 5.85876 4.02776C6.31476 4.02776 6.46676 4.43576 6.46676 4.76376H7.37876ZM5.03476 7.34776C5.03476 6.66776 5.15476 6.08376 5.81876 6.08376C6.33876 6.08376 6.57076 6.52376 6.57076 7.30776C6.57076 7.97176 6.37876 8.52376 5.81876 8.52376C5.28276 8.52376 5.03476 8.00376 5.03476 7.34776ZM8.82251 6.27576C8.82251 4.62776 8.98251 4.02776 9.60651 4.02776C10.2305 4.02776 10.3905 4.62776 10.3905 6.27576C10.3905 7.92376 10.2305 8.52376 9.60651 8.52376C8.98251 8.52376 8.82251 7.92376 8.82251 6.27576ZM7.91051 6.27576C7.91051 8.47576 8.51851 9.16376 9.60651 9.16376C10.6945 9.16376 11.3025 8.47576 11.3025 6.27576C11.3025 4.07576 10.6945 3.38776 9.60651 3.38776C8.51851 3.38776 7.91051 4.07576 7.91051 6.27576ZM12.6663 6.27576C12.6663 4.62776 12.8263 4.02776 13.4503 4.02776C14.0743 4.02776 14.2343 4.62776 14.2343 6.27576C14.2343 7.92376 14.0743 8.52376 13.4503 8.52376C12.8263 8.52376 12.6663 7.92376 12.6663 6.27576ZM11.7543 6.27576C11.7543 8.47576 12.3623 9.16376 13.4503 9.16376C14.5383 9.16376 15.1463 8.47576 15.1463 6.27576C15.1463 4.07576 14.5383 3.38776 13.4503 3.38776C12.3623 3.38776 11.7543 4.07576 11.7543 6.27576Z" fill="black"/>
<path d="M23.9353 178.547H473.936" stroke="#CCCCCC" stroke-width="0.389151"/>
<path d="M23.9353 153.986H473.936" stroke="#CCCCCC" stroke-width="0.389151"/>
<path d="M23.9353 129.426H473.936" stroke="#CCCCCC" stroke-width="0.389151"/>
<path d="M23.9353 31.1831H473.936" stroke="#CCCCCC" stroke-width="0.389151"/>
<path d="M23.9353 104.865H473.936" stroke="#CCCCCC" stroke-width="0.389151"/>
<path d="M23.9353 6.62256H473.936" stroke="#CCCCCC" stroke-width="0.389151"/>
<path d="M23.9353 80.3044H473.936" stroke="#CCCCCC" stroke-width="0.389151"/>
<path d="M23.9353 55.7439H473.936" stroke="#CCCCCC" stroke-width="0.389151"/>
<path d="M23.9353 203.107H473.936" stroke="#CCCCCC" stroke-width="0.389151"/>
<path d="M285.564 56.7986H293.564V58.3934H285.564V56.7986Z" fill="#A5A5A5"/>
<path d="M285.564 58.3933H293.564V94.0931H285.564V58.3933Z" fill="#ED821F"/>
<path d="M285.564 94.093H293.564V202.91H285.564V94.093Z" fill="#D41D33"/>
<path d="M296.564 94.9519H304.564V95.9333H296.564V94.9519Z" fill="#CECECE"/>
<path d="M296.564 95.9333H304.564V115.807H296.564V95.9333Z" fill="#FFDA79"/>
<path d="M296.564 115.807H304.564V202.91H296.564V115.807Z" fill="#FB6678"/>
<path d="M236.318 26.7419H244.318V28.4595H236.318V26.7419Z" fill="#A5A5A5"/>
<path d="M236.318 28.4595H244.318V52.2593H236.318V28.4595Z" fill="#ED821F"/>
<path d="M236.318 52.2593H244.318V202.91H236.318V52.2593Z" fill="#D41D33"/>
<path d="M247.318 40.3594H255.318V41.7089H247.318V40.3594Z" fill="#CECECE"/>
<path d="M247.318 41.709H255.318V61.0924H247.318V41.709Z" fill="#FFDA79"/>
<path d="M247.318 61.0923H255.318V202.91H247.318V61.0923Z" fill="#FB6678"/>
<path d="M187.071 35.575H195.071V39.378H187.071V35.575Z" fill="#A5A5A5"/>
<path d="M187.071 39.3779H195.071V202.91H187.071V39.3779Z" fill="#D41D33"/>
<path d="M198.071 49.9285H206.071V52.2594H198.071V49.9285Z" fill="#CECECE"/>
<path d="M198.071 52.2593H206.071V202.91H198.071V52.2593Z" fill="#FB6678"/>
<path d="M137.825 55.3264H145.825V58.6388H137.825V55.3264Z" fill="#A5A5A5"/>
<path d="M137.825 58.6387H145.825V202.91H137.825V58.6387Z" fill="#D41D33"/>
<path d="M148.825 103.171H156.825V105.38H148.825V103.171Z" fill="#CECECE"/>
<path d="M148.825 105.38H156.825V202.91H148.825V105.38Z" fill="#FB6678"/>
<path d="M88.5786 77.6541H96.5786V83.5427H88.5786V77.6541Z" fill="#A5A5A5"/>
<path d="M88.5786 83.5427H96.5786V202.91H88.5786V83.5427Z" fill="#D41D33"/>
<path d="M99.5786 127.462H107.579V131.02H99.5786V127.462Z" fill="#CECECE"/>
<path d="M99.5786 131.02H107.579V202.91H99.5786V131.02Z" fill="#FB6678"/>
<path d="M39.3323 147.091H47.3323V202.91H39.3323V147.091Z" fill="#D41D33"/>
<path d="M39.3323 142.674H47.3323V147.091H39.3323V142.674Z" fill="#A5A5A5"/>
<path d="M50.3323 161.076H58.3323V164.143H50.3323V161.076Z" fill="#CECECE"/>
<path d="M50.3323 164.143H58.3323V202.91H50.3323V164.143Z" fill="#FB6678"/>
<path d="M433.303 171.259H441.303V173.712H433.303V171.259Z" fill="#A5A5A5"/>
<path d="M433.303 173.712H441.303V198.861H433.303V173.712Z" fill="#ED821F"/>
<path d="M433.303 198.862H441.303V202.91H433.303V198.862Z" fill="#D41D33"/>
<path d="M444.303 185.367H452.303V187.452H444.303V185.367Z" fill="#CECECE"/>
<path d="M444.303 187.452H452.303V202.787H444.303V187.452Z" fill="#FFDA79"/>
<path d="M444.303 202.787H452.303V202.91H444.303V202.787Z" fill="#FB6678"/>
<path d="M384.057 141.57H392.057V143.533H384.057V141.57Z" fill="#A5A5A5"/>
<path d="M384.057 143.533H392.057V195.304H384.057V143.533Z" fill="#ED821F"/>
<path d="M384.057 195.304H392.057V202.91H384.057V195.304Z" fill="#D41D33"/>
<path d="M395.057 179.601H403.057V180.582H395.057V179.601Z" fill="#CECECE"/>
<path d="M395.057 180.582H403.057V201.56H395.057V180.582Z" fill="#FFDA79"/>
<path d="M395.057 201.56H403.057V202.91H395.057V201.56Z" fill="#FB6678"/>
<path d="M334.81 89.554H342.81V90.7808H334.81V89.554Z" fill="#A5A5A5"/>
<path d="M334.81 90.7808H342.81V128.811H334.81V90.7808Z" fill="#ED821F"/>
<path d="M334.81 128.812H342.81V202.91H334.81V128.812Z" fill="#D41D33"/>
<path d="M345.81 123.168H353.81V123.782H345.81V123.168Z" fill="#CECECE"/>
<path d="M345.81 123.781H353.81V143.41H345.81V123.781Z" fill="#FFDA79"/>
<path d="M345.81 143.41H353.81V202.91H345.81V143.41Z" fill="#FB6678"/>
<path d="M44.5828 221.924H42.2868C42.7188 220.54 44.5588 220.42 44.5588 218.54C44.5588 217.716 44.1188 217.028 42.9588 217.028C41.7508 217.028 41.2868 217.724 41.2868 218.852H42.1508C42.1508 218.276 42.2628 217.668 42.9428 217.668C43.4468 217.668 43.6468 218.06 43.6468 218.524C43.6468 220.284 41.2708 220.228 41.2708 222.692H44.5828V221.924ZM45.9866 219.916C45.9866 218.268 46.1466 217.668 46.7706 217.668C47.3946 217.668 47.5546 218.268 47.5546 219.916C47.5546 221.564 47.3946 222.164 46.7706 222.164C46.1466 222.164 45.9866 221.564 45.9866 219.916ZM45.0746 219.916C45.0746 222.116 45.6826 222.804 46.7706 222.804C47.8586 222.804 48.4666 222.116 48.4666 219.916C48.4666 217.716 47.8586 217.028 46.7706 217.028C45.6826 217.028 45.0746 217.716 45.0746 219.916ZM51.2623 222.692V217.028H50.5983V217.14C50.4383 217.86 49.8063 217.988 49.2623 217.988H49.1743V218.58H50.3503V222.692H51.2623ZM52.7861 221.116C52.7861 222.3 53.3781 222.804 54.4021 222.804C55.5701 222.804 56.1301 222.172 56.1301 221.052C56.1301 220.26 55.6821 219.788 55.0981 219.74V219.716C55.6581 219.628 56.0021 219.06 56.0021 218.476C56.0021 217.34 55.1621 217.028 54.4821 217.028C53.4021 217.028 52.8501 217.604 52.8501 218.66H53.7141C53.7141 218.148 53.8741 217.668 54.4341 217.668C54.9061 217.668 55.0901 218.076 55.0901 218.484C55.0901 219.036 54.8821 219.452 54.2741 219.452H53.9461V220.092H54.2981C54.9861 220.092 55.2181 220.452 55.2181 221.148C55.2181 221.708 54.9941 222.164 54.4261 222.164C53.8101 222.164 53.6501 221.612 53.6501 221.116H52.7861Z" fill="black"/>
<path d="M93.8052 221.924H91.5092C91.9412 220.54 93.7812 220.42 93.7812 218.54C93.7812 217.716 93.3412 217.028 92.1812 217.028C90.9732 217.028 90.5092 217.724 90.5092 218.852H91.3732C91.3732 218.276 91.4852 217.668 92.1652 217.668C92.6692 217.668 92.8692 218.06 92.8692 218.524C92.8692 220.284 90.4932 220.228 90.4932 222.692H93.8052V221.924ZM95.209 219.916C95.209 218.268 95.369 217.668 95.993 217.668C96.617 217.668 96.777 218.268 96.777 219.916C96.777 221.564 96.617 222.164 95.993 222.164C95.369 222.164 95.209 221.564 95.209 219.916ZM94.297 219.916C94.297 222.116 94.905 222.804 95.993 222.804C97.081 222.804 97.689 222.116 97.689 219.916C97.689 217.716 97.081 217.028 95.993 217.028C94.905 217.028 94.297 217.716 94.297 219.916ZM100.485 222.692V217.028H99.8207V217.14C99.6607 217.86 99.0287 217.988 98.4847 217.988H98.3967V218.58H99.5727V222.692H100.485ZM101.928 221.42H103.952V222.692H104.816V221.42H105.432V220.692H104.816V217.028H103.888L101.928 220.636V221.42ZM103.952 220.692H102.664L103.936 218.356H103.952V220.692Z" fill="black"/>
<path d="M143.028 221.924H140.732C141.164 220.54 143.004 220.42 143.004 218.54C143.004 217.716 142.564 217.028 141.404 217.028C140.196 217.028 139.732 217.724 139.732 218.852H140.596C140.596 218.276 140.708 217.668 141.388 217.668C141.892 217.668 142.092 218.06 142.092 218.524C142.092 220.284 139.716 220.228 139.716 222.692H143.028V221.924ZM144.432 219.916C144.432 218.268 144.592 217.668 145.216 217.668C145.84 217.668 146 218.268 146 219.916C146 221.564 145.84 222.164 145.216 222.164C144.592 222.164 144.432 221.564 144.432 219.916ZM143.52 219.916C143.52 222.116 144.128 222.804 145.216 222.804C146.304 222.804 146.912 222.116 146.912 219.916C146.912 217.716 146.304 217.028 145.216 217.028C144.128 217.028 143.52 217.716 143.52 219.916ZM149.707 222.692V217.028H149.043V217.14C148.883 217.86 148.251 217.988 147.707 217.988H147.619V218.58H148.795V222.692H149.707ZM151.239 221.284C151.239 222.284 151.815 222.804 152.823 222.804C154.047 222.804 154.567 221.94 154.567 220.804C154.567 219.932 154.271 218.932 153.087 218.932C152.719 218.932 152.375 219.1 152.135 219.372L152.119 219.356L152.303 217.868H154.351V217.14H151.623L151.343 220.108L152.151 220.14C152.231 219.828 152.511 219.62 152.895 219.62C153.479 219.62 153.655 220.172 153.655 220.828C153.655 221.492 153.479 222.116 152.847 222.116C152.335 222.116 152.103 221.74 152.103 221.316V221.164H151.239V221.284Z" fill="black"/>
<path d="M192.251 221.924H189.955C190.387 220.54 192.227 220.42 192.227 218.54C192.227 217.716 191.787 217.028 190.627 217.028C189.419 217.028 188.955 217.724 188.955 218.852H189.819C189.819 218.276 189.931 217.668 190.611 217.668C191.115 217.668 191.315 218.06 191.315 218.524C191.315 220.284 188.939 220.228 188.939 222.692H192.251V221.924ZM193.655 219.916C193.655 218.268 193.815 217.668 194.439 217.668C195.063 217.668 195.223 218.268 195.223 219.916C195.223 221.564 195.063 222.164 194.439 222.164C193.815 222.164 193.655 221.564 193.655 219.916ZM192.743 219.916C192.743 222.116 193.351 222.804 194.439 222.804C195.527 222.804 196.135 222.116 196.135 219.916C196.135 217.716 195.527 217.028 194.439 217.028C193.351 217.028 192.743 217.716 192.743 219.916ZM198.93 222.692V217.028H198.266V217.14C198.106 217.86 197.474 217.988 196.93 217.988H196.842V218.58H198.018V222.692H198.93ZM203.742 218.404C203.742 217.476 203.206 217.028 202.214 217.028C200.718 217.028 200.406 218.396 200.406 220.092C200.406 221.716 200.678 222.804 202.11 222.804C203.31 222.804 203.846 222.028 203.846 220.724C203.846 219.596 203.222 219.036 202.446 219.036C201.95 219.036 201.566 219.228 201.342 219.636L201.318 219.62C201.318 218.796 201.366 217.668 202.222 217.668C202.678 217.668 202.83 218.076 202.83 218.404H203.742ZM201.398 220.988C201.398 220.308 201.518 219.724 202.182 219.724C202.702 219.724 202.934 220.164 202.934 220.948C202.934 221.612 202.742 222.164 202.182 222.164C201.646 222.164 201.398 221.644 201.398 220.988Z" fill="black"/>
<path d="M241.473 221.924H239.177C239.609 220.54 241.449 220.42 241.449 218.54C241.449 217.716 241.009 217.028 239.849 217.028C238.641 217.028 238.177 217.724 238.177 218.852H239.041C239.041 218.276 239.153 217.668 239.833 217.668C240.337 217.668 240.537 218.06 240.537 218.524C240.537 220.284 238.161 220.228 238.161 222.692H241.473V221.924ZM242.877 219.916C242.877 218.268 243.037 217.668 243.661 217.668C244.285 217.668 244.445 218.268 244.445 219.916C244.445 221.564 244.285 222.164 243.661 222.164C243.037 222.164 242.877 221.564 242.877 219.916ZM241.965 219.916C241.965 222.116 242.573 222.804 243.661 222.804C244.749 222.804 245.357 222.116 245.357 219.916C245.357 217.716 244.749 217.028 243.661 217.028C242.573 217.028 241.965 217.716 241.965 219.916ZM248.153 222.692V217.028H247.489V217.14C247.329 217.86 246.697 217.988 246.153 217.988H246.065V218.58H247.241V222.692H248.153ZM249.669 217.956H252.149C251.245 219.116 250.413 221.004 250.285 222.692H251.245C251.373 220.988 252.141 219.02 253.029 217.86V217.14H249.669V217.956Z" fill="black"/>
<path d="M290.696 221.924H288.4C288.832 220.54 290.672 220.42 290.672 218.54C290.672 217.716 290.232 217.028 289.072 217.028C287.864 217.028 287.4 217.724 287.4 218.852H288.264C288.264 218.276 288.376 217.668 289.056 217.668C289.56 217.668 289.76 218.06 289.76 218.524C289.76 220.284 287.384 220.228 287.384 222.692H290.696V221.924ZM292.1 219.916C292.1 218.268 292.26 217.668 292.884 217.668C293.508 217.668 293.668 218.268 293.668 219.916C293.668 221.564 293.508 222.164 292.884 222.164C292.26 222.164 292.1 221.564 292.1 219.916ZM291.188 219.916C291.188 222.116 291.796 222.804 292.884 222.804C293.972 222.804 294.58 222.116 294.58 219.916C294.58 217.716 293.972 217.028 292.884 217.028C291.796 217.028 291.188 217.716 291.188 219.916ZM297.376 222.692V217.028H296.712V217.14C296.552 217.86 295.92 217.988 295.376 217.988H295.288V218.58H296.464V222.692H297.376ZM299.86 218.516C299.86 218.068 300.004 217.668 300.572 217.668C301.14 217.668 301.284 218.068 301.284 218.516C301.284 218.972 301.14 219.38 300.572 219.38C300.004 219.38 299.86 218.972 299.86 218.516ZM299.772 221.092C299.772 220.492 299.932 220.02 300.572 220.02C301.212 220.02 301.372 220.492 301.372 221.092C301.372 221.684 301.212 222.164 300.572 222.164C299.932 222.164 299.772 221.684 299.772 221.092ZM300.572 222.804C301.732 222.804 302.284 222.22 302.284 221.108C302.284 220.268 301.876 219.804 301.316 219.692V219.676C301.804 219.508 302.1 219.132 302.1 218.452C302.1 217.572 301.516 217.028 300.572 217.028C299.628 217.028 299.044 217.572 299.044 218.452C299.044 219.132 299.34 219.508 299.828 219.676V219.692C299.268 219.804 298.86 220.268 298.86 221.108C298.86 222.22 299.412 222.804 300.572 222.804Z" fill="black"/>
<path d="M339.919 221.924H337.623C338.055 220.54 339.895 220.42 339.895 218.54C339.895 217.716 339.455 217.028 338.295 217.028C337.087 217.028 336.623 217.724 336.623 218.852H337.487C337.487 218.276 337.599 217.668 338.279 217.668C338.783 217.668 338.983 218.06 338.983 218.524C338.983 220.284 336.607 220.228 336.607 222.692H339.919V221.924ZM341.323 219.916C341.323 218.268 341.483 217.668 342.107 217.668C342.731 217.668 342.891 218.268 342.891 219.916C342.891 221.564 342.731 222.164 342.107 222.164C341.483 222.164 341.323 221.564 341.323 219.916ZM340.411 219.916C340.411 222.116 341.019 222.804 342.107 222.804C343.195 222.804 343.803 222.116 343.803 219.916C343.803 217.716 343.195 217.028 342.107 217.028C341.019 217.028 340.411 217.716 340.411 219.916ZM346.598 222.692V217.028H345.934V217.14C345.774 217.86 345.142 217.988 344.598 217.988H344.51V218.58H345.686V222.692H346.598ZM348.178 221.428C348.178 222.356 348.714 222.804 349.706 222.804C351.202 222.804 351.514 221.436 351.514 219.74C351.514 218.116 351.242 217.028 349.81 217.028C348.61 217.028 348.074 217.804 348.074 219.108C348.074 220.236 348.698 220.796 349.474 220.796C349.97 220.796 350.354 220.604 350.578 220.196L350.602 220.212C350.602 221.036 350.554 222.164 349.698 222.164C349.242 222.164 349.09 221.756 349.09 221.428H348.178ZM350.522 218.844C350.522 219.524 350.402 220.108 349.738 220.108C349.218 220.108 348.986 219.668 348.986 218.884C348.986 218.22 349.178 217.668 349.738 217.668C350.274 217.668 350.522 218.188 350.522 218.844Z" fill="black"/>
<path d="M389.142 221.924H386.846C387.278 220.54 389.118 220.42 389.118 218.54C389.118 217.716 388.678 217.028 387.518 217.028C386.31 217.028 385.846 217.724 385.846 218.852H386.71C386.71 218.276 386.822 217.668 387.502 217.668C388.006 217.668 388.206 218.06 388.206 218.524C388.206 220.284 385.83 220.228 385.83 222.692H389.142V221.924ZM390.545 219.916C390.545 218.268 390.705 217.668 391.329 217.668C391.953 217.668 392.113 218.268 392.113 219.916C392.113 221.564 391.953 222.164 391.329 222.164C390.705 222.164 390.545 221.564 390.545 219.916ZM389.633 219.916C389.633 222.116 390.241 222.804 391.329 222.804C392.417 222.804 393.025 222.116 393.025 219.916C393.025 217.716 392.417 217.028 391.329 217.028C390.241 217.028 389.633 217.716 389.633 219.916ZM396.829 221.924H394.533C394.965 220.54 396.805 220.42 396.805 218.54C396.805 217.716 396.365 217.028 395.205 217.028C393.997 217.028 393.533 217.724 393.533 218.852H394.397C394.397 218.276 394.509 217.668 395.189 217.668C395.693 217.668 395.893 218.06 395.893 218.524C395.893 220.284 393.517 220.228 393.517 222.692H396.829V221.924ZM398.233 219.916C398.233 218.268 398.393 217.668 399.017 217.668C399.641 217.668 399.801 218.268 399.801 219.916C399.801 221.564 399.641 222.164 399.017 222.164C398.393 222.164 398.233 221.564 398.233 219.916ZM397.321 219.916C397.321 222.116 397.929 222.804 399.017 222.804C400.105 222.804 400.713 222.116 400.713 219.916C400.713 217.716 400.105 217.028 399.017 217.028C397.929 217.028 397.321 217.716 397.321 219.916Z" fill="black"/>
<path d="M429.393 222.692H430.305V220.1H432.313V219.332H430.305V217.748H432.441V216.98H429.393V222.692ZM433.081 222.692H433.945V218.388H433.081V222.692ZM433.081 217.78H433.945V216.916H433.081V217.78ZM434.814 222.692H435.678V220.116C435.678 219.316 436.15 219.14 436.542 219.14C436.686 219.14 436.838 219.172 436.902 219.188V218.308C436.846 218.292 436.79 218.276 436.694 218.276C436.206 218.276 435.886 218.58 435.694 219.06H435.678V218.388H434.814V222.692ZM440.009 219.644V219.452C440.009 218.916 439.761 218.276 438.665 218.276C437.777 218.276 437.193 218.652 437.193 219.46C437.193 220.148 437.465 220.476 438.113 220.7L438.817 220.948C439.121 221.052 439.289 221.26 439.289 221.58C439.289 221.972 439.057 222.212 438.585 222.212C438.089 222.212 437.913 221.94 437.913 221.444V221.308H437.145V221.468C437.145 222.3 437.473 222.804 438.561 222.804C439.433 222.804 440.105 222.412 440.105 221.492C440.105 220.812 439.809 220.468 439.169 220.252L438.617 220.06C438.161 219.9 438.009 219.764 438.009 219.428C438.009 219.028 438.281 218.868 438.625 218.868C439.073 218.868 439.193 219.188 439.193 219.532V219.644H440.009ZM440.36 219.028H440.952V221.7C440.952 222.58 441.24 222.74 441.824 222.74C442.096 222.74 442.336 222.716 442.52 222.668V222.028C442.44 222.044 442.336 222.052 442.208 222.052C441.912 222.052 441.816 221.932 441.816 221.596V219.028H442.52V218.388H441.816V217.164H440.952V218.388H440.36V219.028ZM444.892 222.692H445.756V219.804C445.756 219.244 446.092 218.964 446.444 218.964C446.876 218.964 447.044 219.18 447.044 219.74V222.692H447.908V219.444C447.908 218.572 447.492 218.276 446.836 218.276C446.396 218.276 446.02 218.5 445.78 218.868L445.756 218.852V216.98H444.892V222.692ZM451.568 219.332C451.568 218.572 450.96 218.276 450.2 218.276C449.064 218.276 448.688 218.78 448.688 219.692H449.504C449.504 219.276 449.584 218.868 450.16 218.868C450.616 218.868 450.752 219.116 450.752 219.508C450.752 219.884 450.56 219.972 450.248 220.06L449.576 220.244C448.992 220.436 448.576 220.636 448.576 221.596C448.576 222.42 449.008 222.804 449.696 222.804C450.2 222.804 450.536 222.596 450.768 222.172H450.784C450.808 222.588 451.128 222.74 451.512 222.74C451.68 222.74 451.832 222.684 451.936 222.636V222.076C451.904 222.092 451.848 222.1 451.792 222.1C451.664 222.1 451.568 221.956 451.568 221.796V219.332ZM450.752 221.14C450.752 221.772 450.496 222.164 449.976 222.164C449.616 222.164 449.44 221.876 449.44 221.516C449.44 221.196 449.544 220.94 449.792 220.82C450.048 220.7 450.528 220.596 450.752 220.42V221.14ZM452.487 222.692H453.351V216.98H452.487V222.692ZM454.484 222.692H455.348V219.028H456.052V218.388H455.348V218.012C455.348 217.724 455.492 217.604 455.812 217.604H456.052V216.94C455.924 216.924 455.764 216.916 455.58 216.916C454.876 216.916 454.484 217.172 454.484 217.988V218.388H453.884V219.028H454.484V222.692ZM431.111 230.54C431.111 231.876 431.519 232.804 432.711 232.804C433.911 232.804 434.319 231.876 434.319 230.54C434.319 229.204 433.967 228.276 432.711 228.276C431.463 228.276 431.111 229.204 431.111 230.54ZM431.975 230.54C431.975 229.588 432.087 228.916 432.711 228.916C433.343 228.916 433.455 229.588 433.455 230.54C433.455 231.636 433.343 232.164 432.711 232.164C432.087 232.164 431.975 231.636 431.975 230.54ZM435.246 232.692H436.11V229.028H436.814V228.388H436.11V228.012C436.11 227.724 436.254 227.604 436.574 227.604H436.814V226.94C436.686 226.924 436.526 226.916 436.342 226.916C435.638 226.916 435.246 227.172 435.246 227.988V228.388H434.646V229.028H435.246V232.692ZM442.29 231.924H439.994C440.426 230.54 442.266 230.42 442.266 228.54C442.266 227.716 441.826 227.028 440.666 227.028C439.458 227.028 438.994 227.724 438.994 228.852H439.858C439.858 228.276 439.97 227.668 440.65 227.668C441.154 227.668 441.354 228.06 441.354 228.524C441.354 230.284 438.978 230.228 438.978 232.692H442.29V231.924ZM443.694 229.916C443.694 228.268 443.854 227.668 444.478 227.668C445.102 227.668 445.262 228.268 445.262 229.916C445.262 231.564 445.102 232.164 444.478 232.164C443.854 232.164 443.694 231.564 443.694 229.916ZM442.782 229.916C442.782 232.116 443.39 232.804 444.478 232.804C445.566 232.804 446.174 232.116 446.174 229.916C446.174 227.716 445.566 227.028 444.478 227.028C443.39 227.028 442.782 227.716 442.782 229.916ZM449.978 231.924H447.682C448.114 230.54 449.954 230.42 449.954 228.54C449.954 227.716 449.514 227.028 448.354 227.028C447.146 227.028 446.682 227.724 446.682 228.852H447.546C447.546 228.276 447.658 227.668 448.338 227.668C448.842 227.668 449.042 228.06 449.042 228.524C449.042 230.284 446.666 230.228 446.666 232.692H449.978V231.924ZM452.814 232.692V227.028H452.15V227.14C451.99 227.86 451.358 227.988 450.814 227.988H450.726V228.58H451.902V232.692H452.814Z" fill="black"/>
<path d="M0.46 251.289H4.36V250.329H1.6V244.149H0.46V251.289ZM8.70336 248.739V248.169C8.70336 246.669 8.30336 245.769 6.80336 245.769C5.11336 245.769 4.81336 247.269 4.81336 248.679C4.81336 251.169 5.90336 251.429 6.78336 251.429C7.95336 251.429 8.67336 250.679 8.67336 249.489H7.65336C7.65336 249.809 7.56336 250.689 6.79336 250.689C5.98336 250.689 5.89336 249.769 5.89336 249.049V248.739H8.70336ZM5.89336 247.999V247.889C5.89336 247.189 6.10336 246.509 6.79336 246.509C7.40336 246.509 7.62336 247.029 7.62336 247.709V247.999H5.89336ZM9.92227 251.289H11.0023V246.709H11.8823V245.909H11.0023V245.439C11.0023 245.079 11.1823 244.929 11.5823 244.929H11.8823V244.099C11.7223 244.079 11.5223 244.069 11.2923 244.069C10.4123 244.069 9.92227 244.389 9.92227 245.409V245.909H9.17227V246.709H9.92227V251.289ZM11.8955 246.709H12.6355V250.049C12.6355 251.149 12.9955 251.349 13.7255 251.349C14.0655 251.349 14.3655 251.319 14.5955 251.259V250.459C14.4955 250.479 14.3655 250.489 14.2055 250.489C13.8355 250.489 13.7155 250.339 13.7155 249.919V246.709H14.5955V245.909H13.7155V244.379H12.6355V245.909H11.8955V246.709ZM20.171 249.329C20.171 250.139 19.951 250.639 19.351 250.629C18.571 250.629 18.431 249.789 18.431 248.599C18.431 247.409 18.571 246.569 19.351 246.569C19.981 246.549 20.121 247.199 20.121 247.699H21.201C21.201 247.029 20.961 245.749 19.351 245.769C17.791 245.769 17.351 246.929 17.351 248.599C17.351 250.269 17.791 251.429 19.351 251.429C20.681 251.429 21.121 250.619 21.191 249.329H20.171ZM21.7944 248.599C21.7944 250.269 22.3044 251.429 23.7944 251.429C25.2944 251.429 25.8044 250.269 25.8044 248.599C25.8044 246.929 25.3644 245.769 23.7944 245.769C22.2344 245.769 21.7944 246.929 21.7944 248.599ZM22.8744 248.599C22.8744 247.409 23.0144 246.569 23.7944 246.569C24.5844 246.569 24.7244 247.409 24.7244 248.599C24.7244 249.969 24.5844 250.629 23.7944 250.629C23.0144 250.629 22.8744 249.969 22.8744 248.599ZM26.6833 251.289H27.7633V244.149H26.6833V251.289ZM31.6001 251.289H32.6201V245.909H31.5401V249.669C31.5401 250.269 31.1201 250.569 30.6601 250.569C30.2001 250.569 29.9301 250.369 29.9301 249.769V245.909H28.8501V249.669C28.8501 251.059 29.3901 251.429 30.1901 251.429C30.7901 251.429 31.3001 251.139 31.5701 250.659H31.6001V251.289ZM33.7145 251.289H34.7945V247.679C34.7945 246.979 35.2145 246.629 35.6445 246.629C36.0945 246.629 36.3045 246.899 36.3045 247.599V251.289H37.3845V247.679C37.3845 246.979 37.8045 246.629 38.2445 246.629C38.6845 246.629 38.8945 246.899 38.8945 247.599V251.289H39.9745V247.199C39.9745 246.159 39.4245 245.769 38.6645 245.769C38.0145 245.769 37.6145 246.069 37.3045 246.589C37.1445 246.139 36.8245 245.769 36.0545 245.769C35.5445 245.769 35.0345 246.059 34.7645 246.539H34.7345V245.909H33.7145V251.289ZM41.0669 251.289H42.1469V247.679C42.1469 246.979 42.5669 246.629 43.0069 246.629C43.5469 246.629 43.7569 246.899 43.7569 247.599V251.289H44.8369V247.229C44.8369 246.139 44.3169 245.769 43.4969 245.769C42.8969 245.769 42.3869 246.059 42.1169 246.539H42.0869V245.909H41.0669V251.289ZM45.9913 247.489H47.1313V246.169H45.9913V247.489ZM45.9913 251.289H47.1313V249.969H45.9913V251.289ZM50.3849 251.289H51.5249V248.189H52.4549C53.2349 248.189 53.4749 248.529 53.4949 249.309C53.5149 249.829 53.5049 250.229 53.5449 250.659C53.5749 250.939 53.6249 251.159 53.7349 251.289H55.0249C54.8749 251.189 54.7049 251.019 54.6849 250.669C54.6649 250.239 54.6549 249.679 54.6449 249.219C54.6049 248.219 54.2349 247.829 53.5249 247.759V247.739C54.3049 247.619 54.7149 246.909 54.7149 245.989C54.7149 244.649 53.9049 244.149 52.9049 244.149H50.3849V251.289ZM51.5249 247.329V245.009H52.4949C53.2449 245.009 53.5749 245.409 53.5749 246.169C53.5749 246.889 53.1649 247.329 52.4349 247.329H51.5249ZM59.426 248.739V248.169C59.426 246.669 59.026 245.769 57.526 245.769C55.836 245.769 55.536 247.269 55.536 248.679C55.536 251.169 56.626 251.429 57.506 251.429C58.676 251.429 59.396 250.679 59.396 249.489H58.376C58.376 249.809 58.286 250.689 57.516 250.689C56.706 250.689 56.616 249.769 56.616 249.049V248.739H59.426ZM56.616 247.999V247.889C56.616 247.189 56.826 246.509 57.516 246.509C58.126 246.509 58.346 247.029 58.346 247.709V247.999H56.616ZM62.9249 249.329C62.9249 250.139 62.7049 250.639 62.1049 250.629C61.3249 250.629 61.1849 249.789 61.1849 248.599C61.1849 247.409 61.3249 246.569 62.1049 246.569C62.7349 246.549 62.8749 247.199 62.8749 247.699H63.9549C63.9549 247.029 63.7149 245.749 62.1049 245.769C60.5449 245.769 60.1049 246.929 60.1049 248.599C60.1049 250.269 60.5449 251.429 62.1049 251.429C63.4349 251.429 63.8749 250.619 63.9449 249.329H62.9249ZM68.4983 248.739V248.169C68.4983 246.669 68.0983 245.769 66.5983 245.769C64.9083 245.769 64.6083 247.269 64.6083 248.679C64.6083 251.169 65.6983 251.429 66.5783 251.429C67.7483 251.429 68.4683 250.679 68.4683 249.489H67.4483C67.4483 249.809 67.3583 250.689 66.5883 250.689C65.7783 250.689 65.6883 249.769 65.6883 249.049V248.739H68.4983ZM65.6883 247.999V247.889C65.6883 247.189 65.8983 246.509 66.5883 246.509C67.1983 246.509 67.4183 247.029 67.4183 247.709V247.999H65.6883ZM69.4372 251.289H70.5172V245.909H69.4372V251.289ZM69.4372 245.149H70.5172V244.069H69.4372V245.149ZM72.594 251.289H73.854L75.274 245.909H74.124L73.274 250.149H73.254L72.314 245.909H71.154L72.594 251.289ZM79.6018 248.739V248.169C79.6018 246.669 79.2018 245.769 77.7018 245.769C76.0118 245.769 75.7118 247.269 75.7118 248.679C75.7118 251.169 76.8018 251.429 77.6818 251.429C78.8518 251.429 79.5718 250.679 79.5718 249.489H78.5518C78.5518 249.809 78.4618 250.689 77.6918 250.689C76.8818 250.689 76.7918 249.769 76.7918 249.049V248.739H79.6018ZM76.7918 247.999V247.889C76.7918 247.189 77.0018 246.509 77.6918 246.509C78.3018 246.509 78.5218 247.029 78.5218 247.709V247.999H76.7918ZM83.2407 251.289H84.2607V244.149H83.1807V246.539H83.1607C82.9607 246.059 82.5207 245.769 81.9407 245.769C81.1207 245.769 80.2807 246.139 80.2807 248.529C80.2807 250.379 80.7807 251.429 82.0407 251.429C82.8107 251.429 83.0807 250.979 83.2207 250.629H83.2407V251.289ZM83.2407 248.659C83.2407 249.809 83.0707 250.569 82.3307 250.569C81.5807 250.569 81.4207 249.799 81.4207 248.579C81.4207 247.129 81.6407 246.629 82.2607 246.629C83.0907 246.629 83.2407 247.369 83.2407 248.659ZM87.7775 251.289H88.9175V248.189H89.8475C90.6275 248.189 90.8675 248.529 90.8875 249.309C90.9075 249.829 90.8975 250.229 90.9375 250.659C90.9675 250.939 91.0175 251.159 91.1275 251.289H92.4175C92.2675 251.189 92.0975 251.019 92.0775 250.669C92.0575 250.239 92.0475 249.679 92.0375 249.219C91.9975 248.219 91.6275 247.829 90.9175 247.759V247.739C91.6975 247.619 92.1075 246.909 92.1075 245.989C92.1075 244.649 91.2975 244.149 90.2975 244.149H87.7775V251.289ZM88.9175 247.329V245.009H89.8875C90.6375 245.009 90.9675 245.409 90.9675 246.169C90.9675 246.889 90.5575 247.329 89.8275 247.329H88.9175ZM96.8186 248.739V248.169C96.8186 246.669 96.4186 245.769 94.9186 245.769C93.2286 245.769 92.9286 247.269 92.9286 248.679C92.9286 251.169 94.0186 251.429 94.8986 251.429C96.0686 251.429 96.7886 250.679 96.7886 249.489H95.7686C95.7686 249.809 95.6786 250.689 94.9086 250.689C94.0986 250.689 94.0086 249.769 94.0086 249.049V248.739H96.8186ZM94.0086 247.999V247.889C94.0086 247.189 94.2186 246.509 94.9086 246.509C95.5186 246.509 95.7386 247.029 95.7386 247.709V247.999H94.0086ZM100.398 253.049H101.478V245.909H100.458V246.569H100.438C100.298 246.219 100.028 245.769 99.2575 245.769C97.9975 245.769 97.4975 246.819 97.4975 248.669C97.4975 250.849 98.3075 251.429 99.1475 251.429C99.7375 251.429 100.178 251.139 100.378 250.659H100.398V253.049ZM100.458 248.539C100.458 249.829 100.308 250.569 99.4775 250.569C98.9275 250.569 98.6375 250.069 98.6375 248.619C98.6375 247.399 98.7975 246.629 99.5475 246.629C100.288 246.629 100.458 247.389 100.458 248.539ZM105.272 251.289H106.292V245.909H105.212V249.669C105.212 250.269 104.792 250.569 104.332 250.569C103.872 250.569 103.602 250.369 103.602 249.769V245.909H102.522V249.669C102.522 251.059 103.062 251.429 103.862 251.429C104.462 251.429 104.972 251.139 105.242 250.659H105.272V251.289ZM111.076 248.739V248.169C111.076 246.669 110.676 245.769 109.176 245.769C107.486 245.769 107.186 247.269 107.186 248.679C107.186 251.169 108.276 251.429 109.156 251.429C110.326 251.429 111.046 250.679 111.046 249.489H110.026C110.026 249.809 109.936 250.689 109.166 250.689C108.356 250.689 108.266 249.769 108.266 249.049V248.739H111.076ZM108.266 247.999V247.889C108.266 247.189 108.476 246.509 109.166 246.509C109.776 246.509 109.996 247.029 109.996 247.709V247.999H108.266ZM115.305 247.479V247.239C115.305 246.569 114.995 245.769 113.625 245.769C112.515 245.769 111.785 246.239 111.785 247.249C111.785 248.109 112.125 248.519 112.935 248.799L113.815 249.109C114.195 249.239 114.405 249.499 114.405 249.899C114.405 250.389 114.115 250.689 113.525 250.689C112.905 250.689 112.685 250.349 112.685 249.729V249.559H111.725V249.759C111.725 250.799 112.135 251.429 113.495 251.429C114.585 251.429 115.425 250.939 115.425 249.789C115.425 248.939 115.055 248.509 114.255 248.239L113.565 247.999C112.995 247.799 112.805 247.629 112.805 247.209C112.805 246.709 113.145 246.509 113.575 246.509C114.135 246.509 114.285 246.909 114.285 247.339V247.479H115.305ZM115.743 246.709H116.483V250.049C116.483 251.149 116.843 251.349 117.573 251.349C117.913 251.349 118.213 251.319 118.443 251.259V250.459C118.343 250.479 118.213 250.489 118.053 250.489C117.683 250.489 117.563 250.339 117.563 249.919V246.709H118.443V245.909H117.563V244.379H116.483V245.909H115.743V246.709ZM122.346 247.479V247.239C122.346 246.569 122.036 245.769 120.666 245.769C119.556 245.769 118.826 246.239 118.826 247.249C118.826 248.109 119.166 248.519 119.976 248.799L120.856 249.109C121.236 249.239 121.446 249.499 121.446 249.899C121.446 250.389 121.156 250.689 120.566 250.689C119.946 250.689 119.726 250.349 119.726 249.729V249.559H118.766V249.759C118.766 250.799 119.176 251.429 120.536 251.429C121.626 251.429 122.466 250.939 122.466 249.789C122.466 248.939 122.096 248.509 121.296 248.239L120.606 247.999C120.036 247.799 119.846 247.629 119.846 247.209C119.846 246.709 120.186 246.509 120.616 246.509C121.176 246.509 121.326 246.909 121.326 247.339V247.479H122.346Z" fill="black"/>
<path d="M0.59 297.333H1.73V294.233H2.66C3.44 294.233 3.68 294.573 3.7 295.353C3.72 295.873 3.71 296.273 3.75 296.703C3.78 296.983 3.83 297.203 3.94 297.333H5.23C5.08 297.233 4.91 297.063 4.89 296.713C4.87 296.283 4.86 295.723 4.85 295.263C4.81 294.263 4.44 293.873 3.73 293.803V293.783C4.51 293.663 4.92 292.953 4.92 292.033C4.92 290.693 4.11 290.193 3.11 290.193H0.59V297.333ZM1.73 293.373V291.053H2.7C3.45 291.053 3.78 291.453 3.78 292.213C3.78 292.933 3.37 293.373 2.64 293.373H1.73ZM5.94109 297.333H7.02109V291.953H5.94109V297.333ZM5.94109 291.193H7.02109V290.113H5.94109V291.193ZM8.16789 297.793C8.16789 298.233 8.34789 299.173 9.94789 299.173C11.3979 299.173 11.9579 298.383 11.9579 297.073V291.953H10.9379V292.613H10.9179C10.8179 292.223 10.3679 291.813 9.73789 291.813C8.20789 291.813 8.02789 293.403 8.02789 294.583C8.02789 296.053 8.37789 297.293 9.63789 297.293C10.1579 297.293 10.6579 297.023 10.8579 296.553H10.8779V297.423C10.8779 298.043 10.5279 298.433 9.96789 298.433C9.48789 298.433 9.18789 298.123 9.18789 297.793H8.16789ZM9.10789 294.473C9.10789 293.473 9.23789 292.673 10.0179 292.673C10.7679 292.673 10.8779 293.643 10.8779 294.523C10.8779 295.373 10.7879 296.433 9.94789 296.433C9.14789 296.433 9.10789 295.393 9.10789 294.473ZM12.9223 297.333H14.0023V293.723C14.0023 293.023 14.4223 292.673 14.8623 292.673C15.4023 292.673 15.6123 292.943 15.6123 293.643V297.333H16.6923V293.273C16.6923 292.183 16.1723 291.813 15.3523 291.813C14.8023 291.813 14.3323 292.093 14.0323 292.553L14.0023 292.533V290.193H12.9223V297.333ZM17.2568 292.753H17.9968V296.093C17.9968 297.193 18.3568 297.393 19.0868 297.393C19.4268 297.393 19.7268 297.363 19.9568 297.303V296.503C19.8568 296.523 19.7268 296.533 19.5668 296.533C19.1968 296.533 19.0768 296.383 19.0768 295.963V292.753H19.9568V291.953H19.0768V290.423H17.9968V291.953H17.2568V292.753ZM25.5323 295.373C25.5323 296.183 25.3123 296.683 24.7123 296.673C23.9323 296.673 23.7923 295.833 23.7923 294.643C23.7923 293.453 23.9323 292.613 24.7123 292.613C25.3423 292.593 25.4823 293.243 25.4823 293.743H26.5623C26.5623 293.073 26.3223 291.793 24.7123 291.813C23.1523 291.813 22.7123 292.973 22.7123 294.643C22.7123 296.313 23.1523 297.473 24.7123 297.473C26.0423 297.473 26.4823 296.663 26.5523 295.373H25.5323ZM27.1557 294.643C27.1557 296.313 27.6657 297.473 29.1557 297.473C30.6557 297.473 31.1657 296.313 31.1657 294.643C31.1657 292.973 30.7257 291.813 29.1557 291.813C27.5957 291.813 27.1557 292.973 27.1557 294.643ZM28.2357 294.643C28.2357 293.453 28.3757 292.613 29.1557 292.613C29.9457 292.613 30.0857 293.453 30.0857 294.643C30.0857 296.013 29.9457 296.673 29.1557 296.673C28.3757 296.673 28.2357 296.013 28.2357 294.643ZM32.0446 297.333H33.1246V290.193H32.0446V297.333ZM36.9614 297.333H37.9814V291.953H36.9014V295.713C36.9014 296.313 36.4814 296.613 36.0214 296.613C35.5614 296.613 35.2914 296.413 35.2914 295.813V291.953H34.2114V295.713C34.2114 297.103 34.7514 297.473 35.5514 297.473C36.1514 297.473 36.6614 297.183 36.9314 296.703H36.9614V297.333ZM39.0759 297.333H40.1559V293.723C40.1559 293.023 40.5759 292.673 41.0059 292.673C41.4559 292.673 41.6659 292.943 41.6659 293.643V297.333H42.7459V293.723C42.7459 293.023 43.1659 292.673 43.6059 292.673C44.0459 292.673 44.2559 292.943 44.2559 293.643V297.333H45.3359V293.243C45.3359 292.203 44.7859 291.813 44.0259 291.813C43.3759 291.813 42.9759 292.113 42.6659 292.633C42.5059 292.183 42.1859 291.813 41.4159 291.813C40.9059 291.813 40.3959 292.103 40.1259 292.583H40.0959V291.953H39.0759V297.333ZM46.4282 297.333H47.5082V293.723C47.5082 293.023 47.9282 292.673 48.3682 292.673C48.9082 292.673 49.1182 292.943 49.1182 293.643V297.333H50.1982V293.273C50.1982 292.183 49.6782 291.813 48.8582 291.813C48.2582 291.813 47.7482 292.103 47.4782 292.583H47.4482V291.953H46.4282V297.333ZM51.3527 293.533H52.4927V292.213H51.3527V293.533ZM51.3527 297.333H52.4927V296.013H51.3527V297.333ZM58.9963 294.773V294.893C58.9963 295.553 58.8863 296.613 57.9363 296.613C57.0963 296.613 56.7163 296.033 56.7163 293.733C56.7163 291.433 57.0963 290.913 57.9363 290.913C58.7563 290.883 58.9563 291.643 58.9563 292.303V292.423H60.0963V292.293C60.0963 291.553 59.9763 290.053 57.9463 290.053C56.1363 290.053 55.5763 291.213 55.5763 293.763C55.5763 296.313 56.1363 297.473 57.9363 297.473C59.6163 297.473 60.1363 296.213 60.1363 294.923V294.773H58.9963ZM60.6518 294.643C60.6518 296.313 61.1618 297.473 62.6518 297.473C64.1518 297.473 64.6618 296.313 64.6618 294.643C64.6618 292.973 64.2218 291.813 62.6518 291.813C61.0918 291.813 60.6518 292.973 60.6518 294.643ZM61.7318 294.643C61.7318 293.453 61.8718 292.613 62.6518 292.613C63.4418 292.613 63.5818 293.453 63.5818 294.643C63.5818 296.013 63.4418 296.673 62.6518 296.673C61.8718 296.673 61.7318 296.013 61.7318 294.643ZM65.5407 297.333H66.6207V293.723C66.6207 293.023 67.0407 292.673 67.4707 292.673C67.9207 292.673 68.1307 292.943 68.1307 293.643V297.333H69.2107V293.723C69.2107 293.023 69.6307 292.673 70.0707 292.673C70.5107 292.673 70.7207 292.943 70.7207 293.643V297.333H71.8007V293.243C71.8007 292.203 71.2507 291.813 70.4907 291.813C69.8407 291.813 69.4407 292.113 69.1307 292.633C68.9707 292.183 68.6507 291.813 67.8807 291.813C67.3707 291.813 66.8607 292.103 66.5907 292.583H66.5607V291.953H65.5407V297.333ZM72.893 299.093H73.973V296.703H73.993C74.193 297.183 74.633 297.473 75.213 297.473C75.953 297.473 76.873 296.973 76.873 294.713C76.873 292.863 76.373 291.813 75.143 291.813C74.553 291.813 74.153 292.133 73.933 292.613H73.913V291.953H72.893V299.093ZM73.913 294.583C73.913 293.433 74.083 292.673 74.823 292.673C75.573 292.673 75.733 293.443 75.733 294.663C75.733 296.153 75.453 296.613 74.833 296.613C74.073 296.613 73.913 295.873 73.913 294.583ZM77.7575 297.333H78.8375V291.953H77.7575V297.333ZM77.7575 291.193H78.8375V290.113H77.7575V291.193ZM79.9743 297.333H81.0543V290.193H79.9743V297.333ZM85.8811 294.783V294.213C85.8811 292.713 85.4811 291.813 83.9811 291.813C82.2911 291.813 81.9911 293.313 81.9911 294.723C81.9911 297.213 83.0811 297.473 83.9611 297.473C85.1311 297.473 85.8511 296.723 85.8511 295.533H84.8311C84.8311 295.853 84.7411 296.733 83.9711 296.733C83.1611 296.733 83.0711 295.813 83.0711 295.093V294.783H85.8811ZM83.0711 294.043V293.933C83.0711 293.233 83.2811 292.553 83.9711 292.553C84.5811 292.553 84.8011 293.073 84.8011 293.753V294.043H83.0711ZM89.52 297.333H90.54V290.193H89.46V292.583H89.44C89.24 292.103 88.8 291.813 88.22 291.813C87.4 291.813 86.56 292.183 86.56 294.573C86.56 296.423 87.06 297.473 88.32 297.473C89.09 297.473 89.36 297.023 89.5 296.673H89.52V297.333ZM89.52 294.703C89.52 295.853 89.35 296.613 88.61 296.613C87.86 296.613 87.7 295.843 87.7 294.623C87.7 293.173 87.92 292.673 88.54 292.673C89.37 292.673 89.52 293.413 89.52 294.703ZM94.0568 297.333H95.1968V294.233H96.1268C96.9068 294.233 97.1468 294.573 97.1668 295.353C97.1868 295.873 97.1768 296.273 97.2168 296.703C97.2468 296.983 97.2968 297.203 97.4068 297.333H98.6968C98.5468 297.233 98.3768 297.063 98.3568 296.713C98.3368 296.283 98.3268 295.723 98.3168 295.263C98.2768 294.263 97.9068 293.873 97.1968 293.803V293.783C97.9768 293.663 98.3868 292.953 98.3868 292.033C98.3868 290.693 97.5768 290.193 96.5768 290.193H94.0568V297.333ZM95.1968 293.373V291.053H96.1668C96.9168 291.053 97.2468 291.453 97.2468 292.213C97.2468 292.933 96.8368 293.373 96.1068 293.373H95.1968ZM103.098 294.783V294.213C103.098 292.713 102.698 291.813 101.198 291.813C99.5079 291.813 99.2079 293.313 99.2079 294.723C99.2079 297.213 100.298 297.473 101.178 297.473C102.348 297.473 103.068 296.723 103.068 295.533H102.048C102.048 295.853 101.958 296.733 101.188 296.733C100.378 296.733 100.288 295.813 100.288 295.093V294.783H103.098ZM100.288 294.043V293.933C100.288 293.233 100.498 292.553 101.188 292.553C101.798 292.553 102.018 293.073 102.018 293.753V294.043H100.288ZM106.677 299.093H107.757V291.953H106.737V292.613H106.717C106.577 292.263 106.307 291.813 105.537 291.813C104.277 291.813 103.777 292.863 103.777 294.713C103.777 296.893 104.587 297.473 105.427 297.473C106.017 297.473 106.457 297.183 106.657 296.703H106.677V299.093ZM106.737 294.583C106.737 295.873 106.587 296.613 105.757 296.613C105.207 296.613 104.917 296.113 104.917 294.663C104.917 293.443 105.077 292.673 105.827 292.673C106.567 292.673 106.737 293.433 106.737 294.583ZM111.551 297.333H112.571V291.953H111.491V295.713C111.491 296.313 111.071 296.613 110.611 296.613C110.151 296.613 109.881 296.413 109.881 295.813V291.953H108.801V295.713C108.801 297.103 109.341 297.473 110.141 297.473C110.741 297.473 111.251 297.183 111.521 296.703H111.551V297.333ZM117.356 294.783V294.213C117.356 292.713 116.956 291.813 115.456 291.813C113.766 291.813 113.466 293.313 113.466 294.723C113.466 297.213 114.556 297.473 115.436 297.473C116.606 297.473 117.326 296.723 117.326 295.533H116.306C116.306 295.853 116.216 296.733 115.446 296.733C114.636 296.733 114.546 295.813 114.546 295.093V294.783H117.356ZM114.546 294.043V293.933C114.546 293.233 114.756 292.553 115.446 292.553C116.056 292.553 116.276 293.073 116.276 293.753V294.043H114.546ZM121.585 293.523V293.283C121.585 292.613 121.275 291.813 119.905 291.813C118.795 291.813 118.065 292.283 118.065 293.293C118.065 294.153 118.405 294.563 119.215 294.843L120.095 295.153C120.475 295.283 120.685 295.543 120.685 295.943C120.685 296.433 120.395 296.733 119.805 296.733C119.185 296.733 118.965 296.393 118.965 295.773V295.603H118.005V295.803C118.005 296.843 118.415 297.473 119.775 297.473C120.865 297.473 121.705 296.983 121.705 295.833C121.705 294.983 121.335 294.553 120.535 294.283L119.845 294.043C119.275 293.843 119.085 293.673 119.085 293.253C119.085 292.753 119.425 292.553 119.855 292.553C120.415 292.553 120.565 292.953 120.565 293.383V293.523H121.585ZM122.022 292.753H122.762V296.093C122.762 297.193 123.122 297.393 123.852 297.393C124.192 297.393 124.492 297.363 124.722 297.303V296.503C124.622 296.523 124.492 296.533 124.332 296.533C123.962 296.533 123.842 296.383 123.842 295.963V292.753H124.722V291.953H123.842V290.423H122.762V291.953H122.022V292.753ZM128.626 293.523V293.283C128.626 292.613 128.316 291.813 126.946 291.813C125.836 291.813 125.106 292.283 125.106 293.293C125.106 294.153 125.446 294.563 126.256 294.843L127.136 295.153C127.516 295.283 127.726 295.543 127.726 295.943C127.726 296.433 127.436 296.733 126.846 296.733C126.226 296.733 126.006 296.393 126.006 295.773V295.603H125.046V295.803C125.046 296.843 125.456 297.473 126.816 297.473C127.906 297.473 128.746 296.983 128.746 295.833C128.746 294.983 128.376 294.553 127.576 294.283L126.886 294.043C126.316 293.843 126.126 293.673 126.126 293.253C126.126 292.753 126.466 292.553 126.896 292.553C127.456 292.553 127.606 292.953 127.606 293.383V293.523H128.626Z" fill="black"/>
<rect x="71.1094" y="307.83" width="8.1272" height="8.1272" fill="#FFDA79"/>
<path d="M86.2602 315.317H87.1402V311.977H89.7902V311.197H87.1402V308.957H89.9502V308.177H86.2602V315.317ZM90.5478 315.317H91.3878V309.957H90.5478V315.317ZM90.5478 309.137H91.3878V308.177H90.5478V309.137ZM92.5388 315.317H93.3788V311.617C93.3788 310.837 93.9888 310.537 94.4388 310.537C95.1988 310.537 95.2288 311.207 95.2288 311.617V315.317H96.0688V311.517C96.0688 310.887 96.0688 309.817 94.6588 309.817C94.1388 309.817 93.5788 310.097 93.3588 310.587H93.3388V309.957H92.5388V315.317ZM97.8777 311.577V311.527C97.8777 311.337 97.8777 310.477 98.7977 310.477C99.3577 310.477 99.6577 310.767 99.6577 311.267C99.6577 311.717 99.6577 311.887 99.0477 312.077L97.9177 312.417C97.2277 312.627 96.9077 313.147 96.9077 313.897C96.9077 314.857 97.3677 315.457 98.3677 315.457C98.8677 315.457 99.3877 315.167 99.6577 314.687H99.6777C99.7177 315.377 100.118 315.377 100.438 315.377C100.648 315.377 100.868 315.337 100.928 315.327V314.727C100.888 314.757 100.838 314.777 100.728 314.777C100.468 314.777 100.468 314.567 100.468 314.347V311.357C100.468 310.797 100.468 309.817 98.8377 309.817C97.5577 309.817 97.0377 310.357 97.0377 311.577H97.8777ZM99.6277 313.777C99.6277 314.327 99.0977 314.797 98.5477 314.797C97.9777 314.797 97.7877 314.417 97.7877 313.877C97.7877 313.407 97.9277 313.197 98.1977 313.027C98.5777 312.797 99.3177 312.727 99.6277 312.397V313.777ZM101.611 315.317H102.451V311.617C102.451 310.837 103.061 310.537 103.511 310.537C104.271 310.537 104.301 311.207 104.301 311.617V315.317H105.141V311.517C105.141 310.887 105.141 309.817 103.731 309.817C103.211 309.817 102.651 310.097 102.431 310.587H102.411V309.957H101.611V315.317ZM109.63 311.587C109.63 310.967 109.38 309.817 107.92 309.817C106.27 309.817 106.01 311.367 106.01 312.707C106.01 314.547 106.56 315.457 107.87 315.457C109.21 315.457 109.63 314.307 109.63 313.457H108.79C108.79 314.037 108.63 314.797 107.91 314.797C106.9 314.797 106.89 313.397 106.89 312.697C106.89 310.737 107.42 310.477 107.94 310.477C108.58 310.477 108.79 311.067 108.79 311.587H109.63ZM110.548 315.317H111.388V309.957H110.548V315.317ZM110.548 309.137H111.388V308.177H110.548V309.137ZM113.249 311.577V311.527C113.249 311.337 113.249 310.477 114.169 310.477C114.729 310.477 115.029 310.767 115.029 311.267C115.029 311.717 115.029 311.887 114.419 312.077L113.289 312.417C112.599 312.627 112.279 313.147 112.279 313.897C112.279 314.857 112.739 315.457 113.739 315.457C114.239 315.457 114.759 315.167 115.029 314.687H115.049C115.089 315.377 115.489 315.377 115.809 315.377C116.019 315.377 116.239 315.337 116.299 315.327V314.727C116.259 314.757 116.209 314.777 116.099 314.777C115.839 314.777 115.839 314.567 115.839 314.347V311.357C115.839 310.797 115.839 309.817 114.209 309.817C112.929 309.817 112.409 310.357 112.409 311.577H113.249ZM114.999 313.777C114.999 314.327 114.469 314.797 113.919 314.797C113.349 314.797 113.159 314.417 113.159 313.877C113.159 313.407 113.299 313.197 113.569 313.027C113.949 312.797 114.689 312.727 114.999 312.397V313.777ZM117.032 315.317H117.872V308.177H117.032V315.317ZM121.455 315.317H122.335V308.177H121.455V315.317ZM124.147 312.637C124.147 311.357 124.347 310.537 125.127 310.537C126.027 310.537 126.207 311.597 126.207 312.637C126.207 313.857 126.057 314.737 125.127 314.737C124.347 314.737 124.147 313.917 124.147 312.637ZM126.997 308.177H126.157V310.567H126.137C125.947 310.107 125.437 309.817 124.957 309.817C123.447 309.817 123.267 311.517 123.267 312.637C123.267 314.327 123.747 315.457 125.017 315.457C125.597 315.457 126.067 315.057 126.177 314.657H126.197V315.317H126.997V308.177ZM128.825 312.077V311.877C128.825 311.557 128.925 310.477 129.805 310.477C130.545 310.477 130.735 311.187 130.735 311.787V312.077H128.825ZM131.615 312.737V312.397C131.615 311.247 131.465 309.817 129.825 309.817C128.175 309.817 127.915 311.367 127.915 312.707C127.915 314.547 128.465 315.457 129.775 315.457C131.235 315.457 131.575 314.127 131.575 313.557H130.735C130.735 313.957 130.625 314.797 129.825 314.797C128.795 314.797 128.795 313.557 128.795 312.737H131.615ZM132.539 315.317H133.379V311.617C133.379 310.837 133.989 310.537 134.439 310.537C135.199 310.537 135.229 311.207 135.229 311.617V315.317H136.069V311.517C136.069 310.887 136.069 309.817 134.659 309.817C134.139 309.817 133.579 310.097 133.359 310.587H133.339V309.957H132.539V315.317ZM137.418 309.957H136.638V310.617H137.418V314.317C137.418 315.017 137.628 315.377 138.498 315.377C138.848 315.377 139.068 315.337 139.178 315.317V314.627C139.088 314.637 138.988 314.657 138.808 314.657C138.368 314.657 138.258 314.487 138.258 314.057V310.617H139.188V309.957H138.258V308.397H137.418V309.957ZM139.806 315.317H140.646V309.957H139.806V315.317ZM139.806 309.137H140.646V308.177H139.806V309.137ZM142.047 315.317H142.887V310.617H143.807V309.957H142.887V309.327C142.887 308.957 143.067 308.817 143.427 308.817H143.817V308.097H143.207C142.397 308.097 142.047 308.517 142.047 309.327V309.957H141.267V310.617H142.047V315.317ZM144.437 315.317H145.277V309.957H144.437V315.317ZM144.437 309.137H145.277V308.177H144.437V309.137ZM147.155 312.077V311.877C147.155 311.557 147.255 310.477 148.135 310.477C148.875 310.477 149.065 311.187 149.065 311.787V312.077H147.155ZM149.945 312.737V312.397C149.945 311.247 149.795 309.817 148.155 309.817C146.505 309.817 146.245 311.367 146.245 312.707C146.245 314.547 146.795 315.457 148.105 315.457C149.565 315.457 149.905 314.127 149.905 313.557H149.065C149.065 313.957 148.955 314.797 148.155 314.797C147.125 314.797 147.125 313.557 147.125 312.737H149.945ZM150.869 315.317H151.709V311.927C151.709 311.037 152.389 310.657 152.809 310.657C153.079 310.657 153.179 310.687 153.259 310.697V309.877C153.179 309.837 153.059 309.817 152.889 309.817C152.289 309.817 151.969 310.247 151.729 310.757H151.709V309.957H150.869V315.317Z" fill="black"/>
<rect x="182.447" y="307.83" width="8.1272" height="8.1272" fill="#CECECE"/>
<path d="M196.938 315.317H197.858L198.388 313.357H200.668L201.178 315.317H202.098L200.178 308.177H198.998L196.938 315.317ZM199.558 309.187H199.578L200.488 312.637H198.568L199.558 309.187ZM205.958 311.587C205.958 310.967 205.708 309.817 204.248 309.817C202.598 309.817 202.338 311.367 202.338 312.707C202.338 314.547 202.888 315.457 204.198 315.457C205.538 315.457 205.958 314.307 205.958 313.457H205.118C205.118 314.037 204.958 314.797 204.238 314.797C203.228 314.797 203.218 313.397 203.218 312.697C203.218 310.737 203.748 310.477 204.268 310.477C204.908 310.477 205.118 311.067 205.118 311.587H205.958ZM210.216 311.587C210.216 310.967 209.966 309.817 208.506 309.817C206.856 309.817 206.596 311.367 206.596 312.707C206.596 314.547 207.146 315.457 208.456 315.457C209.796 315.457 210.216 314.307 210.216 313.457H209.376C209.376 314.037 209.216 314.797 208.496 314.797C207.486 314.797 207.476 313.397 207.476 312.697C207.476 310.737 208.006 310.477 208.526 310.477C209.166 310.477 209.376 311.067 209.376 311.587H210.216ZM210.824 312.637C210.824 314.147 211.204 315.457 212.754 315.457C214.294 315.457 214.684 314.147 214.684 312.637C214.684 311.127 214.304 309.817 212.754 309.817C211.214 309.817 210.824 311.127 210.824 312.637ZM212.734 314.797C211.874 314.797 211.704 313.797 211.704 312.637C211.704 311.477 211.884 310.477 212.734 310.477C213.634 310.477 213.804 311.477 213.804 312.637C213.804 313.797 213.624 314.797 212.734 314.797ZM219.057 309.957H218.217V313.657C218.217 314.437 217.607 314.737 217.157 314.737C216.397 314.737 216.367 314.067 216.367 313.657V309.957H215.527V313.757C215.527 314.387 215.527 315.457 216.937 315.457C217.457 315.457 218.017 315.177 218.237 314.687H218.257V315.317H219.057V309.957ZM220.156 315.317H220.996V311.617C220.996 310.837 221.606 310.537 222.056 310.537C222.816 310.537 222.846 311.207 222.846 311.617V315.317H223.686V311.517C223.686 310.887 223.686 309.817 222.276 309.817C221.756 309.817 221.196 310.097 220.976 310.587H220.956V309.957H220.156V315.317ZM225.035 309.957H224.255V310.617H225.035V314.317C225.035 315.017 225.245 315.377 226.115 315.377C226.465 315.377 226.685 315.337 226.795 315.317V314.627C226.705 314.637 226.605 314.657 226.425 314.657C225.985 314.657 225.875 314.487 225.875 314.057V310.617H226.805V309.957H225.875V308.397H225.035V309.957Z" fill="black"/>
<rect x="257.485" y="307.83" width="8.1272" height="8.1272" fill="#4FFF75"/>
<path d="M272.635 315.317H276.445V314.537H273.515V311.977H276.165V311.197H273.515V308.957H276.325V308.177H272.635V315.317ZM277.314 315.317H278.154V311.617C278.154 310.777 278.764 310.537 279.154 310.537C279.844 310.537 279.874 311.207 279.874 311.617V315.317H280.714V311.617C280.714 310.777 281.324 310.537 281.714 310.537C282.404 310.537 282.434 311.207 282.434 311.617V315.317H283.274V311.517C283.274 310.887 283.274 309.817 281.864 309.817C281.314 309.817 280.834 310.197 280.594 310.667C280.424 310.057 280.054 309.817 279.434 309.817C278.914 309.817 278.354 310.097 278.134 310.587H278.114V309.957H277.314V315.317ZM285.181 312.077V311.877C285.181 311.557 285.281 310.477 286.161 310.477C286.901 310.477 287.091 311.187 287.091 311.787V312.077H285.181ZM287.971 312.737V312.397C287.971 311.247 287.821 309.817 286.181 309.817C284.531 309.817 284.271 311.367 284.271 312.707C284.271 314.547 284.821 315.457 286.131 315.457C287.591 315.457 287.931 314.127 287.931 313.557H287.091C287.091 313.957 286.981 314.797 286.181 314.797C285.151 314.797 285.151 313.557 285.151 312.737H287.971ZM288.894 315.317H289.734V311.927C289.734 311.037 290.414 310.657 290.834 310.657C291.104 310.657 291.204 310.687 291.284 310.697V309.877C291.204 309.837 291.084 309.817 290.914 309.817C290.314 309.817 289.994 310.247 289.754 310.757H289.734V309.957H288.894V315.317ZM293.513 310.537C294.413 310.537 294.593 311.597 294.593 312.637C294.593 313.737 294.413 314.597 293.503 314.597C292.663 314.597 292.533 313.507 292.533 312.637C292.533 311.357 292.733 310.537 293.513 310.537ZM295.383 309.957H294.583V310.637H294.563C294.453 310.217 293.983 309.817 293.403 309.817C292.043 309.817 291.653 311.187 291.653 312.637C291.653 313.347 291.753 315.317 293.313 315.317C293.843 315.317 294.343 315.047 294.523 314.597H294.543V315.297C294.543 315.667 294.583 316.497 293.503 316.497C293.063 316.497 292.683 316.307 292.643 315.817H291.803C291.943 317.157 293.233 317.157 293.563 317.157C294.643 317.157 295.383 316.577 295.383 314.977V309.957ZM297.212 312.077V311.877C297.212 311.557 297.312 310.477 298.192 310.477C298.932 310.477 299.122 311.187 299.122 311.787V312.077H297.212ZM300.002 312.737V312.397C300.002 311.247 299.852 309.817 298.212 309.817C296.562 309.817 296.302 311.367 296.302 312.707C296.302 314.547 296.852 315.457 298.162 315.457C299.622 315.457 299.962 314.127 299.962 313.557H299.122C299.122 313.957 299.012 314.797 298.212 314.797C297.182 314.797 297.182 313.557 297.182 312.737H300.002ZM300.926 315.317H301.766V311.617C301.766 310.837 302.376 310.537 302.826 310.537C303.586 310.537 303.616 311.207 303.616 311.617V315.317H304.456V311.517C304.456 310.887 304.456 309.817 303.046 309.817C302.526 309.817 301.966 310.097 301.746 310.587H301.726V309.957H300.926V315.317ZM308.945 311.587C308.945 310.967 308.695 309.817 307.235 309.817C305.585 309.817 305.325 311.367 305.325 312.707C305.325 314.547 305.875 315.457 307.185 315.457C308.525 315.457 308.945 314.307 308.945 313.457H308.105C308.105 314.037 307.945 314.797 307.225 314.797C306.215 314.797 306.205 313.397 306.205 312.697C306.205 310.737 306.735 310.477 307.255 310.477C307.895 310.477 308.105 311.067 308.105 311.587H308.945ZM310.747 315.427L310.587 315.897C310.487 316.187 310.317 316.417 309.927 316.417C309.717 316.417 309.557 316.407 309.437 316.387V317.047C309.577 317.057 309.717 317.077 310.047 317.077C311.057 317.077 311.277 316.417 311.477 315.677L313.027 309.957H312.107L311.167 314.257H311.147L310.087 309.957H309.167L310.747 315.427Z" fill="black"/>
<rect x="71.1094" y="261.785" width="8.1272" height="8.1272" fill="#ED821F"/>
<path d="M86.2602 269.273H87.1402V265.933H89.7902V265.153H87.1402V262.913H89.9502V262.133H86.2602V269.273ZM90.5478 269.273H91.3878V263.913H90.5478V269.273ZM90.5478 263.093H91.3878V262.133H90.5478V263.093ZM92.5388 269.273H93.3788V265.573C93.3788 264.793 93.9888 264.493 94.4388 264.493C95.1988 264.493 95.2288 265.163 95.2288 265.573V269.273H96.0688V265.473C96.0688 264.843 96.0688 263.773 94.6588 263.773C94.1388 263.773 93.5788 264.053 93.3588 264.543H93.3388V263.913H92.5388V269.273ZM97.8777 265.533V265.483C97.8777 265.293 97.8777 264.433 98.7977 264.433C99.3577 264.433 99.6577 264.723 99.6577 265.223C99.6577 265.673 99.6577 265.843 99.0477 266.033L97.9177 266.373C97.2277 266.583 96.9077 267.103 96.9077 267.853C96.9077 268.813 97.3677 269.413 98.3677 269.413C98.8677 269.413 99.3877 269.123 99.6577 268.643H99.6777C99.7177 269.333 100.118 269.333 100.438 269.333C100.648 269.333 100.868 269.293 100.928 269.283V268.683C100.888 268.713 100.838 268.733 100.728 268.733C100.468 268.733 100.468 268.523 100.468 268.303V265.313C100.468 264.753 100.468 263.773 98.8377 263.773C97.5577 263.773 97.0377 264.313 97.0377 265.533H97.8777ZM99.6277 267.733C99.6277 268.283 99.0977 268.753 98.5477 268.753C97.9777 268.753 97.7877 268.373 97.7877 267.833C97.7877 267.363 97.9277 267.153 98.1977 266.983C98.5777 266.753 99.3177 266.683 99.6277 266.353V267.733ZM101.611 269.273H102.451V265.573C102.451 264.793 103.061 264.493 103.511 264.493C104.271 264.493 104.301 265.163 104.301 265.573V269.273H105.141V265.473C105.141 264.843 105.141 263.773 103.731 263.773C103.211 263.773 102.651 264.053 102.431 264.543H102.411V263.913H101.611V269.273ZM109.63 265.543C109.63 264.923 109.38 263.773 107.92 263.773C106.27 263.773 106.01 265.323 106.01 266.663C106.01 268.503 106.56 269.413 107.87 269.413C109.21 269.413 109.63 268.263 109.63 267.413H108.79C108.79 267.993 108.63 268.753 107.91 268.753C106.9 268.753 106.89 267.353 106.89 266.653C106.89 264.693 107.42 264.433 107.94 264.433C108.58 264.433 108.79 265.023 108.79 265.543H109.63ZM110.548 269.273H111.388V263.913H110.548V269.273ZM110.548 263.093H111.388V262.133H110.548V263.093ZM113.249 265.533V265.483C113.249 265.293 113.249 264.433 114.169 264.433C114.729 264.433 115.029 264.723 115.029 265.223C115.029 265.673 115.029 265.843 114.419 266.033L113.289 266.373C112.599 266.583 112.279 267.103 112.279 267.853C112.279 268.813 112.739 269.413 113.739 269.413C114.239 269.413 114.759 269.123 115.029 268.643H115.049C115.089 269.333 115.489 269.333 115.809 269.333C116.019 269.333 116.239 269.293 116.299 269.283V268.683C116.259 268.713 116.209 268.733 116.099 268.733C115.839 268.733 115.839 268.523 115.839 268.303V265.313C115.839 264.753 115.839 263.773 114.209 263.773C112.929 263.773 112.409 264.313 112.409 265.533H113.249ZM114.999 267.733C114.999 268.283 114.469 268.753 113.919 268.753C113.349 268.753 113.159 268.373 113.159 267.833C113.159 267.363 113.299 267.153 113.569 266.983C113.949 266.753 114.689 266.683 114.999 266.353V267.733ZM117.032 269.273H117.872V262.133H117.032V269.273ZM121.455 269.273H122.335V262.133H121.455V269.273ZM124.147 266.593C124.147 265.313 124.347 264.493 125.127 264.493C126.027 264.493 126.207 265.553 126.207 266.593C126.207 267.813 126.057 268.693 125.127 268.693C124.347 268.693 124.147 267.873 124.147 266.593ZM126.997 262.133H126.157V264.523H126.137C125.947 264.063 125.437 263.773 124.957 263.773C123.447 263.773 123.267 265.473 123.267 266.593C123.267 268.283 123.747 269.413 125.017 269.413C125.597 269.413 126.067 269.013 126.177 268.613H126.197V269.273H126.997V262.133ZM128.825 266.033V265.833C128.825 265.513 128.925 264.433 129.805 264.433C130.545 264.433 130.735 265.143 130.735 265.743V266.033H128.825ZM131.615 266.693V266.353C131.615 265.203 131.465 263.773 129.825 263.773C128.175 263.773 127.915 265.323 127.915 266.663C127.915 268.503 128.465 269.413 129.775 269.413C131.235 269.413 131.575 268.083 131.575 267.513H130.735C130.735 267.913 130.625 268.753 129.825 268.753C128.795 268.753 128.795 267.513 128.795 266.693H131.615ZM132.539 269.273H133.379V265.573C133.379 264.793 133.989 264.493 134.439 264.493C135.199 264.493 135.229 265.163 135.229 265.573V269.273H136.069V265.473C136.069 264.843 136.069 263.773 134.659 263.773C134.139 263.773 133.579 264.053 133.359 264.543H133.339V263.913H132.539V269.273ZM137.418 263.913H136.638V264.573H137.418V268.273C137.418 268.973 137.628 269.333 138.498 269.333C138.848 269.333 139.068 269.293 139.178 269.273V268.583C139.088 268.593 138.988 268.613 138.808 268.613C138.368 268.613 138.258 268.443 138.258 268.013V264.573H139.188V263.913H138.258V262.353H137.418V263.913ZM139.806 269.273H140.646V263.913H139.806V269.273ZM139.806 263.093H140.646V262.133H139.806V263.093ZM142.047 269.273H142.887V264.573H143.807V263.913H142.887V263.283C142.887 262.913 143.067 262.773 143.427 262.773H143.817V262.053H143.207C142.397 262.053 142.047 262.473 142.047 263.283V263.913H141.267V264.573H142.047V269.273ZM144.437 269.273H145.277V263.913H144.437V269.273ZM144.437 263.093H145.277V262.133H144.437V263.093ZM147.155 266.033V265.833C147.155 265.513 147.255 264.433 148.135 264.433C148.875 264.433 149.065 265.143 149.065 265.743V266.033H147.155ZM149.945 266.693V266.353C149.945 265.203 149.795 263.773 148.155 263.773C146.505 263.773 146.245 265.323 146.245 266.663C146.245 268.503 146.795 269.413 148.105 269.413C149.565 269.413 149.905 268.083 149.905 267.513H149.065C149.065 267.913 148.955 268.753 148.155 268.753C147.125 268.753 147.125 267.513 147.125 266.693H149.945ZM150.869 269.273H151.709V265.883C151.709 264.993 152.389 264.613 152.809 264.613C153.079 264.613 153.179 264.643 153.259 264.653V263.833C153.179 263.793 153.059 263.773 152.889 263.773C152.289 263.773 151.969 264.203 151.729 264.713H151.709V263.913H150.869V269.273Z" fill="black"/>
<rect x="182.447" y="261.785" width="8.1272" height="8.1272" fill="#9B9B9B"/>
<path d="M196.938 269.273H197.858L198.388 267.313H200.668L201.178 269.273H202.098L200.178 262.133H198.998L196.938 269.273ZM199.558 263.143H199.578L200.488 266.593H198.568L199.558 263.143ZM205.958 265.543C205.958 264.923 205.708 263.773 204.248 263.773C202.598 263.773 202.338 265.323 202.338 266.663C202.338 268.503 202.888 269.413 204.198 269.413C205.538 269.413 205.958 268.263 205.958 267.413H205.118C205.118 267.993 204.958 268.753 204.238 268.753C203.228 268.753 203.218 267.353 203.218 266.653C203.218 264.693 203.748 264.433 204.268 264.433C204.908 264.433 205.118 265.023 205.118 265.543H205.958ZM210.216 265.543C210.216 264.923 209.966 263.773 208.506 263.773C206.856 263.773 206.596 265.323 206.596 266.663C206.596 268.503 207.146 269.413 208.456 269.413C209.796 269.413 210.216 268.263 210.216 267.413H209.376C209.376 267.993 209.216 268.753 208.496 268.753C207.486 268.753 207.476 267.353 207.476 266.653C207.476 264.693 208.006 264.433 208.526 264.433C209.166 264.433 209.376 265.023 209.376 265.543H210.216ZM210.824 266.593C210.824 268.103 211.204 269.413 212.754 269.413C214.294 269.413 214.684 268.103 214.684 266.593C214.684 265.083 214.304 263.773 212.754 263.773C211.214 263.773 210.824 265.083 210.824 266.593ZM212.734 268.753C211.874 268.753 211.704 267.753 211.704 266.593C211.704 265.433 211.884 264.433 212.734 264.433C213.634 264.433 213.804 265.433 213.804 266.593C213.804 267.753 213.624 268.753 212.734 268.753ZM219.057 263.913H218.217V267.613C218.217 268.393 217.607 268.693 217.157 268.693C216.397 268.693 216.367 268.023 216.367 267.613V263.913H215.527V267.713C215.527 268.343 215.527 269.413 216.937 269.413C217.457 269.413 218.017 269.133 218.237 268.643H218.257V269.273H219.057V263.913ZM220.156 269.273H220.996V265.573C220.996 264.793 221.606 264.493 222.056 264.493C222.816 264.493 222.846 265.163 222.846 265.573V269.273H223.686V265.473C223.686 264.843 223.686 263.773 222.276 263.773C221.756 263.773 221.196 264.053 220.976 264.543H220.956V263.913H220.156V269.273ZM225.035 263.913H224.255V264.573H225.035V268.273C225.035 268.973 225.245 269.333 226.115 269.333C226.465 269.333 226.685 269.293 226.795 269.273V268.583C226.705 268.593 226.605 268.613 226.425 268.613C225.985 268.613 225.875 268.443 225.875 268.013V264.573H226.805V263.913H225.875V262.353H225.035V263.913Z" fill="black"/>
<rect x="257.485" y="261.785" width="8.1272" height="8.1272" fill="#00CA2C"/>
<path d="M272.635 269.273H276.445V268.493H273.515V265.933H276.165V265.153H273.515V262.913H276.325V262.133H272.635V269.273ZM277.314 269.273H278.154V265.573C278.154 264.733 278.764 264.493 279.154 264.493C279.844 264.493 279.874 265.163 279.874 265.573V269.273H280.714V265.573C280.714 264.733 281.324 264.493 281.714 264.493C282.404 264.493 282.434 265.163 282.434 265.573V269.273H283.274V265.473C283.274 264.843 283.274 263.773 281.864 263.773C281.314 263.773 280.834 264.153 280.594 264.623C280.424 264.013 280.054 263.773 279.434 263.773C278.914 263.773 278.354 264.053 278.134 264.543H278.114V263.913H277.314V269.273ZM285.181 266.033V265.833C285.181 265.513 285.281 264.433 286.161 264.433C286.901 264.433 287.091 265.143 287.091 265.743V266.033H285.181ZM287.971 266.693V266.353C287.971 265.203 287.821 263.773 286.181 263.773C284.531 263.773 284.271 265.323 284.271 266.663C284.271 268.503 284.821 269.413 286.131 269.413C287.591 269.413 287.931 268.083 287.931 267.513H287.091C287.091 267.913 286.981 268.753 286.181 268.753C285.151 268.753 285.151 267.513 285.151 266.693H287.971ZM288.894 269.273H289.734V265.883C289.734 264.993 290.414 264.613 290.834 264.613C291.104 264.613 291.204 264.643 291.284 264.653V263.833C291.204 263.793 291.084 263.773 290.914 263.773C290.314 263.773 289.994 264.203 289.754 264.713H289.734V263.913H288.894V269.273ZM293.513 264.493C294.413 264.493 294.593 265.553 294.593 266.593C294.593 267.693 294.413 268.553 293.503 268.553C292.663 268.553 292.533 267.463 292.533 266.593C292.533 265.313 292.733 264.493 293.513 264.493ZM295.383 263.913H294.583V264.593H294.563C294.453 264.173 293.983 263.773 293.403 263.773C292.043 263.773 291.653 265.143 291.653 266.593C291.653 267.303 291.753 269.273 293.313 269.273C293.843 269.273 294.343 269.003 294.523 268.553H294.543V269.253C294.543 269.623 294.583 270.453 293.503 270.453C293.063 270.453 292.683 270.263 292.643 269.773H291.803C291.943 271.113 293.233 271.113 293.563 271.113C294.643 271.113 295.383 270.533 295.383 268.933V263.913ZM297.212 266.033V265.833C297.212 265.513 297.312 264.433 298.192 264.433C298.932 264.433 299.122 265.143 299.122 265.743V266.033H297.212ZM300.002 266.693V266.353C300.002 265.203 299.852 263.773 298.212 263.773C296.562 263.773 296.302 265.323 296.302 266.663C296.302 268.503 296.852 269.413 298.162 269.413C299.622 269.413 299.962 268.083 299.962 267.513H299.122C299.122 267.913 299.012 268.753 298.212 268.753C297.182 268.753 297.182 267.513 297.182 266.693H300.002ZM300.926 269.273H301.766V265.573C301.766 264.793 302.376 264.493 302.826 264.493C303.586 264.493 303.616 265.163 303.616 265.573V269.273H304.456V265.473C304.456 264.843 304.456 263.773 303.046 263.773C302.526 263.773 301.966 264.053 301.746 264.543H301.726V263.913H300.926V269.273ZM308.945 265.543C308.945 264.923 308.695 263.773 307.235 263.773C305.585 263.773 305.325 265.323 305.325 266.663C305.325 268.503 305.875 269.413 307.185 269.413C308.525 269.413 308.945 268.263 308.945 267.413H308.105C308.105 267.993 307.945 268.753 307.225 268.753C306.215 268.753 306.205 267.353 306.205 266.653C306.205 264.693 306.735 264.433 307.255 264.433C307.895 264.433 308.105 265.023 308.105 265.543H308.945ZM310.747 269.383L310.587 269.853C310.487 270.143 310.317 270.373 309.927 270.373C309.717 270.373 309.557 270.363 309.437 270.343V271.003C309.577 271.013 309.717 271.033 310.047 271.033C311.057 271.033 311.277 270.373 311.477 269.633L313.027 263.913H312.107L311.167 268.213H311.147L310.087 263.913H309.167L310.747 269.383Z" fill="black"/>
<path d="M16.1208 262.853H17.0408C18.6408 262.853 18.7308 264.333 18.7308 265.713C18.7308 266.993 18.5608 268.553 17.0408 268.553H16.1208V262.853ZM15.2408 269.273H17.2408C19.2008 269.273 19.6508 267.503 19.6508 265.703C19.6508 263.733 19.3708 262.133 17.1508 262.133H15.2408V269.273ZM21.4074 266.033V265.833C21.4074 265.513 21.5074 264.433 22.3874 264.433C23.1274 264.433 23.3174 265.143 23.3174 265.743V266.033H21.4074ZM24.1974 266.693V266.353C24.1974 265.203 24.0474 263.773 22.4074 263.773C20.7574 263.773 20.4974 265.323 20.4974 266.663C20.4974 268.503 21.0474 269.413 22.3574 269.413C23.8174 269.413 24.1574 268.083 24.1574 267.513H23.3174C23.3174 267.913 23.2074 268.753 22.4074 268.753C21.3774 268.753 21.3774 267.513 21.3774 266.693H24.1974ZM26.1208 269.273H27.0808L28.5308 263.913H27.6108L26.6108 268.213H26.5908L25.5908 263.913H24.6708L26.1208 269.273ZM29.2333 269.273H30.0733V263.913H29.2333V269.273ZM29.2333 263.093H30.0733V262.133H29.2333V263.093ZM34.6143 265.543C34.6143 264.923 34.3643 263.773 32.9043 263.773C31.2543 263.773 30.9943 265.323 30.9943 266.663C30.9943 268.503 31.5443 269.413 32.8543 269.413C34.1943 269.413 34.6143 268.263 34.6143 267.413H33.7743C33.7743 267.993 33.6143 268.753 32.8943 268.753C31.8843 268.753 31.8743 267.353 31.8743 266.653C31.8743 264.693 32.4043 264.433 32.9243 264.433C33.5643 264.433 33.7743 265.023 33.7743 265.543H34.6143ZM36.2121 266.033V265.833C36.2121 265.513 36.3121 264.433 37.1921 264.433C37.9321 264.433 38.1221 265.143 38.1221 265.743V266.033H36.2121ZM39.0021 266.693V266.353C39.0021 265.203 38.8521 263.773 37.2121 263.773C35.5621 263.773 35.3021 265.323 35.3021 266.663C35.3021 268.503 35.8521 269.413 37.1621 269.413C38.6221 269.413 38.9621 268.083 38.9621 267.513H38.1221C38.1221 267.913 38.0121 268.753 37.2121 268.753C36.1821 268.753 36.1821 267.513 36.1821 266.693H39.0021Z" fill="black"/>
<rect y="261.785" width="8.1272" height="8.1272" fill="#D41D33"/>
<path d="M16.1208 308.897H17.0408C18.6408 308.897 18.7308 310.377 18.7308 311.757C18.7308 313.037 18.5608 314.597 17.0408 314.597H16.1208V308.897ZM15.2408 315.317H17.2408C19.2008 315.317 19.6508 313.547 19.6508 311.747C19.6508 309.777 19.3708 308.177 17.1508 308.177H15.2408V315.317ZM21.4074 312.077V311.877C21.4074 311.557 21.5074 310.477 22.3874 310.477C23.1274 310.477 23.3174 311.187 23.3174 311.787V312.077H21.4074ZM24.1974 312.737V312.397C24.1974 311.247 24.0474 309.817 22.4074 309.817C20.7574 309.817 20.4974 311.367 20.4974 312.707C20.4974 314.547 21.0474 315.457 22.3574 315.457C23.8174 315.457 24.1574 314.127 24.1574 313.557H23.3174C23.3174 313.957 23.2074 314.797 22.4074 314.797C21.3774 314.797 21.3774 313.557 21.3774 312.737H24.1974ZM26.1208 315.317H27.0808L28.5308 309.957H27.6108L26.6108 314.257H26.5908L25.5908 309.957H24.6708L26.1208 315.317ZM29.2333 315.317H30.0733V309.957H29.2333V315.317ZM29.2333 309.137H30.0733V308.177H29.2333V309.137ZM34.6143 311.587C34.6143 310.967 34.3643 309.817 32.9043 309.817C31.2543 309.817 30.9943 311.367 30.9943 312.707C30.9943 314.547 31.5443 315.457 32.8543 315.457C34.1943 315.457 34.6143 314.307 34.6143 313.457H33.7743C33.7743 314.037 33.6143 314.797 32.8943 314.797C31.8843 314.797 31.8743 313.397 31.8743 312.697C31.8743 310.737 32.4043 310.477 32.9243 310.477C33.5643 310.477 33.7743 311.067 33.7743 311.587H34.6143ZM36.2121 312.077V311.877C36.2121 311.557 36.3121 310.477 37.1921 310.477C37.9321 310.477 38.1221 311.187 38.1221 311.787V312.077H36.2121ZM39.0021 312.737V312.397C39.0021 311.247 38.8521 309.817 37.2121 309.817C35.5621 309.817 35.3021 311.367 35.3021 312.707C35.3021 314.547 35.8521 315.457 37.1621 315.457C38.6221 315.457 38.9621 314.127 38.9621 313.557H38.1221C38.1221 313.957 38.0121 314.797 37.2121 314.797C36.1821 314.797 36.1821 313.557 36.1821 312.737H39.0021Z" fill="black"/>
<rect y="307.83" width="8.1272" height="8.1272" fill="#FB6678"/>
</svg>
