<svg width="479" height="138" viewBox="0 0 479 138" fill="none" xmlns="http://www.w3.org/2000/svg">
<g clip-path="url(#clip0_502_15)">
<path d="M29.124 107.99H479.125" stroke="black" stroke-width="0.389151"/>
<path d="M29.124 107.99H479.125" stroke="#CCCCCC" stroke-width="0.389151"/>
<path d="M29.124 88.0227H479.125" stroke="#CCCCCC" stroke-width="0.389151"/>
<path d="M29.124 68.0544H479.125" stroke="#CCCCCC" stroke-width="0.389151"/>
<path d="M29.124 48.0867H479.125" stroke="#CCCCCC" stroke-width="0.389151"/>
<path d="M29.124 28.1187H479.125" stroke="#CCCCCC" stroke-width="0.389151"/>
<path d="M29.124 8.15088H479.125" stroke="#CCCCCC" stroke-width="0.389151"/>
<path d="M47.3804 38.0642H61.9117L83.7435 47.875H111.252L132.865 40.375H160.482L182.096 15.625H209.713L231.326 14H258.616L280.448 27.875H308.174L329.788 27.25H357.405L378.8 90.75H406.527L428.358 105.125H452.155" stroke="#4F46E5"/>
<path d="M44.1314 122.729H41.8354C42.2674 121.345 44.1074 121.225 44.1074 119.345C44.1074 118.521 43.6674 117.833 42.5074 117.833C41.2994 117.833 40.8354 118.529 40.8354 119.657H41.6994C41.6994 119.081 41.8114 118.473 42.4914 118.473C42.9954 118.473 43.1954 118.865 43.1954 119.329C43.1954 121.089 40.8194 121.033 40.8194 123.497H44.1314V122.729ZM45.5351 120.721C45.5351 119.073 45.6951 118.473 46.3191 118.473C46.9431 118.473 47.1031 119.073 47.1031 120.721C47.1031 122.369 46.9431 122.969 46.3191 122.969C45.6951 122.969 45.5351 122.369 45.5351 120.721ZM44.6231 120.721C44.6231 122.921 45.2311 123.609 46.3191 123.609C47.4071 123.609 48.0151 122.921 48.0151 120.721C48.0151 118.521 47.4071 117.833 46.3191 117.833C45.2311 117.833 44.6231 118.521 44.6231 120.721ZM50.8109 123.497V117.833H50.1469V117.945C49.9869 118.665 49.3549 118.793 48.8109 118.793H48.7229V119.385H49.8989V123.497H50.8109ZM52.3346 121.921C52.3346 123.105 52.9266 123.609 53.9506 123.609C55.1186 123.609 55.6786 122.977 55.6786 121.857C55.6786 121.065 55.2306 120.593 54.6466 120.545V120.521C55.2066 120.433 55.5506 119.865 55.5506 119.281C55.5506 118.145 54.7106 117.833 54.0306 117.833C52.9506 117.833 52.3986 118.409 52.3986 119.465H53.2626C53.2626 118.953 53.4226 118.473 53.9826 118.473C54.4546 118.473 54.6386 118.881 54.6386 119.289C54.6386 119.841 54.4306 120.257 53.8226 120.257H53.4946V120.897H53.8466C54.5346 120.897 54.7666 121.257 54.7666 121.953C54.7666 122.513 54.5426 122.969 53.9746 122.969C53.3586 122.969 53.1986 122.417 53.1986 121.921H52.3346Z" fill="black"/>
<path d="M93.3538 122.729H91.0578C91.4898 121.345 93.3298 121.225 93.3298 119.345C93.3298 118.521 92.8898 117.833 91.7298 117.833C90.5218 117.833 90.0578 118.529 90.0578 119.657H90.9218C90.9218 119.081 91.0338 118.473 91.7138 118.473C92.2178 118.473 92.4178 118.865 92.4178 119.329C92.4178 121.089 90.0418 121.033 90.0418 123.497H93.3538V122.729ZM94.7576 120.721C94.7576 119.073 94.9176 118.473 95.5416 118.473C96.1656 118.473 96.3256 119.073 96.3256 120.721C96.3256 122.369 96.1656 122.969 95.5416 122.969C94.9176 122.969 94.7576 122.369 94.7576 120.721ZM93.8456 120.721C93.8456 122.921 94.4536 123.609 95.5416 123.609C96.6296 123.609 97.2376 122.921 97.2376 120.721C97.2376 118.521 96.6296 117.833 95.5416 117.833C94.4536 117.833 93.8456 118.521 93.8456 120.721ZM100.033 123.497V117.833H99.3693V117.945C99.2093 118.665 98.5773 118.793 98.0333 118.793H97.9453V119.385H99.1213V123.497H100.033ZM101.477 122.225H103.501V123.497H104.365V122.225H104.981V121.497H104.365V117.833H103.437L101.477 121.441V122.225ZM103.501 121.497H102.213L103.485 119.161H103.501V121.497Z" fill="black"/>
<path d="M142.577 122.729H140.281C140.713 121.345 142.553 121.225 142.553 119.345C142.553 118.521 142.113 117.833 140.953 117.833C139.745 117.833 139.281 118.529 139.281 119.657H140.145C140.145 119.081 140.257 118.473 140.937 118.473C141.441 118.473 141.641 118.865 141.641 119.329C141.641 121.089 139.265 121.033 139.265 123.497H142.577V122.729ZM143.98 120.721C143.98 119.073 144.14 118.473 144.764 118.473C145.388 118.473 145.548 119.073 145.548 120.721C145.548 122.369 145.388 122.969 144.764 122.969C144.14 122.969 143.98 122.369 143.98 120.721ZM143.068 120.721C143.068 122.921 143.676 123.609 144.764 123.609C145.852 123.609 146.46 122.921 146.46 120.721C146.46 118.521 145.852 117.833 144.764 117.833C143.676 117.833 143.068 118.521 143.068 120.721ZM149.256 123.497V117.833H148.592V117.945C148.432 118.665 147.8 118.793 147.256 118.793H147.168V119.385H148.344V123.497H149.256ZM150.788 122.089C150.788 123.089 151.364 123.609 152.372 123.609C153.596 123.609 154.116 122.745 154.116 121.609C154.116 120.737 153.82 119.737 152.636 119.737C152.268 119.737 151.924 119.905 151.684 120.177L151.668 120.161L151.852 118.673H153.9V117.945H151.172L150.892 120.913L151.7 120.945C151.78 120.633 152.06 120.425 152.444 120.425C153.028 120.425 153.204 120.977 153.204 121.633C153.204 122.297 153.028 122.921 152.396 122.921C151.884 122.921 151.652 122.545 151.652 122.121V121.969H150.788V122.089Z" fill="black"/>
<path d="M191.799 122.729H189.503C189.935 121.345 191.775 121.225 191.775 119.345C191.775 118.521 191.335 117.833 190.175 117.833C188.967 117.833 188.503 118.529 188.503 119.657H189.367C189.367 119.081 189.479 118.473 190.159 118.473C190.663 118.473 190.863 118.865 190.863 119.329C190.863 121.089 188.487 121.033 188.487 123.497H191.799V122.729ZM193.203 120.721C193.203 119.073 193.363 118.473 193.987 118.473C194.611 118.473 194.771 119.073 194.771 120.721C194.771 122.369 194.611 122.969 193.987 122.969C193.363 122.969 193.203 122.369 193.203 120.721ZM192.291 120.721C192.291 122.921 192.899 123.609 193.987 123.609C195.075 123.609 195.683 122.921 195.683 120.721C195.683 118.521 195.075 117.833 193.987 117.833C192.899 117.833 192.291 118.521 192.291 120.721ZM198.479 123.497V117.833H197.815V117.945C197.655 118.665 197.023 118.793 196.479 118.793H196.391V119.385H197.567V123.497H198.479ZM203.291 119.209C203.291 118.281 202.755 117.833 201.763 117.833C200.267 117.833 199.955 119.201 199.955 120.897C199.955 122.521 200.227 123.609 201.659 123.609C202.859 123.609 203.395 122.833 203.395 121.529C203.395 120.401 202.771 119.841 201.995 119.841C201.499 119.841 201.115 120.033 200.891 120.441L200.867 120.425C200.867 119.601 200.915 118.473 201.771 118.473C202.227 118.473 202.379 118.881 202.379 119.209H203.291ZM200.947 121.793C200.947 121.113 201.067 120.529 201.731 120.529C202.251 120.529 202.483 120.969 202.483 121.753C202.483 122.417 202.291 122.969 201.731 122.969C201.195 122.969 200.947 122.449 200.947 121.793Z" fill="black"/>
<path d="M241.022 122.729H238.726C239.158 121.345 240.998 121.225 240.998 119.345C240.998 118.521 240.558 117.833 239.398 117.833C238.19 117.833 237.726 118.529 237.726 119.657H238.59C238.59 119.081 238.702 118.473 239.382 118.473C239.886 118.473 240.086 118.865 240.086 119.329C240.086 121.089 237.71 121.033 237.71 123.497H241.022V122.729ZM242.426 120.721C242.426 119.073 242.586 118.473 243.21 118.473C243.834 118.473 243.994 119.073 243.994 120.721C243.994 122.369 243.834 122.969 243.21 122.969C242.586 122.969 242.426 122.369 242.426 120.721ZM241.514 120.721C241.514 122.921 242.122 123.609 243.21 123.609C244.298 123.609 244.906 122.921 244.906 120.721C244.906 118.521 244.298 117.833 243.21 117.833C242.122 117.833 241.514 118.521 241.514 120.721ZM247.702 123.497V117.833H247.038V117.945C246.878 118.665 246.246 118.793 245.702 118.793H245.614V119.385H246.79V123.497H247.702ZM249.217 118.761H251.697C250.793 119.921 249.961 121.809 249.833 123.497H250.793C250.921 121.793 251.689 119.825 252.577 118.665V117.945H249.217V118.761Z" fill="black"/>
<path d="M290.245 122.729H287.949C288.381 121.345 290.221 121.225 290.221 119.345C290.221 118.521 289.781 117.833 288.621 117.833C287.413 117.833 286.949 118.529 286.949 119.657H287.813C287.813 119.081 287.925 118.473 288.605 118.473C289.109 118.473 289.309 118.865 289.309 119.329C289.309 121.089 286.933 121.033 286.933 123.497H290.245V122.729ZM291.649 120.721C291.649 119.073 291.809 118.473 292.433 118.473C293.057 118.473 293.217 119.073 293.217 120.721C293.217 122.369 293.057 122.969 292.433 122.969C291.809 122.969 291.649 122.369 291.649 120.721ZM290.737 120.721C290.737 122.921 291.345 123.609 292.433 123.609C293.521 123.609 294.129 122.921 294.129 120.721C294.129 118.521 293.521 117.833 292.433 117.833C291.345 117.833 290.737 118.521 290.737 120.721ZM296.924 123.497V117.833H296.26V117.945C296.1 118.665 295.468 118.793 294.924 118.793H294.836V119.385H296.012V123.497H296.924ZM299.408 119.321C299.408 118.873 299.552 118.473 300.12 118.473C300.688 118.473 300.832 118.873 300.832 119.321C300.832 119.777 300.688 120.185 300.12 120.185C299.552 120.185 299.408 119.777 299.408 119.321ZM299.32 121.897C299.32 121.297 299.48 120.825 300.12 120.825C300.76 120.825 300.92 121.297 300.92 121.897C300.92 122.489 300.76 122.969 300.12 122.969C299.48 122.969 299.32 122.489 299.32 121.897ZM300.12 123.609C301.28 123.609 301.832 123.025 301.832 121.913C301.832 121.073 301.424 120.609 300.864 120.497V120.481C301.352 120.313 301.648 119.937 301.648 119.257C301.648 118.377 301.064 117.833 300.12 117.833C299.176 117.833 298.592 118.377 298.592 119.257C298.592 119.937 298.888 120.313 299.376 120.481V120.497C298.816 120.609 298.408 121.073 298.408 121.913C298.408 123.025 298.96 123.609 300.12 123.609Z" fill="black"/>
<path d="M339.468 122.729H337.172C337.604 121.345 339.444 121.225 339.444 119.345C339.444 118.521 339.004 117.833 337.844 117.833C336.636 117.833 336.172 118.529 336.172 119.657H337.036C337.036 119.081 337.148 118.473 337.828 118.473C338.332 118.473 338.532 118.865 338.532 119.329C338.532 121.089 336.156 121.033 336.156 123.497H339.468V122.729ZM340.871 120.721C340.871 119.073 341.031 118.473 341.655 118.473C342.279 118.473 342.439 119.073 342.439 120.721C342.439 122.369 342.279 122.969 341.655 122.969C341.031 122.969 340.871 122.369 340.871 120.721ZM339.959 120.721C339.959 122.921 340.567 123.609 341.655 123.609C342.743 123.609 343.351 122.921 343.351 120.721C343.351 118.521 342.743 117.833 341.655 117.833C340.567 117.833 339.959 118.521 339.959 120.721ZM346.147 123.497V117.833H345.483V117.945C345.323 118.665 344.691 118.793 344.147 118.793H344.059V119.385H345.235V123.497H346.147ZM347.727 122.233C347.727 123.161 348.263 123.609 349.255 123.609C350.751 123.609 351.063 122.241 351.063 120.545C351.063 118.921 350.791 117.833 349.359 117.833C348.159 117.833 347.623 118.609 347.623 119.913C347.623 121.041 348.247 121.601 349.023 121.601C349.519 121.601 349.903 121.409 350.127 121.001L350.151 121.017C350.151 121.841 350.103 122.969 349.247 122.969C348.791 122.969 348.639 122.561 348.639 122.233H347.727ZM350.071 119.649C350.071 120.329 349.951 120.913 349.287 120.913C348.767 120.913 348.535 120.473 348.535 119.689C348.535 119.025 348.727 118.473 349.287 118.473C349.823 118.473 350.071 118.993 350.071 119.649Z" fill="black"/>
<path d="M388.69 122.729H386.394C386.826 121.345 388.666 121.225 388.666 119.345C388.666 118.521 388.226 117.833 387.066 117.833C385.858 117.833 385.394 118.529 385.394 119.657H386.258C386.258 119.081 386.37 118.473 387.05 118.473C387.554 118.473 387.754 118.865 387.754 119.329C387.754 121.089 385.378 121.033 385.378 123.497H388.69V122.729ZM390.094 120.721C390.094 119.073 390.254 118.473 390.878 118.473C391.502 118.473 391.662 119.073 391.662 120.721C391.662 122.369 391.502 122.969 390.878 122.969C390.254 122.969 390.094 122.369 390.094 120.721ZM389.182 120.721C389.182 122.921 389.79 123.609 390.878 123.609C391.966 123.609 392.574 122.921 392.574 120.721C392.574 118.521 391.966 117.833 390.878 117.833C389.79 117.833 389.182 118.521 389.182 120.721ZM396.378 122.729H394.082C394.514 121.345 396.354 121.225 396.354 119.345C396.354 118.521 395.914 117.833 394.754 117.833C393.546 117.833 393.082 118.529 393.082 119.657H393.946C393.946 119.081 394.058 118.473 394.738 118.473C395.242 118.473 395.442 118.865 395.442 119.329C395.442 121.089 393.066 121.033 393.066 123.497H396.378V122.729ZM397.781 120.721C397.781 119.073 397.941 118.473 398.565 118.473C399.189 118.473 399.349 119.073 399.349 120.721C399.349 122.369 399.189 122.969 398.565 122.969C397.941 122.969 397.781 122.369 397.781 120.721ZM396.869 120.721C396.869 122.921 397.477 123.609 398.565 123.609C399.653 123.609 400.261 122.921 400.261 120.721C400.261 118.521 399.653 117.833 398.565 117.833C397.477 117.833 396.869 118.521 396.869 120.721Z" fill="black"/>
<path d="M428.942 123.497H429.854V120.905H431.862V120.137H429.854V118.553H431.99V117.785H428.942V123.497ZM432.629 123.497H433.493V119.193H432.629V123.497ZM432.629 118.585H433.493V117.721H432.629V118.585ZM434.363 123.497H435.227V120.921C435.227 120.121 435.699 119.945 436.091 119.945C436.235 119.945 436.387 119.977 436.451 119.993V119.113C436.395 119.097 436.339 119.081 436.243 119.081C435.755 119.081 435.435 119.385 435.243 119.865H435.227V119.193H434.363V123.497ZM439.558 120.449V120.257C439.558 119.721 439.31 119.081 438.214 119.081C437.326 119.081 436.742 119.457 436.742 120.265C436.742 120.953 437.014 121.281 437.662 121.505L438.366 121.753C438.67 121.857 438.838 122.065 438.838 122.385C438.838 122.777 438.606 123.017 438.134 123.017C437.638 123.017 437.462 122.745 437.462 122.249V122.113H436.694V122.273C436.694 123.105 437.022 123.609 438.11 123.609C438.982 123.609 439.654 123.217 439.654 122.297C439.654 121.617 439.358 121.273 438.718 121.057L438.166 120.865C437.71 120.705 437.558 120.569 437.558 120.233C437.558 119.833 437.83 119.673 438.174 119.673C438.622 119.673 438.742 119.993 438.742 120.337V120.449H439.558ZM439.908 119.833H440.5V122.505C440.5 123.385 440.788 123.545 441.372 123.545C441.644 123.545 441.884 123.521 442.068 123.473V122.833C441.988 122.849 441.884 122.857 441.756 122.857C441.46 122.857 441.364 122.737 441.364 122.401V119.833H442.068V119.193H441.364V117.969H440.5V119.193H439.908V119.833ZM444.441 123.497H445.305V120.609C445.305 120.049 445.641 119.769 445.993 119.769C446.425 119.769 446.593 119.985 446.593 120.545V123.497H447.457V120.249C447.457 119.377 447.041 119.081 446.385 119.081C445.945 119.081 445.569 119.305 445.329 119.673L445.305 119.657V117.785H444.441V123.497ZM451.116 120.137C451.116 119.377 450.508 119.081 449.748 119.081C448.612 119.081 448.236 119.585 448.236 120.497H449.052C449.052 120.081 449.132 119.673 449.708 119.673C450.164 119.673 450.3 119.921 450.3 120.313C450.3 120.689 450.108 120.777 449.796 120.865L449.124 121.049C448.54 121.241 448.124 121.441 448.124 122.401C448.124 123.225 448.556 123.609 449.244 123.609C449.748 123.609 450.084 123.401 450.316 122.977H450.332C450.356 123.393 450.676 123.545 451.06 123.545C451.228 123.545 451.38 123.489 451.484 123.441V122.881C451.452 122.897 451.396 122.905 451.34 122.905C451.212 122.905 451.116 122.761 451.116 122.601V120.137ZM450.3 121.945C450.3 122.577 450.044 122.969 449.524 122.969C449.164 122.969 448.988 122.681 448.988 122.321C448.988 122.001 449.092 121.745 449.34 121.625C449.596 121.505 450.076 121.401 450.3 121.225V121.945ZM452.035 123.497H452.899V117.785H452.035V123.497ZM454.033 123.497H454.897V119.833H455.601V119.193H454.897V118.817C454.897 118.529 455.041 118.409 455.361 118.409H455.601V117.745C455.473 117.729 455.313 117.721 455.129 117.721C454.425 117.721 454.033 117.977 454.033 118.793V119.193H453.433V119.833H454.033V123.497ZM430.659 131.345C430.659 132.681 431.067 133.609 432.259 133.609C433.459 133.609 433.867 132.681 433.867 131.345C433.867 130.009 433.515 129.081 432.259 129.081C431.011 129.081 430.659 130.009 430.659 131.345ZM431.523 131.345C431.523 130.393 431.635 129.721 432.259 129.721C432.891 129.721 433.003 130.393 433.003 131.345C433.003 132.441 432.891 132.969 432.259 132.969C431.635 132.969 431.523 132.441 431.523 131.345ZM434.795 133.497H435.659V129.833H436.363V129.193H435.659V128.817C435.659 128.529 435.803 128.409 436.123 128.409H436.363V127.745C436.235 127.729 436.075 127.721 435.891 127.721C435.187 127.721 434.795 127.977 434.795 128.793V129.193H434.195V129.833H434.795V133.497ZM441.839 132.729H439.543C439.975 131.345 441.815 131.225 441.815 129.345C441.815 128.521 441.375 127.833 440.215 127.833C439.007 127.833 438.543 128.529 438.543 129.657H439.407C439.407 129.081 439.519 128.473 440.199 128.473C440.703 128.473 440.903 128.865 440.903 129.329C440.903 131.089 438.527 131.033 438.527 133.497H441.839V132.729ZM443.243 130.721C443.243 129.073 443.403 128.473 444.027 128.473C444.651 128.473 444.811 129.073 444.811 130.721C444.811 132.369 444.651 132.969 444.027 132.969C443.403 132.969 443.243 132.369 443.243 130.721ZM442.331 130.721C442.331 132.921 442.939 133.609 444.027 133.609C445.115 133.609 445.723 132.921 445.723 130.721C445.723 128.521 445.115 127.833 444.027 127.833C442.939 127.833 442.331 128.521 442.331 130.721ZM449.527 132.729H447.231C447.663 131.345 449.503 131.225 449.503 129.345C449.503 128.521 449.063 127.833 447.903 127.833C446.695 127.833 446.231 128.529 446.231 129.657H447.095C447.095 129.081 447.207 128.473 447.887 128.473C448.391 128.473 448.591 128.865 448.591 129.329C448.591 131.089 446.215 131.033 446.215 133.497H449.527V132.729ZM452.362 133.497V127.833H451.698V127.945C451.538 128.665 450.906 128.793 450.362 128.793H450.274V129.385H451.45V133.497H452.362Z" fill="black"/>
<path d="M11.7846 109.306C11.7846 107.658 11.9446 107.058 12.5686 107.058C13.1926 107.058 13.3526 107.658 13.3526 109.306C13.3526 110.954 13.1926 111.554 12.5686 111.554C11.9446 111.554 11.7846 110.954 11.7846 109.306ZM10.8726 109.306C10.8726 111.506 11.4806 112.194 12.5686 112.194C13.6566 112.194 14.2646 111.506 14.2646 109.306C14.2646 107.106 13.6566 106.418 12.5686 106.418C11.4806 106.418 10.8726 107.106 10.8726 109.306ZM15.8764 106.914C16.2044 106.914 16.2844 107.21 16.2844 107.954C16.2844 108.698 16.2044 108.994 15.8764 108.994C15.5484 108.994 15.4684 108.698 15.4684 107.954C15.4684 107.21 15.5484 106.914 15.8764 106.914ZM18.4684 106.418L15.9324 112.194H16.5324L19.0844 106.418H18.4684ZM19.1804 109.618C19.5084 109.618 19.5884 109.914 19.5884 110.658C19.5884 111.402 19.5084 111.698 19.1804 111.698C18.8524 111.698 18.7724 111.402 18.7724 110.658C18.7724 109.914 18.8524 109.618 19.1804 109.618ZM15.8764 106.418C15.2444 106.418 14.7804 106.762 14.7804 107.954C14.7804 109.146 15.2444 109.49 15.8764 109.49C16.5084 109.49 16.9724 109.146 16.9724 107.954C16.9724 106.762 16.5084 106.418 15.8764 106.418ZM19.1804 109.122C18.5484 109.122 18.0844 109.466 18.0844 110.658C18.0844 111.85 18.5484 112.194 19.1804 112.194C19.8124 112.194 20.2764 111.85 20.2764 110.658C20.2764 109.466 19.8124 109.122 19.1804 109.122Z" fill="black"/>
<path d="M10.381 91.3465H8.08503C8.51703 89.9625 10.357 89.8425 10.357 87.9625C10.357 87.1385 9.91703 86.4505 8.75703 86.4505C7.54903 86.4505 7.08503 87.1465 7.08503 88.2745H7.94903C7.94903 87.6985 8.06103 87.0905 8.74103 87.0905C9.24503 87.0905 9.44503 87.4825 9.44503 87.9465C9.44503 89.7065 7.06903 89.6505 7.06903 92.1145H10.381V91.3465ZM11.7848 89.3385C11.7848 87.6905 11.9448 87.0905 12.5688 87.0905C13.1928 87.0905 13.3528 87.6905 13.3528 89.3385C13.3528 90.9865 13.1928 91.5865 12.5688 91.5865C11.9448 91.5865 11.7848 90.9865 11.7848 89.3385ZM10.8728 89.3385C10.8728 91.5385 11.4808 92.2265 12.5688 92.2265C13.6568 92.2265 14.2648 91.5385 14.2648 89.3385C14.2648 87.1385 13.6568 86.4505 12.5688 86.4505C11.4808 86.4505 10.8728 87.1385 10.8728 89.3385ZM15.8765 86.9465C16.2045 86.9465 16.2845 87.2425 16.2845 87.9865C16.2845 88.7305 16.2045 89.0265 15.8765 89.0265C15.5485 89.0265 15.4685 88.7305 15.4685 87.9865C15.4685 87.2425 15.5485 86.9465 15.8765 86.9465ZM18.4685 86.4505L15.9325 92.2265H16.5325L19.0845 86.4505H18.4685ZM19.1805 89.6505C19.5085 89.6505 19.5885 89.9465 19.5885 90.6905C19.5885 91.4345 19.5085 91.7305 19.1805 91.7305C18.8525 91.7305 18.7725 91.4345 18.7725 90.6905C18.7725 89.9465 18.8525 89.6505 19.1805 89.6505ZM15.8765 86.4505C15.2445 86.4505 14.7805 86.7945 14.7805 87.9865C14.7805 89.1785 15.2445 89.5225 15.8765 89.5225C16.5085 89.5225 16.9725 89.1785 16.9725 87.9865C16.9725 86.7945 16.5085 86.4505 15.8765 86.4505ZM19.1805 89.1545C18.5485 89.1545 18.0845 89.4985 18.0845 90.6905C18.0845 91.8825 18.5485 92.2265 19.1805 92.2265C19.8125 92.2265 20.2765 91.8825 20.2765 90.6905C20.2765 89.4985 19.8125 89.1545 19.1805 89.1545Z" fill="black"/>
<path d="M6.97292 70.8752H8.99692V72.1472H9.86092V70.8752H10.4769V70.1472H9.86092V66.4832H8.93292L6.97292 70.0912V70.8752ZM8.99692 70.1472H7.70892L8.98092 67.8112H8.99692V70.1472ZM11.7847 69.3712C11.7847 67.7232 11.9447 67.1232 12.5687 67.1232C13.1927 67.1232 13.3527 67.7232 13.3527 69.3712C13.3527 71.0192 13.1927 71.6192 12.5687 71.6192C11.9447 71.6192 11.7847 71.0192 11.7847 69.3712ZM10.8727 69.3712C10.8727 71.5712 11.4807 72.2592 12.5687 72.2592C13.6567 72.2592 14.2647 71.5712 14.2647 69.3712C14.2647 67.1712 13.6567 66.4832 12.5687 66.4832C11.4807 66.4832 10.8727 67.1712 10.8727 69.3712ZM15.8764 66.9792C16.2044 66.9792 16.2844 67.2752 16.2844 68.0192C16.2844 68.7632 16.2044 69.0592 15.8764 69.0592C15.5484 69.0592 15.4684 68.7632 15.4684 68.0192C15.4684 67.2752 15.5484 66.9792 15.8764 66.9792ZM18.4684 66.4832L15.9324 72.2592H16.5324L19.0844 66.4832H18.4684ZM19.1804 69.6832C19.5084 69.6832 19.5884 69.9792 19.5884 70.7232C19.5884 71.4672 19.5084 71.7632 19.1804 71.7632C18.8524 71.7632 18.7724 71.4672 18.7724 70.7232C18.7724 69.9792 18.8524 69.6832 19.1804 69.6832ZM15.8764 66.4832C15.2444 66.4832 14.7804 66.8272 14.7804 68.0192C14.7804 69.2112 15.2444 69.5552 15.8764 69.5552C16.5084 69.5552 16.9724 69.2112 16.9724 68.0192C16.9724 66.8272 16.5084 66.4832 15.8764 66.4832ZM19.1804 69.1872C18.5484 69.1872 18.0844 69.5312 18.0844 70.7232C18.0844 71.9152 18.5484 72.2592 19.1804 72.2592C19.8124 72.2592 20.2764 71.9152 20.2764 70.7232C20.2764 69.5312 19.8124 69.1872 19.1804 69.1872Z" fill="black"/>
<path d="M10.3409 47.8919C10.3409 46.9639 9.80492 46.5159 8.81292 46.5159C7.31692 46.5159 7.00492 47.8839 7.00492 49.5799C7.00492 51.2039 7.27692 52.2919 8.70892 52.2919C9.90892 52.2919 10.4449 51.5159 10.4449 50.2119C10.4449 49.0839 9.82092 48.5239 9.04492 48.5239C8.54892 48.5239 8.16492 48.7159 7.94092 49.1239L7.91692 49.1079C7.91692 48.2839 7.96492 47.1559 8.82092 47.1559C9.27692 47.1559 9.42892 47.5639 9.42892 47.8919H10.3409ZM7.99692 50.4759C7.99692 49.7959 8.11692 49.2119 8.78092 49.2119C9.30092 49.2119 9.53292 49.6519 9.53292 50.4359C9.53292 51.0999 9.34092 51.6519 8.78092 51.6519C8.24492 51.6519 7.99692 51.1319 7.99692 50.4759ZM11.7847 49.4039C11.7847 47.7559 11.9447 47.1559 12.5687 47.1559C13.1927 47.1559 13.3527 47.7559 13.3527 49.4039C13.3527 51.0519 13.1927 51.6519 12.5687 51.6519C11.9447 51.6519 11.7847 51.0519 11.7847 49.4039ZM10.8727 49.4039C10.8727 51.6039 11.4807 52.2919 12.5687 52.2919C13.6567 52.2919 14.2647 51.6039 14.2647 49.4039C14.2647 47.2039 13.6567 46.5159 12.5687 46.5159C11.4807 46.5159 10.8727 47.2039 10.8727 49.4039ZM15.8764 47.0119C16.2044 47.0119 16.2844 47.3079 16.2844 48.0519C16.2844 48.7959 16.2044 49.0919 15.8764 49.0919C15.5484 49.0919 15.4684 48.7959 15.4684 48.0519C15.4684 47.3079 15.5484 47.0119 15.8764 47.0119ZM18.4684 46.5159L15.9324 52.2919H16.5324L19.0844 46.5159H18.4684ZM19.1804 49.7159C19.5084 49.7159 19.5884 50.0119 19.5884 50.7559C19.5884 51.4999 19.5084 51.7959 19.1804 51.7959C18.8524 51.7959 18.7724 51.4999 18.7724 50.7559C18.7724 50.0119 18.8524 49.7159 19.1804 49.7159ZM15.8764 46.5159C15.2444 46.5159 14.7804 46.8599 14.7804 48.0519C14.7804 49.2439 15.2444 49.5879 15.8764 49.5879C16.5084 49.5879 16.9724 49.2439 16.9724 48.0519C16.9724 46.8599 16.5084 46.5159 15.8764 46.5159ZM19.1804 49.2199C18.5484 49.2199 18.0844 49.5639 18.0844 50.7559C18.0844 51.9479 18.5484 52.2919 19.1804 52.2919C19.8124 52.2919 20.2764 51.9479 20.2764 50.7559C20.2764 49.5639 19.8124 49.2199 19.1804 49.2199Z" fill="black"/>
<path d="M8.01292 28.0359C8.01292 27.5879 8.15692 27.1879 8.72492 27.1879C9.29292 27.1879 9.43692 27.5879 9.43692 28.0359C9.43692 28.4919 9.29292 28.8999 8.72492 28.8999C8.15692 28.8999 8.01292 28.4919 8.01292 28.0359ZM7.92492 30.6119C7.92492 30.0119 8.08492 29.5399 8.72492 29.5399C9.36492 29.5399 9.52492 30.0119 9.52492 30.6119C9.52492 31.2039 9.36492 31.6839 8.72492 31.6839C8.08492 31.6839 7.92492 31.2039 7.92492 30.6119ZM8.72492 32.3239C9.88492 32.3239 10.4369 31.7399 10.4369 30.6279C10.4369 29.7879 10.0289 29.3239 9.46892 29.2119V29.1959C9.95692 29.0279 10.2529 28.6519 10.2529 27.9719C10.2529 27.0919 9.66892 26.5479 8.72492 26.5479C7.78092 26.5479 7.19692 27.0919 7.19692 27.9719C7.19692 28.6519 7.49292 29.0279 7.98092 29.1959V29.2119C7.42092 29.3239 7.01292 29.7879 7.01292 30.6279C7.01292 31.7399 7.56492 32.3239 8.72492 32.3239ZM11.7847 29.4359C11.7847 27.7879 11.9447 27.1879 12.5687 27.1879C13.1927 27.1879 13.3527 27.7879 13.3527 29.4359C13.3527 31.0839 13.1927 31.6839 12.5687 31.6839C11.9447 31.6839 11.7847 31.0839 11.7847 29.4359ZM10.8727 29.4359C10.8727 31.6359 11.4807 32.3239 12.5687 32.3239C13.6567 32.3239 14.2647 31.6359 14.2647 29.4359C14.2647 27.2359 13.6567 26.5479 12.5687 26.5479C11.4807 26.5479 10.8727 27.2359 10.8727 29.4359ZM15.8764 27.0439C16.2044 27.0439 16.2844 27.3399 16.2844 28.0839C16.2844 28.8279 16.2044 29.1239 15.8764 29.1239C15.5484 29.1239 15.4684 28.8279 15.4684 28.0839C15.4684 27.3399 15.5484 27.0439 15.8764 27.0439ZM18.4684 26.5479L15.9324 32.3239H16.5324L19.0844 26.5479H18.4684ZM19.1804 29.7479C19.5084 29.7479 19.5884 30.0439 19.5884 30.7879C19.5884 31.5319 19.5084 31.8279 19.1804 31.8279C18.8524 31.8279 18.7724 31.5319 18.7724 30.7879C18.7724 30.0439 18.8524 29.7479 19.1804 29.7479ZM15.8764 26.5479C15.2444 26.5479 14.7804 26.8919 14.7804 28.0839C14.7804 29.2759 15.2444 29.6199 15.8764 29.6199C16.5084 29.6199 16.9724 29.2759 16.9724 28.0839C16.9724 26.8919 16.5084 26.5479 15.8764 26.5479ZM19.1804 29.2519C18.5484 29.2519 18.0844 29.5959 18.0844 30.7879C18.0844 31.9799 18.5484 32.3239 19.1804 32.3239C19.8124 32.3239 20.2764 31.9799 20.2764 30.7879C20.2764 29.5959 19.8124 29.2519 19.1804 29.2519Z" fill="black"/>
<path d="M5.52917 12.2446V6.58063H4.86517V6.69263C4.70517 7.41263 4.07317 7.54063 3.52917 7.54063H3.44117V8.13263H4.61717V12.2446H5.52917ZM7.94092 9.46863C7.94092 7.82063 8.10092 7.22063 8.72492 7.22063C9.34892 7.22063 9.50892 7.82063 9.50892 9.46863C9.50892 11.1166 9.34892 11.7166 8.72492 11.7166C8.10092 11.7166 7.94092 11.1166 7.94092 9.46863ZM7.02892 9.46863C7.02892 11.6686 7.63692 12.3566 8.72492 12.3566C9.81292 12.3566 10.4209 11.6686 10.4209 9.46863C10.4209 7.26863 9.81292 6.58063 8.72492 6.58063C7.63692 6.58063 7.02892 7.26863 7.02892 9.46863ZM11.7847 9.46863C11.7847 7.82063 11.9447 7.22063 12.5687 7.22063C13.1927 7.22063 13.3527 7.82063 13.3527 9.46863C13.3527 11.1166 13.1927 11.7166 12.5687 11.7166C11.9447 11.7166 11.7847 11.1166 11.7847 9.46863ZM10.8727 9.46863C10.8727 11.6686 11.4807 12.3566 12.5687 12.3566C13.6567 12.3566 14.2647 11.6686 14.2647 9.46863C14.2647 7.26863 13.6567 6.58063 12.5687 6.58063C11.4807 6.58063 10.8727 7.26863 10.8727 9.46863ZM15.8764 7.07663C16.2044 7.07663 16.2844 7.37263 16.2844 8.11663C16.2844 8.86063 16.2044 9.15663 15.8764 9.15663C15.5484 9.15663 15.4684 8.86063 15.4684 8.11663C15.4684 7.37263 15.5484 7.07663 15.8764 7.07663ZM18.4684 6.58063L15.9324 12.3566H16.5324L19.0844 6.58063H18.4684ZM19.1804 9.78063C19.5084 9.78063 19.5884 10.0766 19.5884 10.8206C19.5884 11.5646 19.5084 11.8606 19.1804 11.8606C18.8524 11.8606 18.7724 11.5646 18.7724 10.8206C18.7724 10.0766 18.8524 9.78063 19.1804 9.78063ZM15.8764 6.58063C15.2444 6.58063 14.7804 6.92463 14.7804 8.11663C14.7804 9.30863 15.2444 9.65263 15.8764 9.65263C16.5084 9.65263 16.9724 9.30863 16.9724 8.11663C16.9724 6.92463 16.5084 6.58063 15.8764 6.58063ZM19.1804 9.28463C18.5484 9.28463 18.0844 9.62863 18.0844 10.8206C18.0844 12.0126 18.5484 12.3566 19.1804 12.3566C19.8124 12.3566 20.2764 12.0126 20.2764 10.8206C20.2764 9.62863 19.8124 9.28463 19.1804 9.28463Z" fill="black"/>
<rect x="34.2358" y="32.1897" width="28.014" height="12.7012" rx="1" fill="#342180"/>
<path d="M40.0958 36.8175C40.0958 35.8895 39.5598 35.4415 38.5678 35.4415C37.0718 35.4415 36.7598 36.8095 36.7598 38.5055C36.7598 40.1295 37.0318 41.2175 38.4638 41.2175C39.6638 41.2175 40.1998 40.4415 40.1998 39.1375C40.1998 38.0095 39.5758 37.4495 38.7998 37.4495C38.3038 37.4495 37.9198 37.6415 37.6958 38.0495L37.6718 38.0335C37.6718 37.2095 37.7198 36.0815 38.5758 36.0815C39.0318 36.0815 39.1838 36.4895 39.1838 36.8175H40.0958ZM37.7518 39.4015C37.7518 38.7215 37.8718 38.1375 38.5358 38.1375C39.0558 38.1375 39.2878 38.5775 39.2878 39.3615C39.2878 40.0255 39.0958 40.5775 38.5358 40.5775C37.9998 40.5775 37.7518 40.0575 37.7518 39.4015ZM40.7076 39.8415C40.7076 40.7695 41.2436 41.2175 42.2356 41.2175C43.7316 41.2175 44.0436 39.8495 44.0436 38.1535C44.0436 36.5295 43.7716 35.4415 42.3396 35.4415C41.1396 35.4415 40.6036 36.2175 40.6036 37.5215C40.6036 38.6495 41.2276 39.2095 42.0036 39.2095C42.4996 39.2095 42.8836 39.0175 43.1076 38.6095L43.1316 38.6255C43.1316 39.4495 43.0836 40.5775 42.2276 40.5775C41.7716 40.5775 41.6196 40.1695 41.6196 39.8415H40.7076ZM43.0516 37.2575C43.0516 37.9375 42.9316 38.5215 42.2676 38.5215C41.7476 38.5215 41.5156 38.0815 41.5156 37.2975C41.5156 36.6335 41.7076 36.0815 42.2676 36.0815C42.8036 36.0815 43.0516 36.6015 43.0516 37.2575ZM44.7513 41.1055H45.6633V40.0495H44.7513V41.1055ZM46.3372 39.8335H48.3612V41.1055H49.2252V39.8335H49.8412V39.1055H49.2252V35.4415H48.2972L46.3372 39.0495V39.8335ZM48.3612 39.1055H47.0732L48.3452 36.7695H48.3612V39.1055ZM50.269 39.6975C50.269 40.6975 50.845 41.2175 51.853 41.2175C53.077 41.2175 53.597 40.3535 53.597 39.2175C53.597 38.3455 53.301 37.3455 52.117 37.3455C51.749 37.3455 51.405 37.5135 51.165 37.7855L51.149 37.7695L51.333 36.2815H53.381V35.5535H50.653L50.373 38.5215L51.181 38.5535C51.261 38.2415 51.541 38.0335 51.925 38.0335C52.509 38.0335 52.685 38.5855 52.685 39.2415C52.685 39.9055 52.509 40.5295 51.877 40.5295C51.365 40.5295 51.133 40.1535 51.133 39.7295V39.5775H50.269V39.6975ZM55.2407 35.9375C55.5687 35.9375 55.6487 36.2335 55.6487 36.9775C55.6487 37.7215 55.5687 38.0175 55.2407 38.0175C54.9127 38.0175 54.8327 37.7215 54.8327 36.9775C54.8327 36.2335 54.9127 35.9375 55.2407 35.9375ZM57.8327 35.4415L55.2967 41.2175H55.8967L58.4487 35.4415H57.8327ZM58.5447 38.6415C58.8727 38.6415 58.9527 38.9375 58.9527 39.6815C58.9527 40.4255 58.8727 40.7215 58.5447 40.7215C58.2167 40.7215 58.1367 40.4255 58.1367 39.6815C58.1367 38.9375 58.2167 38.6415 58.5447 38.6415ZM55.2407 35.4415C54.6087 35.4415 54.1447 35.7855 54.1447 36.9775C54.1447 38.1695 54.6087 38.5135 55.2407 38.5135C55.8727 38.5135 56.3367 38.1695 56.3367 36.9775C56.3367 35.7855 55.8727 35.4415 55.2407 35.4415ZM58.5447 38.1455C57.9127 38.1455 57.4487 38.4895 57.4487 39.6815C57.4487 40.8735 57.9127 41.2175 58.5447 41.2175C59.1767 41.2175 59.6407 40.8735 59.6407 39.6815C59.6407 38.4895 59.1767 38.1455 58.5447 38.1455Z" fill="white"/>
<rect x="83.4587" y="41.7361" width="28.014" height="12.7012" rx="1" fill="#342180"/>
<path d="M89.3187 46.3639C89.3187 45.4359 88.7827 44.9879 87.7907 44.9879C86.2947 44.9879 85.9827 46.3559 85.9827 48.0519C85.9827 49.6759 86.2547 50.7639 87.6867 50.7639C88.8867 50.7639 89.4227 49.9879 89.4227 48.6839C89.4227 47.5559 88.7987 46.9959 88.0227 46.9959C87.5267 46.9959 87.1427 47.1879 86.9187 47.5959L86.8947 47.5799C86.8947 46.7559 86.9427 45.6279 87.7987 45.6279C88.2547 45.6279 88.4067 46.0359 88.4067 46.3639H89.3187ZM86.9747 48.9479C86.9747 48.2679 87.0947 47.6839 87.7587 47.6839C88.2787 47.6839 88.5107 48.1239 88.5107 48.9079C88.5107 49.5719 88.3187 50.1239 87.7587 50.1239C87.2227 50.1239 86.9747 49.6039 86.9747 48.9479ZM90.7625 47.8759C90.7625 46.2279 90.9225 45.6279 91.5465 45.6279C92.1705 45.6279 92.3305 46.2279 92.3305 47.8759C92.3305 49.5239 92.1705 50.1239 91.5465 50.1239C90.9225 50.1239 90.7625 49.5239 90.7625 47.8759ZM89.8505 47.8759C89.8505 50.0759 90.4585 50.7639 91.5465 50.7639C92.6345 50.7639 93.2425 50.0759 93.2425 47.8759C93.2425 45.6759 92.6345 44.9879 91.5465 44.9879C90.4585 44.9879 89.8505 45.6759 89.8505 47.8759ZM93.9742 50.6519H94.8862V49.5959H93.9742V50.6519ZM98.9681 49.8839H96.6721C97.1041 48.4999 98.9441 48.3799 98.9441 46.4999C98.9441 45.6759 98.5041 44.9879 97.3441 44.9879C96.1361 44.9879 95.6721 45.6839 95.6721 46.8119H96.5361C96.5361 46.2359 96.6481 45.6279 97.3281 45.6279C97.8321 45.6279 98.0321 46.0199 98.0321 46.4839C98.0321 48.2439 95.6561 48.1879 95.6561 50.6519H98.9681V49.8839ZM99.4839 49.0759C99.4839 50.2599 100.076 50.7639 101.1 50.7639C102.268 50.7639 102.828 50.1319 102.828 49.0119C102.828 48.2199 102.38 47.7479 101.796 47.6999V47.6759C102.356 47.5879 102.7 47.0199 102.7 46.4359C102.7 45.2999 101.86 44.9879 101.18 44.9879C100.1 44.9879 99.5479 45.5639 99.5479 46.6199H100.412C100.412 46.1079 100.572 45.6279 101.132 45.6279C101.604 45.6279 101.788 46.0359 101.788 46.4439C101.788 46.9959 101.58 47.4119 100.972 47.4119H100.644V48.0519H100.996C101.684 48.0519 101.916 48.4119 101.916 49.1079C101.916 49.6679 101.692 50.1239 101.124 50.1239C100.508 50.1239 100.348 49.5719 100.348 49.0759H99.4839ZM104.464 45.4839C104.792 45.4839 104.872 45.7799 104.872 46.5239C104.872 47.2679 104.792 47.5639 104.464 47.5639C104.136 47.5639 104.056 47.2679 104.056 46.5239C104.056 45.7799 104.136 45.4839 104.464 45.4839ZM107.056 44.9879L104.52 50.7639H105.12L107.672 44.9879H107.056ZM107.768 48.1879C108.096 48.1879 108.176 48.4839 108.176 49.2279C108.176 49.9719 108.096 50.2679 107.768 50.2679C107.44 50.2679 107.36 49.9719 107.36 49.2279C107.36 48.4839 107.44 48.1879 107.768 48.1879ZM104.464 44.9879C103.832 44.9879 103.368 45.3319 103.368 46.5239C103.368 47.7159 103.832 48.0599 104.464 48.0599C105.096 48.0599 105.56 47.7159 105.56 46.5239C105.56 45.3319 105.096 44.9879 104.464 44.9879ZM107.768 47.6919C107.136 47.6919 106.672 48.0359 106.672 49.2279C106.672 50.4199 107.136 50.7639 107.768 50.7639C108.4 50.7639 108.864 50.4199 108.864 49.2279C108.864 48.0359 108.4 47.6919 107.768 47.6919Z" fill="white"/>
<rect x="132.554" y="34.0396" width="28.014" height="12.7012" rx="1" fill="#342180"/>
<path d="M138.414 38.6673C138.414 37.7393 137.878 37.2913 136.886 37.2913C135.39 37.2913 135.078 38.6593 135.078 40.3553C135.078 41.9793 135.35 43.0673 136.782 43.0673C137.982 43.0673 138.518 42.2913 138.518 40.9873C138.518 39.8593 137.894 39.2993 137.118 39.2993C136.622 39.2993 136.238 39.4913 136.014 39.8993L135.99 39.8833C135.99 39.0593 136.038 37.9313 136.894 37.9313C137.35 37.9313 137.502 38.3393 137.502 38.6673H138.414ZM136.07 41.2513C136.07 40.5713 136.19 39.9873 136.854 39.9873C137.374 39.9873 137.606 40.4273 137.606 41.2113C137.606 41.8753 137.414 42.4273 136.854 42.4273C136.318 42.4273 136.07 41.9073 136.07 41.2513ZM138.962 38.2193H141.442C140.538 39.3793 139.706 41.2673 139.578 42.9553H140.538C140.666 41.2513 141.434 39.2833 142.322 38.1233V37.4033H138.962V38.2193ZM143.07 42.9553H143.982V41.8993H143.07V42.9553ZM148.024 38.6673C148.024 37.7393 147.488 37.2913 146.496 37.2913C145 37.2913 144.688 38.6593 144.688 40.3553C144.688 41.9793 144.96 43.0673 146.392 43.0673C147.592 43.0673 148.128 42.2913 148.128 40.9873C148.128 39.8593 147.504 39.2993 146.728 39.2993C146.232 39.2993 145.848 39.4913 145.624 39.8993L145.6 39.8833C145.6 39.0593 145.648 37.9313 146.504 37.9313C146.96 37.9313 147.112 38.3393 147.112 38.6673H148.024ZM145.68 41.2513C145.68 40.5713 145.8 39.9873 146.464 39.9873C146.984 39.9873 147.216 40.4273 147.216 41.2113C147.216 41.8753 147.024 42.4273 146.464 42.4273C145.928 42.4273 145.68 41.9073 145.68 41.2513ZM149.467 40.1793C149.467 38.5313 149.627 37.9313 150.251 37.9313C150.875 37.9313 151.035 38.5313 151.035 40.1793C151.035 41.8273 150.875 42.4273 150.251 42.4273C149.627 42.4273 149.467 41.8273 149.467 40.1793ZM148.555 40.1793C148.555 42.3793 149.163 43.0673 150.251 43.0673C151.339 43.0673 151.947 42.3793 151.947 40.1793C151.947 37.9793 151.339 37.2913 150.251 37.2913C149.163 37.2913 148.555 37.9793 148.555 40.1793ZM153.559 37.7873C153.887 37.7873 153.967 38.0833 153.967 38.8273C153.967 39.5713 153.887 39.8673 153.559 39.8673C153.231 39.8673 153.151 39.5713 153.151 38.8273C153.151 38.0833 153.231 37.7873 153.559 37.7873ZM156.151 37.2913L153.615 43.0673H154.215L156.767 37.2913H156.151ZM156.863 40.4913C157.191 40.4913 157.271 40.7873 157.271 41.5313C157.271 42.2753 157.191 42.5713 156.863 42.5713C156.535 42.5713 156.455 42.2753 156.455 41.5313C156.455 40.7873 156.535 40.4913 156.863 40.4913ZM153.559 37.2913C152.927 37.2913 152.463 37.6353 152.463 38.8273C152.463 40.0193 152.927 40.3633 153.559 40.3633C154.191 40.3633 154.655 40.0193 154.655 38.8273C154.655 37.6353 154.191 37.2913 153.559 37.2913ZM156.863 39.9953C156.231 39.9953 155.767 40.3393 155.767 41.5313C155.767 42.7233 156.231 43.0673 156.863 43.0673C157.495 43.0673 157.959 42.7233 157.959 41.5313C157.959 40.3393 157.495 39.9953 156.863 39.9953Z" fill="white"/>
<rect x="181.904" y="9.51953" width="28.014" height="12.7012" rx="1" fill="#342180"/>
<path d="M184.532 17.1713C184.532 18.0993 185.068 18.5473 186.06 18.5473C187.556 18.5473 187.868 17.1793 187.868 15.4833C187.868 13.8593 187.596 12.7713 186.164 12.7713C184.964 12.7713 184.428 13.5473 184.428 14.8513C184.428 15.9793 185.052 16.5393 185.828 16.5393C186.324 16.5393 186.708 16.3473 186.932 15.9393L186.956 15.9553C186.956 16.7793 186.908 17.9073 186.052 17.9073C185.596 17.9073 185.444 17.4993 185.444 17.1713H184.532ZM186.876 14.5873C186.876 15.2673 186.756 15.8513 186.092 15.8513C185.572 15.8513 185.34 15.4113 185.34 14.6273C185.34 13.9633 185.532 13.4113 186.092 13.4113C186.628 13.4113 186.876 13.9313 186.876 14.5873ZM191.648 17.6673H189.352C189.784 16.2833 191.624 16.1633 191.624 14.2833C191.624 13.4593 191.184 12.7713 190.024 12.7713C188.816 12.7713 188.352 13.4673 188.352 14.5953H189.216C189.216 14.0193 189.328 13.4113 190.008 13.4113C190.512 13.4113 190.712 13.8033 190.712 14.2673C190.712 16.0273 188.336 15.9713 188.336 18.4353H191.648V17.6673ZM192.42 18.4353H193.332V17.3793H192.42V18.4353ZM196.405 18.4353V12.7713H195.741V12.8833C195.581 13.6033 194.949 13.7313 194.405 13.7313H194.317V14.3233H195.493V18.4353H196.405ZM201.257 17.6673H198.961C199.393 16.2833 201.233 16.1633 201.233 14.2833C201.233 13.4593 200.793 12.7713 199.633 12.7713C198.425 12.7713 197.961 13.4673 197.961 14.5953H198.825C198.825 14.0193 198.937 13.4113 199.617 13.4113C200.121 13.4113 200.321 13.8033 200.321 14.2673C200.321 16.0273 197.945 15.9713 197.945 18.4353H201.257V17.6673ZM202.909 13.2673C203.237 13.2673 203.317 13.5633 203.317 14.3073C203.317 15.0513 203.237 15.3473 202.909 15.3473C202.581 15.3473 202.501 15.0513 202.501 14.3073C202.501 13.5633 202.581 13.2673 202.909 13.2673ZM205.501 12.7713L202.965 18.5473H203.565L206.117 12.7713H205.501ZM206.213 15.9713C206.541 15.9713 206.621 16.2673 206.621 17.0113C206.621 17.7553 206.541 18.0513 206.213 18.0513C205.885 18.0513 205.805 17.7553 205.805 17.0113C205.805 16.2673 205.885 15.9713 206.213 15.9713ZM202.909 12.7713C202.277 12.7713 201.813 13.1153 201.813 14.3073C201.813 15.4993 202.277 15.8433 202.909 15.8433C203.541 15.8433 204.005 15.4993 204.005 14.3073C204.005 13.1153 203.541 12.7713 202.909 12.7713ZM206.213 15.4753C205.581 15.4753 205.117 15.8193 205.117 17.0113C205.117 18.2033 205.581 18.5473 206.213 18.5473C206.845 18.5473 207.309 18.2033 207.309 17.0113C207.309 15.8193 206.845 15.4753 206.213 15.4753Z" fill="white"/>
<rect x="231.127" y="7.49976" width="28.014" height="12.7012" rx="1" fill="#342180"/>
<path d="M233.755 15.1515C233.755 16.0795 234.291 16.5275 235.283 16.5275C236.779 16.5275 237.091 15.1595 237.091 13.4635C237.091 11.8395 236.819 10.7515 235.387 10.7515C234.187 10.7515 233.651 11.5275 233.651 12.8315C233.651 13.9595 234.275 14.5195 235.051 14.5195C235.547 14.5195 235.931 14.3275 236.155 13.9195L236.179 13.9355C236.179 14.7595 236.131 15.8875 235.275 15.8875C234.819 15.8875 234.667 15.4795 234.667 15.1515H233.755ZM236.099 12.5675C236.099 13.2475 235.979 13.8315 235.315 13.8315C234.795 13.8315 234.563 13.3915 234.563 12.6075C234.563 11.9435 234.755 11.3915 235.315 11.3915C235.851 11.3915 236.099 11.9115 236.099 12.5675ZM237.463 15.1435H239.487V16.4155H240.351V15.1435H240.967V14.4155H240.351V10.7515H239.423L237.463 14.3595V15.1435ZM239.487 14.4155H238.199L239.471 12.0795H239.487V14.4155ZM241.642 16.4155H242.554V15.3595H241.642V16.4155ZM245.628 16.4155V10.7515H244.964V10.8635C244.804 11.5835 244.172 11.7115 243.628 11.7115H243.54V12.3035H244.716V16.4155H245.628ZM247.072 15.1435H249.096V16.4155H249.96V15.1435H250.576V14.4155H249.96V10.7515H249.032L247.072 14.3595V15.1435ZM249.096 14.4155H247.808L249.08 12.0795H249.096V14.4155ZM252.132 11.2475C252.46 11.2475 252.54 11.5435 252.54 12.2875C252.54 13.0315 252.46 13.3275 252.132 13.3275C251.804 13.3275 251.724 13.0315 251.724 12.2875C251.724 11.5435 251.804 11.2475 252.132 11.2475ZM254.724 10.7515L252.188 16.5275H252.788L255.34 10.7515H254.724ZM255.436 13.9515C255.764 13.9515 255.844 14.2475 255.844 14.9915C255.844 15.7355 255.764 16.0315 255.436 16.0315C255.108 16.0315 255.028 15.7355 255.028 14.9915C255.028 14.2475 255.108 13.9515 255.436 13.9515ZM252.132 10.7515C251.5 10.7515 251.036 11.0955 251.036 12.2875C251.036 13.4795 251.5 13.8235 252.132 13.8235C252.764 13.8235 253.228 13.4795 253.228 12.2875C253.228 11.0955 252.764 10.7515 252.132 10.7515ZM255.436 13.4555C254.804 13.4555 254.34 13.7995 254.34 14.9915C254.34 16.1835 254.804 16.5275 255.436 16.5275C256.068 16.5275 256.532 16.1835 256.532 14.9915C256.532 13.7995 256.068 13.4555 255.436 13.4555Z" fill="white"/>
<rect x="280.35" y="21.5896" width="28.014" height="12.7012" rx="1" fill="#342180"/>
<path d="M283.882 26.3294C283.882 25.8814 284.026 25.4814 284.594 25.4814C285.162 25.4814 285.306 25.8814 285.306 26.3294C285.306 26.7854 285.162 27.1934 284.594 27.1934C284.026 27.1934 283.882 26.7854 283.882 26.3294ZM283.794 28.9054C283.794 28.3054 283.954 27.8334 284.594 27.8334C285.234 27.8334 285.394 28.3054 285.394 28.9054C285.394 29.4974 285.234 29.9774 284.594 29.9774C283.954 29.9774 283.794 29.4974 283.794 28.9054ZM284.594 30.6174C285.754 30.6174 286.306 30.0334 286.306 28.9214C286.306 28.0814 285.898 27.6174 285.338 27.5054V27.4894C285.826 27.3214 286.122 26.9454 286.122 26.2654C286.122 25.3854 285.538 24.8414 284.594 24.8414C283.65 24.8414 283.066 25.3854 283.066 26.2654C283.066 26.9454 283.362 27.3214 283.85 27.4894V27.5054C283.29 27.6174 282.882 28.0814 282.882 28.9214C282.882 30.0334 283.434 30.6174 284.594 30.6174ZM287.653 27.7294C287.653 26.0814 287.813 25.4814 288.437 25.4814C289.061 25.4814 289.221 26.0814 289.221 27.7294C289.221 29.3774 289.061 29.9774 288.437 29.9774C287.813 29.9774 287.653 29.3774 287.653 27.7294ZM286.741 27.7294C286.741 29.9294 287.349 30.6174 288.437 30.6174C289.525 30.6174 290.133 29.9294 290.133 27.7294C290.133 25.5294 289.525 24.8414 288.437 24.8414C287.349 24.8414 286.741 25.5294 286.741 27.7294ZM290.865 30.5054H291.777V29.4494H290.865V30.5054ZM293.419 27.7294C293.419 26.0814 293.579 25.4814 294.203 25.4814C294.827 25.4814 294.987 26.0814 294.987 27.7294C294.987 29.3774 294.827 29.9774 294.203 29.9774C293.579 29.9774 293.419 29.3774 293.419 27.7294ZM292.507 27.7294C292.507 29.9294 293.115 30.6174 294.203 30.6174C295.291 30.6174 295.899 29.9294 295.899 27.7294C295.899 25.5294 295.291 24.8414 294.203 24.8414C293.115 24.8414 292.507 25.5294 292.507 27.7294ZM296.383 29.0974C296.383 30.0974 296.959 30.6174 297.967 30.6174C299.191 30.6174 299.711 29.7534 299.711 28.6174C299.711 27.7454 299.415 26.7454 298.231 26.7454C297.863 26.7454 297.519 26.9134 297.279 27.1854L297.263 27.1694L297.447 25.6814H299.495V24.9534H296.767L296.487 27.9214L297.295 27.9534C297.375 27.6414 297.655 27.4334 298.039 27.4334C298.623 27.4334 298.799 27.9854 298.799 28.6414C298.799 29.3054 298.623 29.9294 297.991 29.9294C297.479 29.9294 297.247 29.5534 297.247 29.1294V28.9774H296.383V29.0974ZM301.354 25.3374C301.682 25.3374 301.762 25.6334 301.762 26.3774C301.762 27.1214 301.682 27.4174 301.354 27.4174C301.026 27.4174 300.946 27.1214 300.946 26.3774C300.946 25.6334 301.026 25.3374 301.354 25.3374ZM303.946 24.8414L301.41 30.6174H302.01L304.562 24.8414H303.946ZM304.658 28.0414C304.986 28.0414 305.066 28.3374 305.066 29.0814C305.066 29.8254 304.986 30.1214 304.658 30.1214C304.33 30.1214 304.25 29.8254 304.25 29.0814C304.25 28.3374 304.33 28.0414 304.658 28.0414ZM301.354 24.8414C300.722 24.8414 300.258 25.1854 300.258 26.3774C300.258 27.5694 300.722 27.9134 301.354 27.9134C301.986 27.9134 302.45 27.5694 302.45 26.3774C302.45 25.1854 301.986 24.8414 301.354 24.8414ZM304.658 27.5454C304.026 27.5454 303.562 27.8894 303.562 29.0814C303.562 30.2734 304.026 30.6174 304.658 30.6174C305.29 30.6174 305.754 30.2734 305.754 29.0814C305.754 27.8894 305.29 27.5454 304.658 27.5454Z" fill="white"/>
<rect x="329.573" y="21.3396" width="28.014" height="12.7012" rx="1" fill="#342180"/>
<path d="M333.105 26.0794C333.105 25.6314 333.249 25.2314 333.817 25.2314C334.385 25.2314 334.529 25.6314 334.529 26.0794C334.529 26.5354 334.385 26.9434 333.817 26.9434C333.249 26.9434 333.105 26.5354 333.105 26.0794ZM333.017 28.6554C333.017 28.0554 333.177 27.5834 333.817 27.5834C334.457 27.5834 334.617 28.0554 334.617 28.6554C334.617 29.2474 334.457 29.7274 333.817 29.7274C333.177 29.7274 333.017 29.2474 333.017 28.6554ZM333.817 30.3674C334.977 30.3674 335.529 29.7834 335.529 28.6714C335.529 27.8314 335.121 27.3674 334.561 27.2554V27.2394C335.049 27.0714 335.345 26.6954 335.345 26.0154C335.345 25.1354 334.761 24.5914 333.817 24.5914C332.873 24.5914 332.289 25.1354 332.289 26.0154C332.289 26.6954 332.585 27.0714 333.073 27.2394V27.2554C332.513 27.3674 332.105 27.8314 332.105 28.6714C332.105 29.7834 332.657 30.3674 333.817 30.3674ZM336.876 27.4794C336.876 25.8314 337.036 25.2314 337.66 25.2314C338.284 25.2314 338.444 25.8314 338.444 27.4794C338.444 29.1274 338.284 29.7274 337.66 29.7274C337.036 29.7274 336.876 29.1274 336.876 27.4794ZM335.964 27.4794C335.964 29.6794 336.572 30.3674 337.66 30.3674C338.748 30.3674 339.356 29.6794 339.356 27.4794C339.356 25.2794 338.748 24.5914 337.66 24.5914C336.572 24.5914 335.964 25.2794 335.964 27.4794ZM340.088 30.2554H341V29.1994H340.088V30.2554ZM341.754 28.6794C341.754 29.8634 342.346 30.3674 343.37 30.3674C344.538 30.3674 345.098 29.7354 345.098 28.6154C345.098 27.8234 344.65 27.3514 344.066 27.3034V27.2794C344.626 27.1914 344.97 26.6234 344.97 26.0394C344.97 24.9034 344.13 24.5914 343.45 24.5914C342.37 24.5914 341.818 25.1674 341.818 26.2234H342.682C342.682 25.7114 342.842 25.2314 343.402 25.2314C343.874 25.2314 344.058 25.6394 344.058 26.0474C344.058 26.5994 343.85 27.0154 343.242 27.0154H342.914V27.6554H343.266C343.954 27.6554 344.186 28.0154 344.186 28.7114C344.186 29.2714 343.962 29.7274 343.394 29.7274C342.778 29.7274 342.618 29.1754 342.618 28.6794H341.754ZM346.486 27.4794C346.486 25.8314 346.646 25.2314 347.27 25.2314C347.894 25.2314 348.054 25.8314 348.054 27.4794C348.054 29.1274 347.894 29.7274 347.27 29.7274C346.646 29.7274 346.486 29.1274 346.486 27.4794ZM345.574 27.4794C345.574 29.6794 346.182 30.3674 347.27 30.3674C348.358 30.3674 348.966 29.6794 348.966 27.4794C348.966 25.2794 348.358 24.5914 347.27 24.5914C346.182 24.5914 345.574 25.2794 345.574 27.4794ZM350.577 25.0874C350.905 25.0874 350.985 25.3834 350.985 26.1274C350.985 26.8714 350.905 27.1674 350.577 27.1674C350.249 27.1674 350.169 26.8714 350.169 26.1274C350.169 25.3834 350.249 25.0874 350.577 25.0874ZM353.169 24.5914L350.633 30.3674H351.233L353.785 24.5914H353.169ZM353.881 27.7914C354.209 27.7914 354.289 28.0874 354.289 28.8314C354.289 29.5754 354.209 29.8714 353.881 29.8714C353.553 29.8714 353.473 29.5754 353.473 28.8314C353.473 28.0874 353.553 27.7914 353.881 27.7914ZM350.577 24.5914C349.945 24.5914 349.481 24.9354 349.481 26.1274C349.481 27.3194 349.945 27.6634 350.577 27.6634C351.209 27.6634 351.673 27.3194 351.673 26.1274C351.673 24.9354 351.209 24.5914 350.577 24.5914ZM353.881 27.2954C353.249 27.2954 352.785 27.6394 352.785 28.8314C352.785 30.0234 353.249 30.3674 353.881 30.3674C354.513 30.3674 354.977 30.0234 354.977 28.8314C354.977 27.6394 354.513 27.2954 353.881 27.2954Z" fill="white"/>
<rect x="378.795" y="83.8997" width="28.014" height="12.7012" rx="1" fill="#342180"/>
<path d="M383.687 92.8154V87.1514H383.023V87.2634C382.863 87.9834 382.231 88.1114 381.687 88.1114H381.599V88.7034H382.775V92.8154H383.687ZM385.203 88.0794H387.683C386.779 89.2394 385.947 91.1274 385.819 92.8154H386.779C386.907 91.1114 387.675 89.1434 388.563 87.9834V87.2634H385.203V88.0794ZM389.31 92.8154H390.222V91.7594H389.31V92.8154ZM390.968 88.0794H393.448C392.544 89.2394 391.712 91.1274 391.584 92.8154H392.544C392.672 91.1114 393.44 89.1434 394.328 87.9834V87.2634H390.968V88.0794ZM394.74 91.5434H396.764V92.8154H397.628V91.5434H398.244V90.8154H397.628V87.1514H396.7L394.74 90.7594V91.5434ZM396.764 90.8154H395.476L396.748 88.4794H396.764V90.8154ZM399.8 87.6474C400.128 87.6474 400.208 87.9434 400.208 88.6874C400.208 89.4314 400.128 89.7274 399.8 89.7274C399.472 89.7274 399.392 89.4314 399.392 88.6874C399.392 87.9434 399.472 87.6474 399.8 87.6474ZM402.392 87.1514L399.856 92.9274H400.456L403.008 87.1514H402.392ZM403.104 90.3514C403.432 90.3514 403.512 90.6474 403.512 91.3914C403.512 92.1354 403.432 92.4314 403.104 92.4314C402.776 92.4314 402.696 92.1354 402.696 91.3914C402.696 90.6474 402.776 90.3514 403.104 90.3514ZM399.8 87.1514C399.168 87.1514 398.704 87.4954 398.704 88.6874C398.704 89.8794 399.168 90.2234 399.8 90.2234C400.432 90.2234 400.896 89.8794 400.896 88.6874C400.896 87.4954 400.432 87.1514 399.8 87.1514ZM403.104 89.8554C402.472 89.8554 402.008 90.1994 402.008 91.3914C402.008 92.5834 402.472 92.9274 403.104 92.9274C403.736 92.9274 404.2 92.5834 404.2 91.3914C404.2 90.1994 403.736 89.8554 403.104 89.8554Z" fill="white"/>
<rect x="428.018" y="98.6096" width="28.014" height="12.7012" rx="1" fill="#342180"/>
<path d="M432.512 105.949C432.512 107.133 433.104 107.637 434.128 107.637C435.296 107.637 435.856 107.005 435.856 105.885C435.856 105.093 435.408 104.621 434.824 104.573V104.549C435.384 104.461 435.728 103.893 435.728 103.309C435.728 102.173 434.888 101.861 434.208 101.861C433.128 101.861 432.576 102.437 432.576 103.493H433.44C433.44 102.981 433.6 102.501 434.16 102.501C434.632 102.501 434.816 102.909 434.816 103.317C434.816 103.869 434.608 104.285 434 104.285H433.672V104.925H434.024C434.712 104.925 434.944 105.285 434.944 105.981C434.944 106.541 434.72 106.997 434.152 106.997C433.536 106.997 433.376 106.445 433.376 105.949H432.512ZM436.612 107.525H437.524V106.469H436.612V107.525ZM439.166 104.749C439.166 103.101 439.326 102.501 439.95 102.501C440.574 102.501 440.734 103.101 440.734 104.749C440.734 106.397 440.574 106.997 439.95 106.997C439.326 106.997 439.166 106.397 439.166 104.749ZM438.254 104.749C438.254 106.949 438.862 107.637 439.95 107.637C441.038 107.637 441.646 106.949 441.646 104.749C441.646 102.549 441.038 101.861 439.95 101.861C438.862 101.861 438.254 102.549 438.254 104.749ZM442.121 105.949C442.121 107.133 442.713 107.637 443.737 107.637C444.905 107.637 445.465 107.005 445.465 105.885C445.465 105.093 445.017 104.621 444.433 104.573V104.549C444.993 104.461 445.337 103.893 445.337 103.309C445.337 102.173 444.497 101.861 443.817 101.861C442.737 101.861 442.185 102.437 442.185 103.493H443.049C443.049 102.981 443.209 102.501 443.769 102.501C444.241 102.501 444.425 102.909 444.425 103.317C444.425 103.869 444.217 104.285 443.609 104.285H443.281V104.925H443.633C444.321 104.925 444.553 105.285 444.553 105.981C444.553 106.541 444.329 106.997 443.761 106.997C443.145 106.997 442.985 106.445 442.985 105.949H442.121ZM447.101 102.357C447.429 102.357 447.509 102.653 447.509 103.397C447.509 104.141 447.429 104.437 447.101 104.437C446.773 104.437 446.693 104.141 446.693 103.397C446.693 102.653 446.773 102.357 447.101 102.357ZM449.693 101.861L447.157 107.637H447.757L450.309 101.861H449.693ZM450.405 105.061C450.733 105.061 450.813 105.357 450.813 106.101C450.813 106.845 450.733 107.141 450.405 107.141C450.077 107.141 449.997 106.845 449.997 106.101C449.997 105.357 450.077 105.061 450.405 105.061ZM447.101 101.861C446.469 101.861 446.005 102.205 446.005 103.397C446.005 104.589 446.469 104.933 447.101 104.933C447.733 104.933 448.197 104.589 448.197 103.397C448.197 102.205 447.733 101.861 447.101 101.861ZM450.405 104.565C449.773 104.565 449.309 104.909 449.309 106.101C449.309 107.293 449.773 107.637 450.405 107.637C451.037 107.637 451.501 107.293 451.501 106.101C451.501 104.909 451.037 104.565 450.405 104.565Z" fill="white"/>
</g>
<defs>
<clipPath id="clip0_502_15">
<rect width="479" height="138" fill="white"/>
</clipPath>
</defs>
</svg>
