<svg width="481" height="318" viewBox="0 0 481 318" fill="none" xmlns="http://www.w3.org/2000/svg">
<path d="M45.1315 222.229H42.8355C43.2675 220.845 45.1075 220.725 45.1075 218.845C45.1075 218.021 44.6675 217.333 43.5075 217.333C42.2995 217.333 41.8355 218.029 41.8355 219.157H42.6995C42.6995 218.581 42.8115 217.973 43.4915 217.973C43.9955 217.973 44.1955 218.365 44.1955 218.829C44.1955 220.589 41.8195 220.533 41.8195 222.997H45.1315V222.229ZM46.5353 220.221C46.5353 218.573 46.6953 217.973 47.3193 217.973C47.9433 217.973 48.1033 218.573 48.1033 220.221C48.1033 221.869 47.9433 222.469 47.3193 222.469C46.6953 222.469 46.5353 221.869 46.5353 220.221ZM45.6233 220.221C45.6233 222.421 46.2313 223.109 47.3193 223.109C48.4073 223.109 49.0153 222.421 49.0153 220.221C49.0153 218.021 48.4073 217.333 47.3193 217.333C46.2313 217.333 45.6233 218.021 45.6233 220.221ZM51.811 222.997V217.333H51.147V217.445C50.987 218.165 50.355 218.293 49.811 218.293H49.723V218.885H50.899V222.997H51.811ZM53.3348 221.421C53.3348 222.605 53.9268 223.109 54.9508 223.109C56.1188 223.109 56.6788 222.477 56.6788 221.357C56.6788 220.565 56.2308 220.093 55.6468 220.045V220.021C56.2068 219.933 56.5508 219.365 56.5508 218.781C56.5508 217.645 55.7108 217.333 55.0308 217.333C53.9508 217.333 53.3988 217.909 53.3988 218.965H54.2628C54.2628 218.453 54.4228 217.973 54.9828 217.973C55.4548 217.973 55.6388 218.381 55.6388 218.789C55.6388 219.341 55.4308 219.757 54.8228 219.757H54.4948V220.397H54.8468C55.5348 220.397 55.7668 220.757 55.7668 221.453C55.7668 222.013 55.5428 222.469 54.9748 222.469C54.3588 222.469 54.1988 221.917 54.1988 221.421H53.3348Z" fill="black"/>
<path d="M94.3539 222.229H92.0579C92.4899 220.845 94.3299 220.725 94.3299 218.845C94.3299 218.021 93.8899 217.333 92.7299 217.333C91.5219 217.333 91.0579 218.029 91.0579 219.157H91.9219C91.9219 218.581 92.0339 217.973 92.7139 217.973C93.2179 217.973 93.4179 218.365 93.4179 218.829C93.4179 220.589 91.0419 220.533 91.0419 222.997H94.3539V222.229ZM95.7577 220.221C95.7577 218.573 95.9177 217.973 96.5417 217.973C97.1657 217.973 97.3257 218.573 97.3257 220.221C97.3257 221.869 97.1657 222.469 96.5417 222.469C95.9177 222.469 95.7577 221.869 95.7577 220.221ZM94.8457 220.221C94.8457 222.421 95.4537 223.109 96.5417 223.109C97.6297 223.109 98.2377 222.421 98.2377 220.221C98.2377 218.021 97.6297 217.333 96.5417 217.333C95.4537 217.333 94.8457 218.021 94.8457 220.221ZM101.033 222.997V217.333H100.369V217.445C100.209 218.165 99.5774 218.293 99.0334 218.293H98.9454V218.885H100.121V222.997H101.033ZM102.477 221.725H104.501V222.997H105.365V221.725H105.981V220.997H105.365V217.333H104.437L102.477 220.941V221.725ZM104.501 220.997H103.213L104.485 218.661H104.501V220.997Z" fill="black"/>
<path d="M143.577 222.229H141.281C141.713 220.845 143.553 220.725 143.553 218.845C143.553 218.021 143.113 217.333 141.953 217.333C140.745 217.333 140.281 218.029 140.281 219.157H141.145C141.145 218.581 141.257 217.973 141.937 217.973C142.441 217.973 142.641 218.365 142.641 218.829C142.641 220.589 140.265 220.533 140.265 222.997H143.577V222.229ZM144.98 220.221C144.98 218.573 145.14 217.973 145.764 217.973C146.388 217.973 146.548 218.573 146.548 220.221C146.548 221.869 146.388 222.469 145.764 222.469C145.14 222.469 144.98 221.869 144.98 220.221ZM144.068 220.221C144.068 222.421 144.676 223.109 145.764 223.109C146.852 223.109 147.46 222.421 147.46 220.221C147.46 218.021 146.852 217.333 145.764 217.333C144.676 217.333 144.068 218.021 144.068 220.221ZM150.256 222.997V217.333H149.592V217.445C149.432 218.165 148.8 218.293 148.256 218.293H148.168V218.885H149.344V222.997H150.256ZM151.788 221.589C151.788 222.589 152.364 223.109 153.372 223.109C154.596 223.109 155.116 222.245 155.116 221.109C155.116 220.237 154.82 219.237 153.636 219.237C153.268 219.237 152.924 219.405 152.684 219.677L152.668 219.661L152.852 218.173H154.9V217.445H152.172L151.892 220.413L152.7 220.445C152.78 220.133 153.06 219.925 153.444 219.925C154.028 219.925 154.204 220.477 154.204 221.133C154.204 221.797 154.028 222.421 153.396 222.421C152.884 222.421 152.652 222.045 152.652 221.621V221.469H151.788V221.589Z" fill="black"/>
<path d="M192.799 222.229H190.503C190.935 220.845 192.775 220.725 192.775 218.845C192.775 218.021 192.335 217.333 191.175 217.333C189.967 217.333 189.503 218.029 189.503 219.157H190.367C190.367 218.581 190.479 217.973 191.159 217.973C191.663 217.973 191.863 218.365 191.863 218.829C191.863 220.589 189.487 220.533 189.487 222.997H192.799V222.229ZM194.203 220.221C194.203 218.573 194.363 217.973 194.987 217.973C195.611 217.973 195.771 218.573 195.771 220.221C195.771 221.869 195.611 222.469 194.987 222.469C194.363 222.469 194.203 221.869 194.203 220.221ZM193.291 220.221C193.291 222.421 193.899 223.109 194.987 223.109C196.075 223.109 196.683 222.421 196.683 220.221C196.683 218.021 196.075 217.333 194.987 217.333C193.899 217.333 193.291 218.021 193.291 220.221ZM199.479 222.997V217.333H198.815V217.445C198.655 218.165 198.023 218.293 197.479 218.293H197.391V218.885H198.567V222.997H199.479ZM204.291 218.709C204.291 217.781 203.755 217.333 202.763 217.333C201.267 217.333 200.955 218.701 200.955 220.397C200.955 222.021 201.227 223.109 202.659 223.109C203.859 223.109 204.395 222.333 204.395 221.029C204.395 219.901 203.771 219.341 202.995 219.341C202.499 219.341 202.115 219.533 201.891 219.941L201.867 219.925C201.867 219.101 201.915 217.973 202.771 217.973C203.227 217.973 203.379 218.381 203.379 218.709H204.291ZM201.947 221.293C201.947 220.613 202.067 220.029 202.731 220.029C203.251 220.029 203.483 220.469 203.483 221.253C203.483 221.917 203.291 222.469 202.731 222.469C202.195 222.469 201.947 221.949 201.947 221.293Z" fill="black"/>
<path d="M242.022 222.229H239.726C240.158 220.845 241.998 220.725 241.998 218.845C241.998 218.021 241.558 217.333 240.398 217.333C239.19 217.333 238.726 218.029 238.726 219.157H239.59C239.59 218.581 239.702 217.973 240.382 217.973C240.886 217.973 241.086 218.365 241.086 218.829C241.086 220.589 238.71 220.533 238.71 222.997H242.022V222.229ZM243.426 220.221C243.426 218.573 243.586 217.973 244.21 217.973C244.834 217.973 244.994 218.573 244.994 220.221C244.994 221.869 244.834 222.469 244.21 222.469C243.586 222.469 243.426 221.869 243.426 220.221ZM242.514 220.221C242.514 222.421 243.122 223.109 244.21 223.109C245.298 223.109 245.906 222.421 245.906 220.221C245.906 218.021 245.298 217.333 244.21 217.333C243.122 217.333 242.514 218.021 242.514 220.221ZM248.702 222.997V217.333H248.038V217.445C247.878 218.165 247.246 218.293 246.702 218.293H246.614V218.885H247.79V222.997H248.702ZM250.217 218.261H252.697C251.793 219.421 250.961 221.309 250.833 222.997H251.793C251.921 221.293 252.689 219.325 253.577 218.165V217.445H250.217V218.261Z" fill="black"/>
<path d="M291.245 222.229H288.949C289.381 220.845 291.221 220.725 291.221 218.845C291.221 218.021 290.781 217.333 289.621 217.333C288.413 217.333 287.949 218.029 287.949 219.157H288.813C288.813 218.581 288.925 217.973 289.605 217.973C290.109 217.973 290.309 218.365 290.309 218.829C290.309 220.589 287.933 220.533 287.933 222.997H291.245V222.229ZM292.649 220.221C292.649 218.573 292.809 217.973 293.433 217.973C294.057 217.973 294.217 218.573 294.217 220.221C294.217 221.869 294.057 222.469 293.433 222.469C292.809 222.469 292.649 221.869 292.649 220.221ZM291.737 220.221C291.737 222.421 292.345 223.109 293.433 223.109C294.521 223.109 295.129 222.421 295.129 220.221C295.129 218.021 294.521 217.333 293.433 217.333C292.345 217.333 291.737 218.021 291.737 220.221ZM297.924 222.997V217.333H297.26V217.445C297.1 218.165 296.468 218.293 295.924 218.293H295.836V218.885H297.012V222.997H297.924ZM300.408 218.821C300.408 218.373 300.552 217.973 301.12 217.973C301.688 217.973 301.832 218.373 301.832 218.821C301.832 219.277 301.688 219.685 301.12 219.685C300.552 219.685 300.408 219.277 300.408 218.821ZM300.32 221.397C300.32 220.797 300.48 220.325 301.12 220.325C301.76 220.325 301.92 220.797 301.92 221.397C301.92 221.989 301.76 222.469 301.12 222.469C300.48 222.469 300.32 221.989 300.32 221.397ZM301.12 223.109C302.28 223.109 302.832 222.525 302.832 221.413C302.832 220.573 302.424 220.109 301.864 219.997V219.981C302.352 219.813 302.648 219.437 302.648 218.757C302.648 217.877 302.064 217.333 301.12 217.333C300.176 217.333 299.592 217.877 299.592 218.757C299.592 219.437 299.888 219.813 300.376 219.981V219.997C299.816 220.109 299.408 220.573 299.408 221.413C299.408 222.525 299.96 223.109 301.12 223.109Z" fill="black"/>
<path d="M340.468 222.229H338.172C338.604 220.845 340.444 220.725 340.444 218.845C340.444 218.021 340.004 217.333 338.844 217.333C337.636 217.333 337.172 218.029 337.172 219.157H338.036C338.036 218.581 338.148 217.973 338.828 217.973C339.332 217.973 339.532 218.365 339.532 218.829C339.532 220.589 337.156 220.533 337.156 222.997H340.468V222.229ZM341.871 220.221C341.871 218.573 342.031 217.973 342.655 217.973C343.279 217.973 343.439 218.573 343.439 220.221C343.439 221.869 343.279 222.469 342.655 222.469C342.031 222.469 341.871 221.869 341.871 220.221ZM340.959 220.221C340.959 222.421 341.567 223.109 342.655 223.109C343.743 223.109 344.351 222.421 344.351 220.221C344.351 218.021 343.743 217.333 342.655 217.333C341.567 217.333 340.959 218.021 340.959 220.221ZM347.147 222.997V217.333H346.483V217.445C346.323 218.165 345.691 218.293 345.147 218.293H345.059V218.885H346.235V222.997H347.147ZM348.727 221.733C348.727 222.661 349.263 223.109 350.255 223.109C351.751 223.109 352.063 221.741 352.063 220.045C352.063 218.421 351.791 217.333 350.359 217.333C349.159 217.333 348.623 218.109 348.623 219.413C348.623 220.541 349.247 221.101 350.023 221.101C350.519 221.101 350.903 220.909 351.127 220.501L351.151 220.517C351.151 221.341 351.103 222.469 350.247 222.469C349.791 222.469 349.639 222.061 349.639 221.733H348.727ZM351.071 219.149C351.071 219.829 350.951 220.413 350.287 220.413C349.767 220.413 349.535 219.973 349.535 219.189C349.535 218.525 349.727 217.973 350.287 217.973C350.823 217.973 351.071 218.493 351.071 219.149Z" fill="black"/>
<path d="M389.69 222.229H387.394C387.826 220.845 389.666 220.725 389.666 218.845C389.666 218.021 389.226 217.333 388.066 217.333C386.858 217.333 386.394 218.029 386.394 219.157H387.258C387.258 218.581 387.37 217.973 388.05 217.973C388.554 217.973 388.754 218.365 388.754 218.829C388.754 220.589 386.378 220.533 386.378 222.997H389.69V222.229ZM391.094 220.221C391.094 218.573 391.254 217.973 391.878 217.973C392.502 217.973 392.662 218.573 392.662 220.221C392.662 221.869 392.502 222.469 391.878 222.469C391.254 222.469 391.094 221.869 391.094 220.221ZM390.182 220.221C390.182 222.421 390.79 223.109 391.878 223.109C392.966 223.109 393.574 222.421 393.574 220.221C393.574 218.021 392.966 217.333 391.878 217.333C390.79 217.333 390.182 218.021 390.182 220.221ZM397.378 222.229H395.082C395.514 220.845 397.354 220.725 397.354 218.845C397.354 218.021 396.914 217.333 395.754 217.333C394.546 217.333 394.082 218.029 394.082 219.157H394.946C394.946 218.581 395.058 217.973 395.738 217.973C396.242 217.973 396.442 218.365 396.442 218.829C396.442 220.589 394.066 220.533 394.066 222.997H397.378V222.229ZM398.782 220.221C398.782 218.573 398.942 217.973 399.566 217.973C400.19 217.973 400.35 218.573 400.35 220.221C400.35 221.869 400.19 222.469 399.566 222.469C398.942 222.469 398.782 221.869 398.782 220.221ZM397.87 220.221C397.87 222.421 398.478 223.109 399.566 223.109C400.654 223.109 401.262 222.421 401.262 220.221C401.262 218.021 400.654 217.333 399.566 217.333C398.478 217.333 397.87 218.021 397.87 220.221Z" fill="black"/>
<path d="M429.942 222.997H430.854V220.405H432.862V219.637H430.854V218.053H432.99V217.285H429.942V222.997ZM433.629 222.997H434.493V218.693H433.629V222.997ZM433.629 218.085H434.493V217.221H433.629V218.085ZM435.363 222.997H436.227V220.421C436.227 219.621 436.699 219.445 437.091 219.445C437.235 219.445 437.387 219.477 437.451 219.493V218.613C437.395 218.597 437.339 218.581 437.243 218.581C436.755 218.581 436.435 218.885 436.243 219.365H436.227V218.693H435.363V222.997ZM440.558 219.949V219.757C440.558 219.221 440.31 218.581 439.214 218.581C438.326 218.581 437.742 218.957 437.742 219.765C437.742 220.453 438.014 220.781 438.662 221.005L439.366 221.253C439.67 221.357 439.838 221.565 439.838 221.885C439.838 222.277 439.606 222.517 439.134 222.517C438.638 222.517 438.462 222.245 438.462 221.749V221.613H437.694V221.773C437.694 222.605 438.022 223.109 439.11 223.109C439.982 223.109 440.654 222.717 440.654 221.797C440.654 221.117 440.358 220.773 439.718 220.557L439.166 220.365C438.71 220.205 438.558 220.069 438.558 219.733C438.558 219.333 438.83 219.173 439.174 219.173C439.622 219.173 439.742 219.493 439.742 219.837V219.949H440.558ZM440.908 219.333H441.5V222.005C441.5 222.885 441.788 223.045 442.372 223.045C442.644 223.045 442.884 223.021 443.068 222.973V222.333C442.988 222.349 442.884 222.357 442.756 222.357C442.46 222.357 442.364 222.237 442.364 221.901V219.333H443.068V218.693H442.364V217.469H441.5V218.693H440.908V219.333ZM445.441 222.997H446.305V220.109C446.305 219.549 446.641 219.269 446.993 219.269C447.425 219.269 447.593 219.485 447.593 220.045V222.997H448.457V219.749C448.457 218.877 448.041 218.581 447.385 218.581C446.945 218.581 446.569 218.805 446.329 219.173L446.305 219.157V217.285H445.441V222.997ZM452.116 219.637C452.116 218.877 451.508 218.581 450.748 218.581C449.612 218.581 449.236 219.085 449.236 219.997H450.052C450.052 219.581 450.132 219.173 450.708 219.173C451.164 219.173 451.3 219.421 451.3 219.813C451.3 220.189 451.108 220.277 450.796 220.365L450.124 220.549C449.54 220.741 449.124 220.941 449.124 221.901C449.124 222.725 449.556 223.109 450.244 223.109C450.748 223.109 451.084 222.901 451.316 222.477H451.332C451.356 222.893 451.676 223.045 452.06 223.045C452.228 223.045 452.38 222.989 452.484 222.941V222.381C452.452 222.397 452.396 222.405 452.34 222.405C452.212 222.405 452.116 222.261 452.116 222.101V219.637ZM451.3 221.445C451.3 222.077 451.044 222.469 450.524 222.469C450.164 222.469 449.988 222.181 449.988 221.821C449.988 221.501 450.092 221.245 450.34 221.125C450.596 221.005 451.076 220.901 451.3 220.725V221.445ZM453.035 222.997H453.899V217.285H453.035V222.997ZM455.033 222.997H455.897V219.333H456.601V218.693H455.897V218.317C455.897 218.029 456.041 217.909 456.361 217.909H456.601V217.245C456.473 217.229 456.313 217.221 456.129 217.221C455.425 217.221 455.033 217.477 455.033 218.293V218.693H454.433V219.333H455.033V222.997ZM431.659 230.845C431.659 232.181 432.067 233.109 433.259 233.109C434.459 233.109 434.867 232.181 434.867 230.845C434.867 229.509 434.515 228.581 433.259 228.581C432.011 228.581 431.659 229.509 431.659 230.845ZM432.523 230.845C432.523 229.893 432.635 229.221 433.259 229.221C433.891 229.221 434.003 229.893 434.003 230.845C434.003 231.941 433.891 232.469 433.259 232.469C432.635 232.469 432.523 231.941 432.523 230.845ZM435.795 232.997H436.659V229.333H437.363V228.693H436.659V228.317C436.659 228.029 436.803 227.909 437.123 227.909H437.363V227.245C437.235 227.229 437.075 227.221 436.891 227.221C436.187 227.221 435.795 227.477 435.795 228.293V228.693H435.195V229.333H435.795V232.997ZM442.839 232.229H440.543C440.975 230.845 442.815 230.725 442.815 228.845C442.815 228.021 442.375 227.333 441.215 227.333C440.007 227.333 439.543 228.029 439.543 229.157H440.407C440.407 228.581 440.519 227.973 441.199 227.973C441.703 227.973 441.903 228.365 441.903 228.829C441.903 230.589 439.527 230.533 439.527 232.997H442.839V232.229ZM444.243 230.221C444.243 228.573 444.403 227.973 445.027 227.973C445.651 227.973 445.811 228.573 445.811 230.221C445.811 231.869 445.651 232.469 445.027 232.469C444.403 232.469 444.243 231.869 444.243 230.221ZM443.331 230.221C443.331 232.421 443.939 233.109 445.027 233.109C446.115 233.109 446.723 232.421 446.723 230.221C446.723 228.021 446.115 227.333 445.027 227.333C443.939 227.333 443.331 228.021 443.331 230.221ZM450.527 232.229H448.231C448.663 230.845 450.503 230.725 450.503 228.845C450.503 228.021 450.063 227.333 448.903 227.333C447.695 227.333 447.231 228.029 447.231 229.157H448.095C448.095 228.581 448.207 227.973 448.887 227.973C449.391 227.973 449.591 228.365 449.591 228.829C449.591 230.589 447.215 230.533 447.215 232.997H450.527V232.229ZM453.362 232.997V227.333H452.698V227.445C452.538 228.165 451.906 228.293 451.362 228.293H451.274V228.885H452.45V232.997H453.362Z" fill="black"/>
<path d="M18.855 201.702C18.855 200.054 19.015 199.454 19.639 199.454C20.263 199.454 20.423 200.054 20.423 201.702C20.423 203.35 20.263 203.95 19.639 203.95C19.015 203.95 18.855 203.35 18.855 201.702ZM17.943 201.702C17.943 203.902 18.551 204.59 19.639 204.59C20.727 204.59 21.335 203.902 21.335 201.702C21.335 199.502 20.727 198.814 19.639 198.814C18.551 198.814 17.943 199.502 17.943 201.702Z" fill="black"/>
<path d="M10.2877 163.674C10.2877 164.674 10.8637 165.194 11.8717 165.194C13.0957 165.194 13.6157 164.33 13.6157 163.194C13.6157 162.322 13.3197 161.322 12.1357 161.322C11.7677 161.322 11.4237 161.49 11.1837 161.762L11.1677 161.746L11.3517 160.258H13.3997V159.53H10.6717L10.3917 162.498L11.1997 162.53C11.2797 162.218 11.5597 162.01 11.9437 162.01C12.5277 162.01 12.7037 162.562 12.7037 163.218C12.7037 163.882 12.5277 164.506 11.8957 164.506C11.3837 164.506 11.1517 164.13 11.1517 163.706V163.554H10.2877V163.674ZM15.0114 162.306C15.0114 160.658 15.1714 160.058 15.7954 160.058C16.4194 160.058 16.5794 160.658 16.5794 162.306C16.5794 163.954 16.4194 164.554 15.7954 164.554C15.1714 164.554 15.0114 163.954 15.0114 162.306ZM14.0994 162.306C14.0994 164.506 14.7074 165.194 15.7954 165.194C16.8834 165.194 17.4914 164.506 17.4914 162.306C17.4914 160.106 16.8834 159.418 15.7954 159.418C14.7074 159.418 14.0994 160.106 14.0994 162.306ZM18.8552 162.306C18.8552 160.658 19.0152 160.058 19.6392 160.058C20.2632 160.058 20.4232 160.658 20.4232 162.306C20.4232 163.954 20.2632 164.554 19.6392 164.554C19.0152 164.554 18.8552 163.954 18.8552 162.306ZM17.9432 162.306C17.9432 164.506 18.5512 165.194 19.6392 165.194C20.7272 165.194 21.3352 164.506 21.3352 162.306C21.3352 160.106 20.7272 159.418 19.6392 159.418C18.5512 159.418 17.9432 160.106 17.9432 162.306Z" fill="black"/>
<path d="M8.7558 125.687V120.023H8.0918V120.135C7.9318 120.855 7.2998 120.983 6.7558 120.983H6.6678V121.575H7.8438V125.687H8.7558ZM11.1675 122.911C11.1675 121.263 11.3275 120.663 11.9515 120.663C12.5755 120.663 12.7355 121.263 12.7355 122.911C12.7355 124.559 12.5755 125.159 11.9515 125.159C11.3275 125.159 11.1675 124.559 11.1675 122.911ZM10.2555 122.911C10.2555 125.111 10.8635 125.799 11.9515 125.799C13.0395 125.799 13.6475 125.111 13.6475 122.911C13.6475 120.711 13.0395 120.023 11.9515 120.023C10.8635 120.023 10.2555 120.711 10.2555 122.911ZM15.0113 122.911C15.0113 121.263 15.1713 120.663 15.7953 120.663C16.4193 120.663 16.5793 121.263 16.5793 122.911C16.5793 124.559 16.4193 125.159 15.7953 125.159C15.1713 125.159 15.0113 124.559 15.0113 122.911ZM14.0993 122.911C14.0993 125.111 14.7073 125.799 15.7953 125.799C16.8833 125.799 17.4913 125.111 17.4913 122.911C17.4913 120.711 16.8833 120.023 15.7953 120.023C14.7073 120.023 14.0993 120.711 14.0993 122.911ZM18.855 122.911C18.855 121.263 19.015 120.663 19.639 120.663C20.263 120.663 20.423 121.263 20.423 122.911C20.423 124.559 20.263 125.159 19.639 125.159C19.015 125.159 18.855 124.559 18.855 122.911ZM17.943 122.911C17.943 125.111 18.551 125.799 19.639 125.799C20.727 125.799 21.335 125.111 21.335 122.911C21.335 120.711 20.727 120.023 19.639 120.023C18.551 120.023 17.943 120.711 17.943 122.911Z" fill="black"/>
<path d="M8.7558 86.2913V80.6273H8.0918V80.7393C7.9318 81.4593 7.2998 81.5873 6.7558 81.5873H6.6678V82.1793H7.8438V86.2913H8.7558ZM10.2875 84.8833C10.2875 85.8833 10.8635 86.4033 11.8715 86.4033C13.0955 86.4033 13.6155 85.5393 13.6155 84.4033C13.6155 83.5313 13.3195 82.5313 12.1355 82.5313C11.7675 82.5313 11.4235 82.6993 11.1835 82.9713L11.1675 82.9553L11.3515 81.4673H13.3995V80.7393H10.6715L10.3915 83.7073L11.1995 83.7393C11.2795 83.4273 11.5595 83.2193 11.9435 83.2193C12.5275 83.2193 12.7035 83.7713 12.7035 84.4273C12.7035 85.0913 12.5275 85.7153 11.8955 85.7153C11.3835 85.7153 11.1515 85.3393 11.1515 84.9153V84.7633H10.2875V84.8833ZM15.0113 83.5153C15.0113 81.8673 15.1713 81.2673 15.7953 81.2673C16.4193 81.2673 16.5793 81.8673 16.5793 83.5153C16.5793 85.1633 16.4193 85.7633 15.7953 85.7633C15.1713 85.7633 15.0113 85.1633 15.0113 83.5153ZM14.0993 83.5153C14.0993 85.7153 14.7073 86.4033 15.7953 86.4033C16.8833 86.4033 17.4913 85.7153 17.4913 83.5153C17.4913 81.3153 16.8833 80.6273 15.7953 80.6273C14.7073 80.6273 14.0993 81.3153 14.0993 83.5153ZM18.855 83.5153C18.855 81.8673 19.015 81.2673 19.639 81.2673C20.263 81.2673 20.423 81.8673 20.423 83.5153C20.423 85.1633 20.263 85.7633 19.639 85.7633C19.015 85.7633 18.855 85.1633 18.855 83.5153ZM17.943 83.5153C17.943 85.7153 18.551 86.4033 19.639 86.4033C20.727 86.4033 21.335 85.7153 21.335 83.5153C21.335 81.3153 20.727 80.6273 19.639 80.6273C18.551 80.6273 17.943 81.3153 17.943 83.5153Z" fill="black"/>
<path d="M9.7638 46.1278H7.4678C7.8998 44.7438 9.7398 44.6238 9.7398 42.7438C9.7398 41.9198 9.2998 41.2318 8.1398 41.2318C6.9318 41.2318 6.4678 41.9278 6.4678 43.0558H7.3318C7.3318 42.4798 7.4438 41.8718 8.1238 41.8718C8.6278 41.8718 8.8278 42.2638 8.8278 42.7278C8.8278 44.4878 6.4518 44.4318 6.4518 46.8958H9.7638V46.1278ZM11.1675 44.1198C11.1675 42.4718 11.3275 41.8718 11.9515 41.8718C12.5755 41.8718 12.7355 42.4718 12.7355 44.1198C12.7355 45.7678 12.5755 46.3678 11.9515 46.3678C11.3275 46.3678 11.1675 45.7678 11.1675 44.1198ZM10.2555 44.1198C10.2555 46.3198 10.8635 47.0078 11.9515 47.0078C13.0395 47.0078 13.6475 46.3198 13.6475 44.1198C13.6475 41.9198 13.0395 41.2318 11.9515 41.2318C10.8635 41.2318 10.2555 41.9198 10.2555 44.1198ZM15.0113 44.1198C15.0113 42.4718 15.1713 41.8718 15.7953 41.8718C16.4193 41.8718 16.5793 42.4718 16.5793 44.1198C16.5793 45.7678 16.4193 46.3678 15.7953 46.3678C15.1713 46.3678 15.0113 45.7678 15.0113 44.1198ZM14.0993 44.1198C14.0993 46.3198 14.7073 47.0078 15.7953 47.0078C16.8833 47.0078 17.4913 46.3198 17.4913 44.1198C17.4913 41.9198 16.8833 41.2318 15.7953 41.2318C14.7073 41.2318 14.0993 41.9198 14.0993 44.1198ZM18.855 44.1198C18.855 42.4718 19.015 41.8718 19.639 41.8718C20.263 41.8718 20.423 42.4718 20.423 44.1198C20.423 45.7678 20.263 46.3678 19.639 46.3678C19.015 46.3678 18.855 45.7678 18.855 44.1198ZM17.943 44.1198C17.943 46.3198 18.551 47.0078 19.639 47.0078C20.727 47.0078 21.335 46.3198 21.335 44.1198C21.335 41.9198 20.727 41.2318 19.639 41.2318C18.551 41.2318 17.943 41.9198 17.943 44.1198Z" fill="black"/>
<path d="M9.7638 6.73224H7.4678C7.8998 5.34824 9.7398 5.22824 9.7398 3.34824C9.7398 2.52424 9.2998 1.83624 8.1398 1.83624C6.9318 1.83624 6.4678 2.53224 6.4678 3.66024H7.3318C7.3318 3.08424 7.4438 2.47624 8.1238 2.47624C8.6278 2.47624 8.8278 2.86824 8.8278 3.33224C8.8278 5.09224 6.4518 5.03624 6.4518 7.50024H9.7638V6.73224ZM10.2875 6.09224C10.2875 7.09224 10.8635 7.61224 11.8715 7.61224C13.0955 7.61224 13.6155 6.74824 13.6155 5.61224C13.6155 4.74024 13.3195 3.74024 12.1355 3.74024C11.7675 3.74024 11.4235 3.90824 11.1835 4.18024L11.1675 4.16424L11.3515 2.67624H13.3995V1.94824H10.6715L10.3915 4.91624L11.1995 4.94824C11.2795 4.63624 11.5595 4.42824 11.9435 4.42824C12.5275 4.42824 12.7035 4.98024 12.7035 5.63624C12.7035 6.30024 12.5275 6.92424 11.8955 6.92424C11.3835 6.92424 11.1515 6.54824 11.1515 6.12424V5.97224H10.2875V6.09224ZM15.0113 4.72424C15.0113 3.07624 15.1713 2.47624 15.7953 2.47624C16.4193 2.47624 16.5793 3.07624 16.5793 4.72424C16.5793 6.37224 16.4193 6.97224 15.7953 6.97224C15.1713 6.97224 15.0113 6.37224 15.0113 4.72424ZM14.0993 4.72424C14.0993 6.92424 14.7073 7.61224 15.7953 7.61224C16.8833 7.61224 17.4913 6.92424 17.4913 4.72424C17.4913 2.52424 16.8833 1.83624 15.7953 1.83624C14.7073 1.83624 14.0993 2.52424 14.0993 4.72424ZM18.855 4.72424C18.855 3.07624 19.015 2.47624 19.639 2.47624C20.263 2.47624 20.423 3.07624 20.423 4.72424C20.423 6.37224 20.263 6.97224 19.639 6.97224C19.015 6.97224 18.855 6.37224 18.855 4.72424ZM17.943 4.72424C17.943 6.92424 18.551 7.61224 19.639 7.61224C20.727 7.61224 21.335 6.92424 21.335 4.72424C21.335 2.52424 20.727 1.83624 19.639 1.83624C18.551 1.83624 17.943 2.52424 17.943 4.72424Z" fill="black"/>
<path d="M30.1241 203.215H480.125" stroke="black" stroke-width="0.389151"/>
<path d="M30.1241 203.216H480.125" stroke="#CCCCCC" stroke-width="0.389151"/>
<path d="M30.1241 163.819H480.125" stroke="#CCCCCC" stroke-width="0.389151"/>
<path d="M30.1241 124.423H480.125" stroke="#CCCCCC" stroke-width="0.389151"/>
<path d="M30.1241 85.0266H480.125" stroke="#CCCCCC" stroke-width="0.389151"/>
<path d="M30.1241 45.6301H480.125" stroke="#CCCCCC" stroke-width="0.389151"/>
<path d="M30.1241 6.23376H480.125" stroke="#CCCCCC" stroke-width="0.389151"/>
<path d="M1.00865 251.594H4.90865V250.634H2.14865V244.454H1.00865V251.594ZM9.252 249.044V248.474C9.252 246.974 8.852 246.074 7.352 246.074C5.662 246.074 5.362 247.574 5.362 248.984C5.362 251.474 6.452 251.734 7.332 251.734C8.502 251.734 9.222 250.984 9.222 249.794H8.202C8.202 250.114 8.112 250.994 7.342 250.994C6.532 250.994 6.442 250.074 6.442 249.354V249.044H9.252ZM6.442 248.304V248.194C6.442 247.494 6.652 246.814 7.342 246.814C7.952 246.814 8.172 247.334 8.172 248.014V248.304H6.442ZM10.4709 251.594H11.5509V247.014H12.4309V246.214H11.5509V245.744C11.5509 245.384 11.7309 245.234 12.1309 245.234H12.4309V244.404C12.2709 244.384 12.0709 244.374 11.8409 244.374C10.9609 244.374 10.4709 244.694 10.4709 245.714V246.214H9.72091V247.014H10.4709V251.594ZM12.4441 247.014H13.1841V250.354C13.1841 251.454 13.5441 251.654 14.2741 251.654C14.6141 251.654 14.9141 251.624 15.1441 251.564V250.764C15.0441 250.784 14.9141 250.794 14.7541 250.794C14.3841 250.794 14.2641 250.644 14.2641 250.224V247.014H15.1441V246.214H14.2641V244.684H13.1841V246.214H12.4441V247.014ZM20.7197 249.634C20.7197 250.444 20.4997 250.944 19.8997 250.934C19.1197 250.934 18.9797 250.094 18.9797 248.904C18.9797 247.714 19.1197 246.874 19.8997 246.874C20.5297 246.854 20.6697 247.504 20.6697 248.004H21.7497C21.7497 247.334 21.5097 246.054 19.8997 246.074C18.3397 246.074 17.8997 247.234 17.8997 248.904C17.8997 250.574 18.3397 251.734 19.8997 251.734C21.2297 251.734 21.6697 250.924 21.7397 249.634H20.7197ZM22.343 248.904C22.343 250.574 22.853 251.734 24.343 251.734C25.843 251.734 26.353 250.574 26.353 248.904C26.353 247.234 25.913 246.074 24.343 246.074C22.783 246.074 22.343 247.234 22.343 248.904ZM23.423 248.904C23.423 247.714 23.563 246.874 24.343 246.874C25.133 246.874 25.273 247.714 25.273 248.904C25.273 250.274 25.133 250.934 24.343 250.934C23.563 250.934 23.423 250.274 23.423 248.904ZM27.2319 251.594H28.3119V244.454H27.2319V251.594ZM32.1487 251.594H33.1687V246.214H32.0887V249.974C32.0887 250.574 31.6687 250.874 31.2087 250.874C30.7487 250.874 30.4787 250.674 30.4787 250.074V246.214H29.3987V249.974C29.3987 251.364 29.9387 251.734 30.7387 251.734C31.3387 251.734 31.8487 251.444 32.1187 250.964H32.1487V251.594ZM34.2632 251.594H35.3432V247.984C35.3432 247.284 35.7632 246.934 36.1932 246.934C36.6432 246.934 36.8532 247.204 36.8532 247.904V251.594H37.9332V247.984C37.9332 247.284 38.3532 246.934 38.7932 246.934C39.2332 246.934 39.4432 247.204 39.4432 247.904V251.594H40.5232V247.504C40.5232 246.464 39.9732 246.074 39.2132 246.074C38.5632 246.074 38.1632 246.374 37.8532 246.894C37.6932 246.444 37.3732 246.074 36.6032 246.074C36.0932 246.074 35.5832 246.364 35.3132 246.844H35.2832V246.214H34.2632V251.594ZM41.6155 251.594H42.6955V247.984C42.6955 247.284 43.1155 246.934 43.5555 246.934C44.0955 246.934 44.3055 247.204 44.3055 247.904V251.594H45.3855V247.534C45.3855 246.444 44.8655 246.074 44.0455 246.074C43.4455 246.074 42.9355 246.364 42.6655 246.844H42.6355V246.214H41.6155V251.594ZM46.54 247.794H47.68V246.474H46.54V247.794ZM46.54 251.594H47.68V250.274H46.54V251.594ZM50.9336 251.594H52.0736V248.494H53.0036C53.7836 248.494 54.0236 248.834 54.0436 249.614C54.0636 250.134 54.0536 250.534 54.0936 250.964C54.1236 251.244 54.1736 251.464 54.2836 251.594H55.5736C55.4236 251.494 55.2536 251.324 55.2336 250.974C55.2136 250.544 55.2036 249.984 55.1936 249.524C55.1536 248.524 54.7836 248.134 54.0736 248.064V248.044C54.8536 247.924 55.2636 247.214 55.2636 246.294C55.2636 244.954 54.4536 244.454 53.4536 244.454H50.9336V251.594ZM52.0736 247.634V245.314H53.0436C53.7936 245.314 54.1236 245.714 54.1236 246.474C54.1236 247.194 53.7136 247.634 52.9836 247.634H52.0736ZM59.9747 249.044V248.474C59.9747 246.974 59.5747 246.074 58.0747 246.074C56.3847 246.074 56.0847 247.574 56.0847 248.984C56.0847 251.474 57.1747 251.734 58.0547 251.734C59.2247 251.734 59.9447 250.984 59.9447 249.794H58.9247C58.9247 250.114 58.8347 250.994 58.0647 250.994C57.2547 250.994 57.1647 250.074 57.1647 249.354V249.044H59.9747ZM57.1647 248.304V248.194C57.1647 247.494 57.3747 246.814 58.0647 246.814C58.6747 246.814 58.8947 247.334 58.8947 248.014V248.304H57.1647ZM63.4736 249.634C63.4736 250.444 63.2536 250.944 62.6536 250.934C61.8736 250.934 61.7336 250.094 61.7336 248.904C61.7336 247.714 61.8736 246.874 62.6536 246.874C63.2836 246.854 63.4236 247.504 63.4236 248.004H64.5036C64.5036 247.334 64.2636 246.054 62.6536 246.074C61.0936 246.074 60.6536 247.234 60.6536 248.904C60.6536 250.574 61.0936 251.734 62.6536 251.734C63.9836 251.734 64.4236 250.924 64.4936 249.634H63.4736ZM69.0469 249.044V248.474C69.0469 246.974 68.6469 246.074 67.1469 246.074C65.4569 246.074 65.1569 247.574 65.1569 248.984C65.1569 251.474 66.2469 251.734 67.1269 251.734C68.2969 251.734 69.0169 250.984 69.0169 249.794H67.9969C67.9969 250.114 67.9069 250.994 67.1369 250.994C66.3269 250.994 66.2369 250.074 66.2369 249.354V249.044H69.0469ZM66.2369 248.304V248.194C66.2369 247.494 66.4469 246.814 67.1369 246.814C67.7469 246.814 67.9669 247.334 67.9669 248.014V248.304H66.2369ZM69.9858 251.594H71.0658V246.214H69.9858V251.594ZM69.9858 245.454H71.0658V244.374H69.9858V245.454ZM73.1426 251.594H74.4026L75.8226 246.214H74.6726L73.8226 250.454H73.8026L72.8626 246.214H71.7026L73.1426 251.594ZM80.1504 249.044V248.474C80.1504 246.974 79.7504 246.074 78.2504 246.074C76.5604 246.074 76.2604 247.574 76.2604 248.984C76.2604 251.474 77.3504 251.734 78.2304 251.734C79.4004 251.734 80.1204 250.984 80.1204 249.794H79.1004C79.1004 250.114 79.0104 250.994 78.2404 250.994C77.4304 250.994 77.3404 250.074 77.3404 249.354V249.044H80.1504ZM77.3404 248.304V248.194C77.3404 247.494 77.5504 246.814 78.2404 246.814C78.8504 246.814 79.0704 247.334 79.0704 248.014V248.304H77.3404ZM83.7893 251.594H84.8093V244.454H83.7293V246.844H83.7093C83.5093 246.364 83.0693 246.074 82.4893 246.074C81.6693 246.074 80.8293 246.444 80.8293 248.834C80.8293 250.684 81.3293 251.734 82.5893 251.734C83.3593 251.734 83.6293 251.284 83.7693 250.934H83.7893V251.594ZM83.7893 248.964C83.7893 250.114 83.6193 250.874 82.8793 250.874C82.1293 250.874 81.9693 250.104 81.9693 248.884C81.9693 247.434 82.1893 246.934 82.8093 246.934C83.6393 246.934 83.7893 247.674 83.7893 248.964ZM88.3261 251.594H89.4661V248.494H90.3961C91.1761 248.494 91.4161 248.834 91.4361 249.614C91.4561 250.134 91.4461 250.534 91.4861 250.964C91.5161 251.244 91.5661 251.464 91.6761 251.594H92.9661C92.8161 251.494 92.6461 251.324 92.6261 250.974C92.6061 250.544 92.5961 249.984 92.5861 249.524C92.5461 248.524 92.1761 248.134 91.4661 248.064V248.044C92.2461 247.924 92.6561 247.214 92.6561 246.294C92.6561 244.954 91.8461 244.454 90.8461 244.454H88.3261V251.594ZM89.4661 247.634V245.314H90.4361C91.1861 245.314 91.5161 245.714 91.5161 246.474C91.5161 247.194 91.1061 247.634 90.3761 247.634H89.4661ZM97.3672 249.044V248.474C97.3672 246.974 96.9672 246.074 95.4672 246.074C93.7772 246.074 93.4772 247.574 93.4772 248.984C93.4772 251.474 94.5672 251.734 95.4472 251.734C96.6172 251.734 97.3372 250.984 97.3372 249.794H96.3172C96.3172 250.114 96.2272 250.994 95.4572 250.994C94.6472 250.994 94.5572 250.074 94.5572 249.354V249.044H97.3672ZM94.5572 248.304V248.194C94.5572 247.494 94.7672 246.814 95.4572 246.814C96.0672 246.814 96.2872 247.334 96.2872 248.014V248.304H94.5572ZM100.946 253.354H102.026V246.214H101.006V246.874H100.986C100.846 246.524 100.576 246.074 99.8061 246.074C98.5461 246.074 98.0461 247.124 98.0461 248.974C98.0461 251.154 98.8561 251.734 99.6961 251.734C100.286 251.734 100.726 251.444 100.926 250.964H100.946V253.354ZM101.006 248.844C101.006 250.134 100.856 250.874 100.026 250.874C99.4761 250.874 99.1861 250.374 99.1861 248.924C99.1861 247.704 99.3461 246.934 100.096 246.934C100.836 246.934 101.006 247.694 101.006 248.844ZM105.821 251.594H106.841V246.214H105.761V249.974C105.761 250.574 105.341 250.874 104.881 250.874C104.421 250.874 104.151 250.674 104.151 250.074V246.214H103.071V249.974C103.071 251.364 103.611 251.734 104.411 251.734C105.011 251.734 105.521 251.444 105.791 250.964H105.821V251.594ZM111.625 249.044V248.474C111.625 246.974 111.225 246.074 109.725 246.074C108.035 246.074 107.735 247.574 107.735 248.984C107.735 251.474 108.825 251.734 109.705 251.734C110.875 251.734 111.595 250.984 111.595 249.794H110.575C110.575 250.114 110.485 250.994 109.715 250.994C108.905 250.994 108.815 250.074 108.815 249.354V249.044H111.625ZM108.815 248.304V248.194C108.815 247.494 109.025 246.814 109.715 246.814C110.325 246.814 110.545 247.334 110.545 248.014V248.304H108.815ZM115.854 247.784V247.544C115.854 246.874 115.544 246.074 114.174 246.074C113.064 246.074 112.334 246.544 112.334 247.554C112.334 248.414 112.674 248.824 113.484 249.104L114.364 249.414C114.744 249.544 114.954 249.804 114.954 250.204C114.954 250.694 114.664 250.994 114.074 250.994C113.454 250.994 113.234 250.654 113.234 250.034V249.864H112.274V250.064C112.274 251.104 112.684 251.734 114.044 251.734C115.134 251.734 115.974 251.244 115.974 250.094C115.974 249.244 115.604 248.814 114.804 248.544L114.114 248.304C113.544 248.104 113.354 247.934 113.354 247.514C113.354 247.014 113.694 246.814 114.124 246.814C114.684 246.814 114.834 247.214 114.834 247.644V247.784H115.854ZM116.292 247.014H117.032V250.354C117.032 251.454 117.392 251.654 118.122 251.654C118.462 251.654 118.762 251.624 118.992 251.564V250.764C118.892 250.784 118.762 250.794 118.602 250.794C118.232 250.794 118.112 250.644 118.112 250.224V247.014H118.992V246.214H118.112V244.684H117.032V246.214H116.292V247.014ZM122.895 247.784V247.544C122.895 246.874 122.585 246.074 121.215 246.074C120.105 246.074 119.375 246.544 119.375 247.554C119.375 248.414 119.715 248.824 120.525 249.104L121.405 249.414C121.785 249.544 121.995 249.804 121.995 250.204C121.995 250.694 121.705 250.994 121.115 250.994C120.495 250.994 120.275 250.654 120.275 250.034V249.864H119.315V250.064C119.315 251.104 119.725 251.734 121.085 251.734C122.175 251.734 123.015 251.244 123.015 250.094C123.015 249.244 122.645 248.814 121.845 248.544L121.155 248.304C120.585 248.104 120.395 247.934 120.395 247.514C120.395 247.014 120.735 246.814 121.165 246.814C121.725 246.814 121.875 247.214 121.875 247.644V247.784H122.895Z" fill="black"/>
<path d="M1.13865 297.638H2.27865V294.538H3.20865C3.98865 294.538 4.22865 294.878 4.24865 295.658C4.26865 296.178 4.25865 296.578 4.29865 297.008C4.32865 297.288 4.37865 297.508 4.48865 297.638H5.77865C5.62865 297.538 5.45865 297.368 5.43865 297.018C5.41865 296.588 5.40865 296.028 5.39865 295.568C5.35865 294.568 4.98865 294.178 4.27865 294.108V294.088C5.05865 293.968 5.46865 293.258 5.46865 292.338C5.46865 290.998 4.65865 290.498 3.65865 290.498H1.13865V297.638ZM2.27865 293.678V291.358H3.24865C3.99865 291.358 4.32865 291.758 4.32865 292.518C4.32865 293.238 3.91865 293.678 3.18865 293.678H2.27865ZM6.48974 297.638H7.56974V292.258H6.48974V297.638ZM6.48974 291.498H7.56974V290.418H6.48974V291.498ZM8.71654 298.098C8.71654 298.538 8.89654 299.478 10.4965 299.478C11.9465 299.478 12.5065 298.688 12.5065 297.378V292.258H11.4865V292.918H11.4665C11.3665 292.528 10.9165 292.118 10.2865 292.118C8.75654 292.118 8.57654 293.708 8.57654 294.888C8.57654 296.358 8.92654 297.598 10.1865 297.598C10.7065 297.598 11.2065 297.328 11.4065 296.858H11.4265V297.728C11.4265 298.348 11.0765 298.738 10.5165 298.738C10.0365 298.738 9.73654 298.428 9.73654 298.098H8.71654ZM9.65654 294.778C9.65654 293.778 9.78654 292.978 10.5665 292.978C11.3165 292.978 11.4265 293.948 11.4265 294.828C11.4265 295.678 11.3365 296.738 10.4965 296.738C9.69654 296.738 9.65654 295.698 9.65654 294.778ZM13.471 297.638H14.551V294.028C14.551 293.328 14.971 292.978 15.411 292.978C15.951 292.978 16.161 293.248 16.161 293.948V297.638H17.241V293.578C17.241 292.488 16.721 292.118 15.901 292.118C15.351 292.118 14.881 292.398 14.581 292.858L14.551 292.838V290.498H13.471V297.638ZM17.8054 293.058H18.5454V296.398C18.5454 297.498 18.9054 297.698 19.6354 297.698C19.9754 297.698 20.2754 297.668 20.5054 297.608V296.808C20.4054 296.828 20.2754 296.838 20.1154 296.838C19.7454 296.838 19.6254 296.688 19.6254 296.268V293.058H20.5054V292.258H19.6254V290.728H18.5454V292.258H17.8054V293.058ZM26.081 295.678C26.081 296.488 25.861 296.988 25.261 296.978C24.481 296.978 24.341 296.138 24.341 294.948C24.341 293.758 24.481 292.918 25.261 292.918C25.891 292.898 26.031 293.548 26.031 294.048H27.111C27.111 293.378 26.871 292.098 25.261 292.118C23.701 292.118 23.261 293.278 23.261 294.948C23.261 296.618 23.701 297.778 25.261 297.778C26.591 297.778 27.031 296.968 27.101 295.678H26.081ZM27.7043 294.948C27.7043 296.618 28.2143 297.778 29.7043 297.778C31.2043 297.778 31.7143 296.618 31.7143 294.948C31.7143 293.278 31.2743 292.118 29.7043 292.118C28.1443 292.118 27.7043 293.278 27.7043 294.948ZM28.7843 294.948C28.7843 293.758 28.9243 292.918 29.7043 292.918C30.4943 292.918 30.6343 293.758 30.6343 294.948C30.6343 296.318 30.4943 296.978 29.7043 296.978C28.9243 296.978 28.7843 296.318 28.7843 294.948ZM32.5933 297.638H33.6733V290.498H32.5933V297.638ZM37.5101 297.638H38.5301V292.258H37.4501V296.018C37.4501 296.618 37.0301 296.918 36.5701 296.918C36.1101 296.918 35.8401 296.718 35.8401 296.118V292.258H34.7601V296.018C34.7601 297.408 35.3001 297.778 36.1001 297.778C36.7001 297.778 37.2101 297.488 37.4801 297.008H37.5101V297.638ZM39.6245 297.638H40.7045V294.028C40.7045 293.328 41.1245 292.978 41.5545 292.978C42.0045 292.978 42.2145 293.248 42.2145 293.948V297.638H43.2945V294.028C43.2945 293.328 43.7145 292.978 44.1545 292.978C44.5945 292.978 44.8045 293.248 44.8045 293.948V297.638H45.8845V293.548C45.8845 292.508 45.3345 292.118 44.5745 292.118C43.9245 292.118 43.5245 292.418 43.2145 292.938C43.0545 292.488 42.7345 292.118 41.9645 292.118C41.4545 292.118 40.9445 292.408 40.6745 292.888H40.6445V292.258H39.6245V297.638ZM46.9768 297.638H48.0568V294.028C48.0568 293.328 48.4768 292.978 48.9168 292.978C49.4568 292.978 49.6668 293.248 49.6668 293.948V297.638H50.7468V293.578C50.7468 292.488 50.2268 292.118 49.4068 292.118C48.8068 292.118 48.2968 292.408 48.0268 292.888H47.9968V292.258H46.9768V297.638ZM51.9013 293.838H53.0413V292.518H51.9013V293.838ZM51.9013 297.638H53.0413V296.318H51.9013V297.638ZM59.5449 295.078V295.198C59.5449 295.858 59.4349 296.918 58.4849 296.918C57.6449 296.918 57.2649 296.338 57.2649 294.038C57.2649 291.738 57.6449 291.218 58.4849 291.218C59.3049 291.188 59.5049 291.948 59.5049 292.608V292.728H60.6449V292.598C60.6449 291.858 60.5249 290.358 58.4949 290.358C56.6849 290.358 56.1249 291.518 56.1249 294.068C56.1249 296.618 56.6849 297.778 58.4849 297.778C60.1649 297.778 60.6849 296.518 60.6849 295.228V295.078H59.5449ZM61.2004 294.948C61.2004 296.618 61.7104 297.778 63.2004 297.778C64.7004 297.778 65.2104 296.618 65.2104 294.948C65.2104 293.278 64.7704 292.118 63.2004 292.118C61.6404 292.118 61.2004 293.278 61.2004 294.948ZM62.2804 294.948C62.2804 293.758 62.4204 292.918 63.2004 292.918C63.9904 292.918 64.1304 293.758 64.1304 294.948C64.1304 296.318 63.9904 296.978 63.2004 296.978C62.4204 296.978 62.2804 296.318 62.2804 294.948ZM66.0893 297.638H67.1693V294.028C67.1693 293.328 67.5893 292.978 68.0193 292.978C68.4693 292.978 68.6793 293.248 68.6793 293.948V297.638H69.7593V294.028C69.7593 293.328 70.1793 292.978 70.6193 292.978C71.0593 292.978 71.2693 293.248 71.2693 293.948V297.638H72.3493V293.548C72.3493 292.508 71.7993 292.118 71.0393 292.118C70.3893 292.118 69.9893 292.418 69.6793 292.938C69.5193 292.488 69.1993 292.118 68.4293 292.118C67.9193 292.118 67.4093 292.408 67.1393 292.888H67.1093V292.258H66.0893V297.638ZM73.4417 299.398H74.5217V297.008H74.5417C74.7417 297.488 75.1817 297.778 75.7617 297.778C76.5017 297.778 77.4217 297.278 77.4217 295.018C77.4217 293.168 76.9217 292.118 75.6917 292.118C75.1017 292.118 74.7017 292.438 74.4817 292.918H74.4617V292.258H73.4417V299.398ZM74.4617 294.888C74.4617 293.738 74.6317 292.978 75.3717 292.978C76.1217 292.978 76.2817 293.748 76.2817 294.968C76.2817 296.458 76.0017 296.918 75.3817 296.918C74.6217 296.918 74.4617 296.178 74.4617 294.888ZM78.3061 297.638H79.3861V292.258H78.3061V297.638ZM78.3061 291.498H79.3861V290.418H78.3061V291.498ZM80.5229 297.638H81.6029V290.498H80.5229V297.638ZM86.4297 295.088V294.518C86.4297 293.018 86.0297 292.118 84.5297 292.118C82.8397 292.118 82.5397 293.618 82.5397 295.028C82.5397 297.518 83.6297 297.778 84.5097 297.778C85.6797 297.778 86.3997 297.028 86.3997 295.838H85.3797C85.3797 296.158 85.2897 297.038 84.5197 297.038C83.7097 297.038 83.6197 296.118 83.6197 295.398V295.088H86.4297ZM83.6197 294.348V294.238C83.6197 293.538 83.8297 292.858 84.5197 292.858C85.1297 292.858 85.3497 293.378 85.3497 294.058V294.348H83.6197ZM90.0686 297.638H91.0886V290.498H90.0086V292.888H89.9886C89.7886 292.408 89.3486 292.118 88.7686 292.118C87.9486 292.118 87.1086 292.488 87.1086 294.878C87.1086 296.728 87.6086 297.778 88.8686 297.778C89.6386 297.778 89.9086 297.328 90.0486 296.978H90.0686V297.638ZM90.0686 295.008C90.0686 296.158 89.8986 296.918 89.1586 296.918C88.4086 296.918 88.2486 296.148 88.2486 294.928C88.2486 293.478 88.4686 292.978 89.0886 292.978C89.9186 292.978 90.0686 293.718 90.0686 295.008ZM94.6054 297.638H95.7454V294.538H96.6754C97.4554 294.538 97.6954 294.878 97.7154 295.658C97.7354 296.178 97.7254 296.578 97.7654 297.008C97.7954 297.288 97.8454 297.508 97.9554 297.638H99.2454C99.0954 297.538 98.9254 297.368 98.9054 297.018C98.8854 296.588 98.8754 296.028 98.8654 295.568C98.8254 294.568 98.4554 294.178 97.7454 294.108V294.088C98.5254 293.968 98.9354 293.258 98.9354 292.338C98.9354 290.998 98.1254 290.498 97.1254 290.498H94.6054V297.638ZM95.7454 293.678V291.358H96.7154C97.4654 291.358 97.7954 291.758 97.7954 292.518C97.7954 293.238 97.3854 293.678 96.6554 293.678H95.7454ZM103.647 295.088V294.518C103.647 293.018 103.247 292.118 101.747 292.118C100.057 292.118 99.7565 293.618 99.7565 295.028C99.7565 297.518 100.847 297.778 101.727 297.778C102.897 297.778 103.617 297.028 103.617 295.838H102.597C102.597 296.158 102.507 297.038 101.737 297.038C100.927 297.038 100.837 296.118 100.837 295.398V295.088H103.647ZM100.837 294.348V294.238C100.837 293.538 101.047 292.858 101.737 292.858C102.347 292.858 102.567 293.378 102.567 294.058V294.348H100.837ZM107.225 299.398H108.305V292.258H107.285V292.918H107.265C107.125 292.568 106.855 292.118 106.085 292.118C104.825 292.118 104.325 293.168 104.325 295.018C104.325 297.198 105.135 297.778 105.975 297.778C106.565 297.778 107.005 297.488 107.205 297.008H107.225V299.398ZM107.285 294.888C107.285 296.178 107.135 296.918 106.305 296.918C105.755 296.918 105.465 296.418 105.465 294.968C105.465 293.748 105.625 292.978 106.375 292.978C107.115 292.978 107.285 293.738 107.285 294.888ZM112.1 297.638H113.12V292.258H112.04V296.018C112.04 296.618 111.62 296.918 111.16 296.918C110.7 296.918 110.43 296.718 110.43 296.118V292.258H109.35V296.018C109.35 297.408 109.89 297.778 110.69 297.778C111.29 297.778 111.8 297.488 112.07 297.008H112.1V297.638ZM117.904 295.088V294.518C117.904 293.018 117.504 292.118 116.004 292.118C114.314 292.118 114.014 293.618 114.014 295.028C114.014 297.518 115.104 297.778 115.984 297.778C117.154 297.778 117.874 297.028 117.874 295.838H116.854C116.854 296.158 116.764 297.038 115.994 297.038C115.184 297.038 115.094 296.118 115.094 295.398V295.088H117.904ZM115.094 294.348V294.238C115.094 293.538 115.304 292.858 115.994 292.858C116.604 292.858 116.824 293.378 116.824 294.058V294.348H115.094ZM122.133 293.828V293.588C122.133 292.918 121.823 292.118 120.453 292.118C119.343 292.118 118.613 292.588 118.613 293.598C118.613 294.458 118.953 294.868 119.763 295.148L120.643 295.458C121.023 295.588 121.233 295.848 121.233 296.248C121.233 296.738 120.943 297.038 120.353 297.038C119.733 297.038 119.513 296.698 119.513 296.078V295.908H118.553V296.108C118.553 297.148 118.963 297.778 120.323 297.778C121.413 297.778 122.253 297.288 122.253 296.138C122.253 295.288 121.883 294.858 121.083 294.588L120.393 294.348C119.823 294.148 119.633 293.978 119.633 293.558C119.633 293.058 119.973 292.858 120.403 292.858C120.963 292.858 121.113 293.258 121.113 293.688V293.828H122.133ZM122.571 293.058H123.311V296.398C123.311 297.498 123.671 297.698 124.401 297.698C124.741 297.698 125.041 297.668 125.271 297.608V296.808C125.171 296.828 125.041 296.838 124.881 296.838C124.511 296.838 124.391 296.688 124.391 296.268V293.058H125.271V292.258H124.391V290.728H123.311V292.258H122.571V293.058ZM129.174 293.828V293.588C129.174 292.918 128.864 292.118 127.494 292.118C126.384 292.118 125.654 292.588 125.654 293.598C125.654 294.458 125.994 294.868 126.804 295.148L127.684 295.458C128.064 295.588 128.274 295.848 128.274 296.248C128.274 296.738 127.984 297.038 127.394 297.038C126.774 297.038 126.554 296.698 126.554 296.078V295.908H125.594V296.108C125.594 297.148 126.004 297.778 127.364 297.778C128.454 297.778 129.294 297.288 129.294 296.138C129.294 295.288 128.924 294.858 128.124 294.588L127.434 294.348C126.864 294.148 126.674 293.978 126.674 293.558C126.674 293.058 127.014 292.858 127.444 292.858C128.004 292.858 128.154 293.258 128.154 293.688V293.828H129.174Z" fill="black"/>
<rect x="71.6579" y="308.135" width="8.1272" height="8.1272" fill="#FFDA79"/>
<path d="M86.8087 315.622H87.6887V312.282H90.3387V311.502H87.6887V309.262H90.4987V308.482H86.8087V315.622ZM91.0963 315.622H91.9363V310.262H91.0963V315.622ZM91.0963 309.442H91.9363V308.482H91.0963V309.442ZM93.0873 315.622H93.9273V311.922C93.9273 311.142 94.5373 310.842 94.9873 310.842C95.7473 310.842 95.7773 311.512 95.7773 311.922V315.622H96.6173V311.822C96.6173 311.192 96.6173 310.122 95.2073 310.122C94.6873 310.122 94.1273 310.402 93.9073 310.892H93.8873V310.262H93.0873V315.622ZM98.4262 311.882V311.832C98.4262 311.642 98.4262 310.782 99.3462 310.782C99.9062 310.782 100.206 311.072 100.206 311.572C100.206 312.022 100.206 312.192 99.5962 312.382L98.4662 312.722C97.7762 312.932 97.4562 313.452 97.4562 314.202C97.4562 315.162 97.9162 315.762 98.9162 315.762C99.4162 315.762 99.9362 315.472 100.206 314.992H100.226C100.266 315.682 100.666 315.682 100.986 315.682C101.196 315.682 101.416 315.642 101.476 315.632V315.032C101.436 315.062 101.386 315.082 101.276 315.082C101.016 315.082 101.016 314.872 101.016 314.652V311.662C101.016 311.102 101.016 310.122 99.3862 310.122C98.1062 310.122 97.5862 310.662 97.5862 311.882H98.4262ZM100.176 314.082C100.176 314.632 99.6462 315.102 99.0962 315.102C98.5262 315.102 98.3362 314.722 98.3362 314.182C98.3362 313.712 98.4762 313.502 98.7462 313.332C99.1262 313.102 99.8662 313.032 100.176 312.702V314.082ZM102.16 315.622H103V311.922C103 311.142 103.61 310.842 104.06 310.842C104.82 310.842 104.85 311.512 104.85 311.922V315.622H105.69V311.822C105.69 311.192 105.69 310.122 104.28 310.122C103.76 310.122 103.2 310.402 102.98 310.892H102.96V310.262H102.16V315.622ZM110.178 311.892C110.178 311.272 109.928 310.122 108.468 310.122C106.818 310.122 106.558 311.672 106.558 313.012C106.558 314.852 107.108 315.762 108.418 315.762C109.758 315.762 110.178 314.612 110.178 313.762H109.338C109.338 314.342 109.178 315.102 108.458 315.102C107.448 315.102 107.438 313.702 107.438 313.002C107.438 311.042 107.968 310.782 108.488 310.782C109.128 310.782 109.338 311.372 109.338 311.892H110.178ZM111.096 315.622H111.936V310.262H111.096V315.622ZM111.096 309.442H111.936V308.482H111.096V309.442ZM113.797 311.882V311.832C113.797 311.642 113.797 310.782 114.717 310.782C115.277 310.782 115.577 311.072 115.577 311.572C115.577 312.022 115.577 312.192 114.967 312.382L113.837 312.722C113.147 312.932 112.827 313.452 112.827 314.202C112.827 315.162 113.287 315.762 114.287 315.762C114.787 315.762 115.307 315.472 115.577 314.992H115.597C115.637 315.682 116.037 315.682 116.357 315.682C116.567 315.682 116.787 315.642 116.847 315.632V315.032C116.807 315.062 116.757 315.082 116.647 315.082C116.387 315.082 116.387 314.872 116.387 314.652V311.662C116.387 311.102 116.387 310.122 114.757 310.122C113.477 310.122 112.957 310.662 112.957 311.882H113.797ZM115.547 314.082C115.547 314.632 115.017 315.102 114.467 315.102C113.897 315.102 113.707 314.722 113.707 314.182C113.707 313.712 113.847 313.502 114.117 313.332C114.497 313.102 115.237 313.032 115.547 312.702V314.082ZM117.581 315.622H118.421V308.482H117.581V315.622ZM122.004 315.622H122.884V308.482H122.004V315.622ZM124.695 312.942C124.695 311.662 124.895 310.842 125.675 310.842C126.575 310.842 126.755 311.902 126.755 312.942C126.755 314.162 126.605 315.042 125.675 315.042C124.895 315.042 124.695 314.222 124.695 312.942ZM127.545 308.482H126.705V310.872H126.685C126.495 310.412 125.985 310.122 125.505 310.122C123.995 310.122 123.815 311.822 123.815 312.942C123.815 314.632 124.295 315.762 125.565 315.762C126.145 315.762 126.615 315.362 126.725 314.962H126.745V315.622H127.545V308.482ZM129.374 312.382V312.182C129.374 311.862 129.474 310.782 130.354 310.782C131.094 310.782 131.284 311.492 131.284 312.092V312.382H129.374ZM132.164 313.042V312.702C132.164 311.552 132.014 310.122 130.374 310.122C128.724 310.122 128.464 311.672 128.464 313.012C128.464 314.852 129.014 315.762 130.324 315.762C131.784 315.762 132.124 314.432 132.124 313.862H131.284C131.284 314.262 131.174 315.102 130.374 315.102C129.344 315.102 129.344 313.862 129.344 313.042H132.164ZM133.087 315.622H133.927V311.922C133.927 311.142 134.537 310.842 134.987 310.842C135.747 310.842 135.777 311.512 135.777 311.922V315.622H136.617V311.822C136.617 311.192 136.617 310.122 135.207 310.122C134.687 310.122 134.127 310.402 133.907 310.892H133.887V310.262H133.087V315.622ZM137.966 310.262H137.186V310.922H137.966V314.622C137.966 315.322 138.176 315.682 139.046 315.682C139.396 315.682 139.616 315.642 139.726 315.622V314.932C139.636 314.942 139.536 314.962 139.356 314.962C138.916 314.962 138.806 314.792 138.806 314.362V310.922H139.736V310.262H138.806V308.702H137.966V310.262ZM140.354 315.622H141.194V310.262H140.354V315.622ZM140.354 309.442H141.194V308.482H140.354V309.442ZM142.595 315.622H143.435V310.922H144.355V310.262H143.435V309.632C143.435 309.262 143.615 309.122 143.975 309.122H144.365V308.402H143.755C142.945 308.402 142.595 308.822 142.595 309.632V310.262H141.815V310.922H142.595V315.622ZM144.985 315.622H145.825V310.262H144.985V315.622ZM144.985 309.442H145.825V308.482H144.985V309.442ZM147.704 312.382V312.182C147.704 311.862 147.804 310.782 148.684 310.782C149.424 310.782 149.614 311.492 149.614 312.092V312.382H147.704ZM150.494 313.042V312.702C150.494 311.552 150.344 310.122 148.704 310.122C147.054 310.122 146.794 311.672 146.794 313.012C146.794 314.852 147.344 315.762 148.654 315.762C150.114 315.762 150.454 314.432 150.454 313.862H149.614C149.614 314.262 149.504 315.102 148.704 315.102C147.674 315.102 147.674 313.862 147.674 313.042H150.494ZM151.417 315.622H152.257V312.232C152.257 311.342 152.937 310.962 153.357 310.962C153.627 310.962 153.727 310.992 153.807 311.002V310.182C153.727 310.142 153.607 310.122 153.437 310.122C152.837 310.122 152.517 310.552 152.277 311.062H152.257V310.262H151.417V315.622Z" fill="black"/>
<rect x="182.996" y="308.135" width="8.1272" height="8.1272" fill="#CECECE"/>
<path d="M197.487 315.622H198.407L198.937 313.662H201.217L201.727 315.622H202.647L200.727 308.482H199.547L197.487 315.622ZM200.107 309.492H200.127L201.037 312.942H199.117L200.107 309.492ZM206.507 311.892C206.507 311.272 206.257 310.122 204.797 310.122C203.147 310.122 202.887 311.672 202.887 313.012C202.887 314.852 203.437 315.762 204.747 315.762C206.087 315.762 206.507 314.612 206.507 313.762H205.667C205.667 314.342 205.507 315.102 204.787 315.102C203.777 315.102 203.767 313.702 203.767 313.002C203.767 311.042 204.297 310.782 204.817 310.782C205.457 310.782 205.667 311.372 205.667 311.892H206.507ZM210.764 311.892C210.764 311.272 210.514 310.122 209.054 310.122C207.404 310.122 207.144 311.672 207.144 313.012C207.144 314.852 207.694 315.762 209.004 315.762C210.344 315.762 210.764 314.612 210.764 313.762H209.924C209.924 314.342 209.764 315.102 209.044 315.102C208.034 315.102 208.024 313.702 208.024 313.002C208.024 311.042 208.554 310.782 209.074 310.782C209.714 310.782 209.924 311.372 209.924 311.892H210.764ZM211.372 312.942C211.372 314.452 211.752 315.762 213.302 315.762C214.842 315.762 215.232 314.452 215.232 312.942C215.232 311.432 214.852 310.122 213.302 310.122C211.762 310.122 211.372 311.432 211.372 312.942ZM213.282 315.102C212.422 315.102 212.252 314.102 212.252 312.942C212.252 311.782 212.432 310.782 213.282 310.782C214.182 310.782 214.352 311.782 214.352 312.942C214.352 314.102 214.172 315.102 213.282 315.102ZM219.606 310.262H218.766V313.962C218.766 314.742 218.156 315.042 217.706 315.042C216.946 315.042 216.916 314.372 216.916 313.962V310.262H216.076V314.062C216.076 314.692 216.076 315.762 217.486 315.762C218.006 315.762 218.566 315.482 218.786 314.992H218.806V315.622H219.606V310.262ZM220.705 315.622H221.545V311.922C221.545 311.142 222.155 310.842 222.605 310.842C223.365 310.842 223.395 311.512 223.395 311.922V315.622H224.235V311.822C224.235 311.192 224.235 310.122 222.825 310.122C222.305 310.122 221.745 310.402 221.525 310.892H221.505V310.262H220.705V315.622ZM225.583 310.262H224.803V310.922H225.583V314.622C225.583 315.322 225.793 315.682 226.663 315.682C227.013 315.682 227.233 315.642 227.343 315.622V314.932C227.253 314.942 227.153 314.962 226.973 314.962C226.533 314.962 226.423 314.792 226.423 314.362V310.922H227.353V310.262H226.423V308.702H225.583V310.262Z" fill="black"/>
<rect x="258.033" y="308.135" width="8.1272" height="8.1272" fill="#4FFF75"/>
<path d="M273.184 315.622H276.994V314.842H274.064V312.282H276.714V311.502H274.064V309.262H276.874V308.482H273.184V315.622ZM277.863 315.622H278.703V311.922C278.703 311.082 279.313 310.842 279.703 310.842C280.393 310.842 280.423 311.512 280.423 311.922V315.622H281.263V311.922C281.263 311.082 281.873 310.842 282.263 310.842C282.953 310.842 282.983 311.512 282.983 311.922V315.622H283.823V311.822C283.823 311.192 283.823 310.122 282.413 310.122C281.863 310.122 281.383 310.502 281.143 310.972C280.973 310.362 280.603 310.122 279.983 310.122C279.463 310.122 278.903 310.402 278.683 310.892H278.663V310.262H277.863V315.622ZM285.73 312.382V312.182C285.73 311.862 285.83 310.782 286.71 310.782C287.45 310.782 287.64 311.492 287.64 312.092V312.382H285.73ZM288.52 313.042V312.702C288.52 311.552 288.37 310.122 286.73 310.122C285.08 310.122 284.82 311.672 284.82 313.012C284.82 314.852 285.37 315.762 286.68 315.762C288.14 315.762 288.48 314.432 288.48 313.862H287.64C287.64 314.262 287.53 315.102 286.73 315.102C285.7 315.102 285.7 313.862 285.7 313.042H288.52ZM289.443 315.622H290.283V312.232C290.283 311.342 290.963 310.962 291.383 310.962C291.653 310.962 291.753 310.992 291.833 311.002V310.182C291.753 310.142 291.633 310.122 291.463 310.122C290.863 310.122 290.543 310.552 290.303 311.062H290.283V310.262H289.443V315.622ZM294.062 310.842C294.962 310.842 295.142 311.902 295.142 312.942C295.142 314.042 294.962 314.902 294.052 314.902C293.212 314.902 293.082 313.812 293.082 312.942C293.082 311.662 293.282 310.842 294.062 310.842ZM295.932 310.262H295.132V310.942H295.112C295.002 310.522 294.532 310.122 293.952 310.122C292.592 310.122 292.202 311.492 292.202 312.942C292.202 313.652 292.302 315.622 293.862 315.622C294.392 315.622 294.892 315.352 295.072 314.902H295.092V315.602C295.092 315.972 295.132 316.802 294.052 316.802C293.612 316.802 293.232 316.612 293.192 316.122H292.352C292.492 317.462 293.782 317.462 294.112 317.462C295.192 317.462 295.932 316.882 295.932 315.282V310.262ZM297.761 312.382V312.182C297.761 311.862 297.861 310.782 298.741 310.782C299.481 310.782 299.671 311.492 299.671 312.092V312.382H297.761ZM300.551 313.042V312.702C300.551 311.552 300.401 310.122 298.761 310.122C297.111 310.122 296.851 311.672 296.851 313.012C296.851 314.852 297.401 315.762 298.711 315.762C300.171 315.762 300.511 314.432 300.511 313.862H299.671C299.671 314.262 299.561 315.102 298.761 315.102C297.731 315.102 297.731 313.862 297.731 313.042H300.551ZM301.474 315.622H302.314V311.922C302.314 311.142 302.924 310.842 303.374 310.842C304.134 310.842 304.164 311.512 304.164 311.922V315.622H305.004V311.822C305.004 311.192 305.004 310.122 303.594 310.122C303.074 310.122 302.514 310.402 302.294 310.892H302.274V310.262H301.474V315.622ZM309.493 311.892C309.493 311.272 309.243 310.122 307.783 310.122C306.133 310.122 305.873 311.672 305.873 313.012C305.873 314.852 306.423 315.762 307.733 315.762C309.073 315.762 309.493 314.612 309.493 313.762H308.653C308.653 314.342 308.493 315.102 307.773 315.102C306.763 315.102 306.753 313.702 306.753 313.002C306.753 311.042 307.283 310.782 307.803 310.782C308.443 310.782 308.653 311.372 308.653 311.892H309.493ZM311.296 315.732L311.136 316.202C311.036 316.492 310.866 316.722 310.476 316.722C310.266 316.722 310.106 316.712 309.986 316.692V317.352C310.126 317.362 310.266 317.382 310.596 317.382C311.606 317.382 311.826 316.722 312.026 315.982L313.576 310.262H312.656L311.716 314.562H311.696L310.636 310.262H309.716L311.296 315.732Z" fill="black"/>
<rect x="71.6579" y="262.09" width="8.1272" height="8.1272" fill="#ED821F"/>
<path d="M86.8087 269.578H87.6887V266.238H90.3387V265.458H87.6887V263.218H90.4987V262.438H86.8087V269.578ZM91.0963 269.578H91.9363V264.218H91.0963V269.578ZM91.0963 263.398H91.9363V262.438H91.0963V263.398ZM93.0873 269.578H93.9273V265.878C93.9273 265.098 94.5373 264.798 94.9873 264.798C95.7473 264.798 95.7773 265.468 95.7773 265.878V269.578H96.6173V265.778C96.6173 265.148 96.6173 264.078 95.2073 264.078C94.6873 264.078 94.1273 264.358 93.9073 264.848H93.8873V264.218H93.0873V269.578ZM98.4262 265.838V265.788C98.4262 265.598 98.4262 264.738 99.3462 264.738C99.9062 264.738 100.206 265.028 100.206 265.528C100.206 265.978 100.206 266.148 99.5962 266.338L98.4662 266.678C97.7762 266.888 97.4562 267.408 97.4562 268.158C97.4562 269.118 97.9162 269.718 98.9162 269.718C99.4162 269.718 99.9362 269.428 100.206 268.948H100.226C100.266 269.638 100.666 269.638 100.986 269.638C101.196 269.638 101.416 269.598 101.476 269.588V268.988C101.436 269.018 101.386 269.038 101.276 269.038C101.016 269.038 101.016 268.828 101.016 268.608V265.618C101.016 265.058 101.016 264.078 99.3862 264.078C98.1062 264.078 97.5862 264.618 97.5862 265.838H98.4262ZM100.176 268.038C100.176 268.588 99.6462 269.058 99.0962 269.058C98.5262 269.058 98.3362 268.678 98.3362 268.138C98.3362 267.668 98.4762 267.458 98.7462 267.288C99.1262 267.058 99.8662 266.988 100.176 266.658V268.038ZM102.16 269.578H103V265.878C103 265.098 103.61 264.798 104.06 264.798C104.82 264.798 104.85 265.468 104.85 265.878V269.578H105.69V265.778C105.69 265.148 105.69 264.078 104.28 264.078C103.76 264.078 103.2 264.358 102.98 264.848H102.96V264.218H102.16V269.578ZM110.178 265.848C110.178 265.228 109.928 264.078 108.468 264.078C106.818 264.078 106.558 265.628 106.558 266.968C106.558 268.808 107.108 269.718 108.418 269.718C109.758 269.718 110.178 268.568 110.178 267.718H109.338C109.338 268.298 109.178 269.058 108.458 269.058C107.448 269.058 107.438 267.658 107.438 266.958C107.438 264.998 107.968 264.738 108.488 264.738C109.128 264.738 109.338 265.328 109.338 265.848H110.178ZM111.096 269.578H111.936V264.218H111.096V269.578ZM111.096 263.398H111.936V262.438H111.096V263.398ZM113.797 265.838V265.788C113.797 265.598 113.797 264.738 114.717 264.738C115.277 264.738 115.577 265.028 115.577 265.528C115.577 265.978 115.577 266.148 114.967 266.338L113.837 266.678C113.147 266.888 112.827 267.408 112.827 268.158C112.827 269.118 113.287 269.718 114.287 269.718C114.787 269.718 115.307 269.428 115.577 268.948H115.597C115.637 269.638 116.037 269.638 116.357 269.638C116.567 269.638 116.787 269.598 116.847 269.588V268.988C116.807 269.018 116.757 269.038 116.647 269.038C116.387 269.038 116.387 268.828 116.387 268.608V265.618C116.387 265.058 116.387 264.078 114.757 264.078C113.477 264.078 112.957 264.618 112.957 265.838H113.797ZM115.547 268.038C115.547 268.588 115.017 269.058 114.467 269.058C113.897 269.058 113.707 268.678 113.707 268.138C113.707 267.668 113.847 267.458 114.117 267.288C114.497 267.058 115.237 266.988 115.547 266.658V268.038ZM117.581 269.578H118.421V262.438H117.581V269.578ZM122.004 269.578H122.884V262.438H122.004V269.578ZM124.695 266.898C124.695 265.618 124.895 264.798 125.675 264.798C126.575 264.798 126.755 265.858 126.755 266.898C126.755 268.118 126.605 268.998 125.675 268.998C124.895 268.998 124.695 268.178 124.695 266.898ZM127.545 262.438H126.705V264.828H126.685C126.495 264.368 125.985 264.078 125.505 264.078C123.995 264.078 123.815 265.778 123.815 266.898C123.815 268.588 124.295 269.718 125.565 269.718C126.145 269.718 126.615 269.318 126.725 268.918H126.745V269.578H127.545V262.438ZM129.374 266.338V266.138C129.374 265.818 129.474 264.738 130.354 264.738C131.094 264.738 131.284 265.448 131.284 266.048V266.338H129.374ZM132.164 266.998V266.658C132.164 265.508 132.014 264.078 130.374 264.078C128.724 264.078 128.464 265.628 128.464 266.968C128.464 268.808 129.014 269.718 130.324 269.718C131.784 269.718 132.124 268.388 132.124 267.818H131.284C131.284 268.218 131.174 269.058 130.374 269.058C129.344 269.058 129.344 267.818 129.344 266.998H132.164ZM133.087 269.578H133.927V265.878C133.927 265.098 134.537 264.798 134.987 264.798C135.747 264.798 135.777 265.468 135.777 265.878V269.578H136.617V265.778C136.617 265.148 136.617 264.078 135.207 264.078C134.687 264.078 134.127 264.358 133.907 264.848H133.887V264.218H133.087V269.578ZM137.966 264.218H137.186V264.878H137.966V268.578C137.966 269.278 138.176 269.638 139.046 269.638C139.396 269.638 139.616 269.598 139.726 269.578V268.888C139.636 268.898 139.536 268.918 139.356 268.918C138.916 268.918 138.806 268.748 138.806 268.318V264.878H139.736V264.218H138.806V262.658H137.966V264.218ZM140.354 269.578H141.194V264.218H140.354V269.578ZM140.354 263.398H141.194V262.438H140.354V263.398ZM142.595 269.578H143.435V264.878H144.355V264.218H143.435V263.588C143.435 263.218 143.615 263.078 143.975 263.078H144.365V262.358H143.755C142.945 262.358 142.595 262.778 142.595 263.588V264.218H141.815V264.878H142.595V269.578ZM144.985 269.578H145.825V264.218H144.985V269.578ZM144.985 263.398H145.825V262.438H144.985V263.398ZM147.704 266.338V266.138C147.704 265.818 147.804 264.738 148.684 264.738C149.424 264.738 149.614 265.448 149.614 266.048V266.338H147.704ZM150.494 266.998V266.658C150.494 265.508 150.344 264.078 148.704 264.078C147.054 264.078 146.794 265.628 146.794 266.968C146.794 268.808 147.344 269.718 148.654 269.718C150.114 269.718 150.454 268.388 150.454 267.818H149.614C149.614 268.218 149.504 269.058 148.704 269.058C147.674 269.058 147.674 267.818 147.674 266.998H150.494ZM151.417 269.578H152.257V266.188C152.257 265.298 152.937 264.918 153.357 264.918C153.627 264.918 153.727 264.948 153.807 264.958V264.138C153.727 264.098 153.607 264.078 153.437 264.078C152.837 264.078 152.517 264.508 152.277 265.018H152.257V264.218H151.417V269.578Z" fill="black"/>
<rect x="182.996" y="262.09" width="8.1272" height="8.1272" fill="#9B9B9B"/>
<path d="M197.487 269.578H198.407L198.937 267.618H201.217L201.727 269.578H202.647L200.727 262.438H199.547L197.487 269.578ZM200.107 263.448H200.127L201.037 266.898H199.117L200.107 263.448ZM206.507 265.848C206.507 265.228 206.257 264.078 204.797 264.078C203.147 264.078 202.887 265.628 202.887 266.968C202.887 268.808 203.437 269.718 204.747 269.718C206.087 269.718 206.507 268.568 206.507 267.718H205.667C205.667 268.298 205.507 269.058 204.787 269.058C203.777 269.058 203.767 267.658 203.767 266.958C203.767 264.998 204.297 264.738 204.817 264.738C205.457 264.738 205.667 265.328 205.667 265.848H206.507ZM210.764 265.848C210.764 265.228 210.514 264.078 209.054 264.078C207.404 264.078 207.144 265.628 207.144 266.968C207.144 268.808 207.694 269.718 209.004 269.718C210.344 269.718 210.764 268.568 210.764 267.718H209.924C209.924 268.298 209.764 269.058 209.044 269.058C208.034 269.058 208.024 267.658 208.024 266.958C208.024 264.998 208.554 264.738 209.074 264.738C209.714 264.738 209.924 265.328 209.924 265.848H210.764ZM211.372 266.898C211.372 268.408 211.752 269.718 213.302 269.718C214.842 269.718 215.232 268.408 215.232 266.898C215.232 265.388 214.852 264.078 213.302 264.078C211.762 264.078 211.372 265.388 211.372 266.898ZM213.282 269.058C212.422 269.058 212.252 268.058 212.252 266.898C212.252 265.738 212.432 264.738 213.282 264.738C214.182 264.738 214.352 265.738 214.352 266.898C214.352 268.058 214.172 269.058 213.282 269.058ZM219.606 264.218H218.766V267.918C218.766 268.698 218.156 268.998 217.706 268.998C216.946 268.998 216.916 268.328 216.916 267.918V264.218H216.076V268.018C216.076 268.648 216.076 269.718 217.486 269.718C218.006 269.718 218.566 269.438 218.786 268.948H218.806V269.578H219.606V264.218ZM220.705 269.578H221.545V265.878C221.545 265.098 222.155 264.798 222.605 264.798C223.365 264.798 223.395 265.468 223.395 265.878V269.578H224.235V265.778C224.235 265.148 224.235 264.078 222.825 264.078C222.305 264.078 221.745 264.358 221.525 264.848H221.505V264.218H220.705V269.578ZM225.583 264.218H224.803V264.878H225.583V268.578C225.583 269.278 225.793 269.638 226.663 269.638C227.013 269.638 227.233 269.598 227.343 269.578V268.888C227.253 268.898 227.153 268.918 226.973 268.918C226.533 268.918 226.423 268.748 226.423 268.318V264.878H227.353V264.218H226.423V262.658H225.583V264.218Z" fill="black"/>
<rect x="258.033" y="262.09" width="8.1272" height="8.1272" fill="#00CA2C"/>
<path d="M273.184 269.578H276.994V268.798H274.064V266.238H276.714V265.458H274.064V263.218H276.874V262.438H273.184V269.578ZM277.863 269.578H278.703V265.878C278.703 265.038 279.313 264.798 279.703 264.798C280.393 264.798 280.423 265.468 280.423 265.878V269.578H281.263V265.878C281.263 265.038 281.873 264.798 282.263 264.798C282.953 264.798 282.983 265.468 282.983 265.878V269.578H283.823V265.778C283.823 265.148 283.823 264.078 282.413 264.078C281.863 264.078 281.383 264.458 281.143 264.928C280.973 264.318 280.603 264.078 279.983 264.078C279.463 264.078 278.903 264.358 278.683 264.848H278.663V264.218H277.863V269.578ZM285.73 266.338V266.138C285.73 265.818 285.83 264.738 286.71 264.738C287.45 264.738 287.64 265.448 287.64 266.048V266.338H285.73ZM288.52 266.998V266.658C288.52 265.508 288.37 264.078 286.73 264.078C285.08 264.078 284.82 265.628 284.82 266.968C284.82 268.808 285.37 269.718 286.68 269.718C288.14 269.718 288.48 268.388 288.48 267.818H287.64C287.64 268.218 287.53 269.058 286.73 269.058C285.7 269.058 285.7 267.818 285.7 266.998H288.52ZM289.443 269.578H290.283V266.188C290.283 265.298 290.963 264.918 291.383 264.918C291.653 264.918 291.753 264.948 291.833 264.958V264.138C291.753 264.098 291.633 264.078 291.463 264.078C290.863 264.078 290.543 264.508 290.303 265.018H290.283V264.218H289.443V269.578ZM294.062 264.798C294.962 264.798 295.142 265.858 295.142 266.898C295.142 267.998 294.962 268.858 294.052 268.858C293.212 268.858 293.082 267.768 293.082 266.898C293.082 265.618 293.282 264.798 294.062 264.798ZM295.932 264.218H295.132V264.898H295.112C295.002 264.478 294.532 264.078 293.952 264.078C292.592 264.078 292.202 265.448 292.202 266.898C292.202 267.608 292.302 269.578 293.862 269.578C294.392 269.578 294.892 269.308 295.072 268.858H295.092V269.558C295.092 269.928 295.132 270.758 294.052 270.758C293.612 270.758 293.232 270.568 293.192 270.078H292.352C292.492 271.418 293.782 271.418 294.112 271.418C295.192 271.418 295.932 270.838 295.932 269.238V264.218ZM297.761 266.338V266.138C297.761 265.818 297.861 264.738 298.741 264.738C299.481 264.738 299.671 265.448 299.671 266.048V266.338H297.761ZM300.551 266.998V266.658C300.551 265.508 300.401 264.078 298.761 264.078C297.111 264.078 296.851 265.628 296.851 266.968C296.851 268.808 297.401 269.718 298.711 269.718C300.171 269.718 300.511 268.388 300.511 267.818H299.671C299.671 268.218 299.561 269.058 298.761 269.058C297.731 269.058 297.731 267.818 297.731 266.998H300.551ZM301.474 269.578H302.314V265.878C302.314 265.098 302.924 264.798 303.374 264.798C304.134 264.798 304.164 265.468 304.164 265.878V269.578H305.004V265.778C305.004 265.148 305.004 264.078 303.594 264.078C303.074 264.078 302.514 264.358 302.294 264.848H302.274V264.218H301.474V269.578ZM309.493 265.848C309.493 265.228 309.243 264.078 307.783 264.078C306.133 264.078 305.873 265.628 305.873 266.968C305.873 268.808 306.423 269.718 307.733 269.718C309.073 269.718 309.493 268.568 309.493 267.718H308.653C308.653 268.298 308.493 269.058 307.773 269.058C306.763 269.058 306.753 267.658 306.753 266.958C306.753 264.998 307.283 264.738 307.803 264.738C308.443 264.738 308.653 265.328 308.653 265.848H309.493ZM311.296 269.688L311.136 270.158C311.036 270.448 310.866 270.678 310.476 270.678C310.266 270.678 310.106 270.668 309.986 270.648V271.308C310.126 271.318 310.266 271.338 310.596 271.338C311.606 271.338 311.826 270.678 312.026 269.938L313.576 264.218H312.656L311.716 268.518H311.696L310.636 264.218H309.716L311.296 269.688Z" fill="black"/>
<path d="M16.6694 263.158H17.5894C19.1894 263.158 19.2794 264.638 19.2794 266.018C19.2794 267.298 19.1094 268.858 17.5894 268.858H16.6694V263.158ZM15.7894 269.578H17.7894C19.7494 269.578 20.1994 267.808 20.1994 266.008C20.1994 264.038 19.9194 262.438 17.6994 262.438H15.7894V269.578ZM21.9561 266.338V266.138C21.9561 265.818 22.0561 264.738 22.9361 264.738C23.6761 264.738 23.8661 265.448 23.8661 266.048V266.338H21.9561ZM24.7461 266.998V266.658C24.7461 265.508 24.5961 264.078 22.9561 264.078C21.3061 264.078 21.0461 265.628 21.0461 266.968C21.0461 268.808 21.5961 269.718 22.9061 269.718C24.3661 269.718 24.7061 268.388 24.7061 267.818H23.8661C23.8661 268.218 23.7561 269.058 22.9561 269.058C21.9261 269.058 21.9261 267.818 21.9261 266.998H24.7461ZM26.6694 269.578H27.6294L29.0794 264.218H28.1594L27.1594 268.518H27.1394L26.1394 264.218H25.2194L26.6694 269.578ZM29.7819 269.578H30.6219V264.218H29.7819V269.578ZM29.7819 263.398H30.6219V262.438H29.7819V263.398ZM35.163 265.848C35.163 265.228 34.913 264.078 33.453 264.078C31.803 264.078 31.543 265.628 31.543 266.968C31.543 268.808 32.093 269.718 33.403 269.718C34.743 269.718 35.163 268.568 35.163 267.718H34.323C34.323 268.298 34.163 269.058 33.443 269.058C32.433 269.058 32.423 267.658 32.423 266.958C32.423 264.998 32.953 264.738 33.473 264.738C34.113 264.738 34.323 265.328 34.323 265.848H35.163ZM36.7608 266.338V266.138C36.7608 265.818 36.8608 264.738 37.7408 264.738C38.4808 264.738 38.6708 265.448 38.6708 266.048V266.338H36.7608ZM39.5508 266.998V266.658C39.5508 265.508 39.4008 264.078 37.7608 264.078C36.1108 264.078 35.8508 265.628 35.8508 266.968C35.8508 268.808 36.4008 269.718 37.7108 269.718C39.1708 269.718 39.5108 268.388 39.5108 267.818H38.6708C38.6708 268.218 38.5608 269.058 37.7608 269.058C36.7308 269.058 36.7308 267.818 36.7308 266.998H39.5508Z" fill="black"/>
<rect x="0.548645" y="262.09" width="8.1272" height="8.1272" fill="#D41D33"/>
<path d="M16.6694 309.202H17.5894C19.1894 309.202 19.2794 310.682 19.2794 312.062C19.2794 313.342 19.1094 314.902 17.5894 314.902H16.6694V309.202ZM15.7894 315.622H17.7894C19.7494 315.622 20.1994 313.852 20.1994 312.052C20.1994 310.082 19.9194 308.482 17.6994 308.482H15.7894V315.622ZM21.9561 312.382V312.182C21.9561 311.862 22.0561 310.782 22.9361 310.782C23.6761 310.782 23.8661 311.492 23.8661 312.092V312.382H21.9561ZM24.7461 313.042V312.702C24.7461 311.552 24.5961 310.122 22.9561 310.122C21.3061 310.122 21.0461 311.672 21.0461 313.012C21.0461 314.852 21.5961 315.762 22.9061 315.762C24.3661 315.762 24.7061 314.432 24.7061 313.862H23.8661C23.8661 314.262 23.7561 315.102 22.9561 315.102C21.9261 315.102 21.9261 313.862 21.9261 313.042H24.7461ZM26.6694 315.622H27.6294L29.0794 310.262H28.1594L27.1594 314.562H27.1394L26.1394 310.262H25.2194L26.6694 315.622ZM29.7819 315.622H30.6219V310.262H29.7819V315.622ZM29.7819 309.442H30.6219V308.482H29.7819V309.442ZM35.163 311.892C35.163 311.272 34.913 310.122 33.453 310.122C31.803 310.122 31.543 311.672 31.543 313.012C31.543 314.852 32.093 315.762 33.403 315.762C34.743 315.762 35.163 314.612 35.163 313.762H34.323C34.323 314.342 34.163 315.102 33.443 315.102C32.433 315.102 32.423 313.702 32.423 313.002C32.423 311.042 32.953 310.782 33.473 310.782C34.113 310.782 34.323 311.372 34.323 311.892H35.163ZM36.7608 312.382V312.182C36.7608 311.862 36.8608 310.782 37.7408 310.782C38.4808 310.782 38.6708 311.492 38.6708 312.092V312.382H36.7608ZM39.5508 313.042V312.702C39.5508 311.552 39.4008 310.122 37.7608 310.122C36.1108 310.122 35.8508 311.672 35.8508 313.012C35.8508 314.852 36.4008 315.762 37.7108 315.762C39.1708 315.762 39.5108 314.432 39.5108 313.862H38.6708C38.6708 314.262 38.5608 315.102 37.7608 315.102C36.7308 315.102 36.7308 313.862 36.7308 313.042H39.5508Z" fill="black"/>
<rect x="0.548645" y="308.135" width="8.1272" height="8.1272" fill="#FB6678"/>
<path d="M149.176 201.093H157.176V203.216H149.176V201.093Z" fill="#FB6678"/>
<path d="M138.488 196.297H146.488V203.216H138.488V196.297Z" fill="#D41D33"/>
<path d="M138.488 195.825H146.488V196.297H138.488V195.825Z" fill="#9B9B9B"/>
<path d="M99.8794 201.721H107.879V203.215H99.8794V201.721Z" fill="#FB6678"/>
<path d="M89.1907 196.689H97.1907V203.215H89.1907V196.689Z" fill="#D41D33"/>
<path d="M89.1907 196.611H97.1907V196.691H89.1907V196.611Z" fill="#9B9B9B"/>
<path d="M236.647 142.991H244.647V203.215H236.647V142.991Z" fill="#D41D33"/>
<path d="M236.647 141.419H244.647V142.991H236.647V141.419Z" fill="#ED821F"/>
<path d="M236.647 140.397H244.647V141.419H236.647V140.397Z" fill="#9B9B9B"/>
<path d="M247.365 156.907H255.365V203.215H247.365V156.907Z" fill="#FB6678"/>
<path d="M247.365 155.885H255.365V156.907H247.365V155.885Z" fill="#FFDA79"/>
<path d="M247.365 155.335H255.365V155.885H247.365V155.335Z" fill="#CECECE"/>
<path d="M187.35 180.179H195.35V203.215H187.35V180.179Z" fill="#D41D33"/>
<path d="M187.35 179.55H195.35V180.179H187.35V179.55Z" fill="#9B9B9B"/>
<path d="M198.039 191.186H206.039V203.215H198.039V191.186Z" fill="#FB6678"/>
<path d="M198.039 191.029H206.039V191.186H198.039V191.029Z" fill="#CECECE"/>
<path d="M39.8937 189.064H47.8937V203.216H39.8937V189.064Z" fill="#D41D33"/>
<path d="M39.8937 188.772H47.8937V189.087H39.8937V188.772Z" fill="#9B9B9B"/>
<path d="M50.5825 191.579H58.5825V203.215H50.5825V191.579Z" fill="#FB6678"/>
<path d="M50.5825 191.422H58.5825V191.58H50.5825V191.422Z" fill="#CECECE"/>
<path d="M433.864 100.536H441.864V203.215H433.864V100.536Z" fill="#D41D33"/>
<path d="M433.864 91.4163H441.864V93.539H433.864V91.4163Z" fill="#9B9B9B"/>
<path d="M433.864 93.5388H441.864V100.536H433.864V93.5388Z" fill="#ED821F"/>
<path d="M444.552 110.914H452.552V113.037H444.552V110.914Z" fill="#FFDA79"/>
<path d="M444.552 109.656H452.552V110.914H444.552V109.656Z" fill="#CECECE"/>
<rect x="444.552" y="113.037" width="7.99999" height="90.1784" fill="#FB6678"/>
<path d="M384.567 31.9788H392.567V203.215H384.567V31.9788Z" fill="#D41D33"/>
<path d="M384.567 20.7358H392.567V25.06H384.567V20.7358Z" fill="#9B9B9B"/>
<path d="M384.567 25.0601H392.567V31.9787H384.567V25.0601Z" fill="#ED821F"/>
<path d="M395.255 56.6658H403.255V58.7885H395.255V56.6658Z" fill="#FFDA79"/>
<path d="M395.255 54.4644H403.255V56.6657H395.255V54.4644Z" fill="#CECECE"/>
<rect x="395.255" y="58.7886" width="7.99999" height="144.427" fill="#FB6678"/>
<path d="M335.27 30.8782H343.27V203.216H335.27V30.8782Z" fill="#D41D33"/>
<path d="M335.27 24.1165H343.27V27.0254H335.27V24.1165Z" fill="#9B9B9B"/>
<path d="M335.27 27.0254H343.27V30.8778H335.27V27.0254Z" fill="#ED821F"/>
<path d="M345.958 59.4175H353.958V60.5968H345.958V59.4175Z" fill="#FFDA79"/>
<path d="M345.958 58.1597H353.958V59.4176H345.958V58.1597Z" fill="#CECECE"/>
<rect x="345.958" y="60.5967" width="7.99999" height="142.619" fill="#FB6678"/>
<path d="M285.973 100.536H293.973V101.794H285.973V100.536Z" fill="#9B9B9B"/>
<path d="M285.973 102.502H293.973V203.216H285.973V102.502Z" fill="#D41D33"/>
<path d="M285.973 101.794H293.973V102.502H285.973V101.794Z" fill="#ED821F"/>
<path d="M296.662 129.076H304.662V129.39H296.662V129.076Z" fill="#FFDA79"/>
<path d="M296.662 128.604H304.662V129.076H296.662V128.604Z" fill="#CECECE"/>
<rect x="296.662" y="129.39" width="7.99999" height="73.8252" fill="#FB6678"/>
</svg>
