<svg width="480" height="132" viewBox="0 0 480 132" fill="none" xmlns="http://www.w3.org/2000/svg">
<path d="M29.1241 102.99H479.125" stroke="black" stroke-width="0.389151"/>
<path d="M29.1241 102.99H479.125" stroke="#CCCCCC" stroke-width="0.389151"/>
<path d="M29.1241 83.0227H479.125" stroke="#CCCCCC" stroke-width="0.389151"/>
<path d="M29.1241 63.0544H479.125" stroke="#CCCCCC" stroke-width="0.389151"/>
<path d="M29.1241 43.0867H479.125" stroke="#CCCCCC" stroke-width="0.389151"/>
<path d="M29.1241 23.1187H479.125" stroke="#CCCCCC" stroke-width="0.389151"/>
<path d="M29.1241 3.15088H479.125" stroke="#CCCCCC" stroke-width="0.389151"/>
<path d="M47.9391 20.2525H61.9115L83.7433 79.8533H111.251L132.865 72.103H160.482L182.096 50.3803H209.713L231.326 26.0379H258.616L280.448 29.4218H308.174L329.788 19.8158H357.405L378.8 18.2877H406.526L428.358 15.3403H452.155" stroke="#4F46E5"/>
<path d="M44.1315 117.729H41.8355C42.2675 116.345 44.1075 116.225 44.1075 114.345C44.1075 113.521 43.6675 112.833 42.5075 112.833C41.2995 112.833 40.8355 113.529 40.8355 114.657H41.6995C41.6995 114.081 41.8115 113.473 42.4915 113.473C42.9955 113.473 43.1955 113.865 43.1955 114.329C43.1955 116.089 40.8195 116.033 40.8195 118.497H44.1315V117.729ZM45.5353 115.721C45.5353 114.073 45.6953 113.473 46.3193 113.473C46.9433 113.473 47.1033 114.073 47.1033 115.721C47.1033 117.369 46.9433 117.969 46.3193 117.969C45.6953 117.969 45.5353 117.369 45.5353 115.721ZM44.6233 115.721C44.6233 117.921 45.2313 118.609 46.3193 118.609C47.4073 118.609 48.0153 117.921 48.0153 115.721C48.0153 113.521 47.4073 112.833 46.3193 112.833C45.2313 112.833 44.6233 113.521 44.6233 115.721ZM50.811 118.497V112.833H50.147V112.945C49.987 113.665 49.355 113.793 48.811 113.793H48.723V114.385H49.899V118.497H50.811ZM52.3348 116.921C52.3348 118.105 52.9268 118.609 53.9508 118.609C55.1188 118.609 55.6788 117.977 55.6788 116.857C55.6788 116.065 55.2308 115.593 54.6468 115.545V115.521C55.2068 115.433 55.5508 114.865 55.5508 114.281C55.5508 113.145 54.7108 112.833 54.0308 112.833C52.9508 112.833 52.3988 113.409 52.3988 114.465H53.2628C53.2628 113.953 53.4228 113.473 53.9828 113.473C54.4548 113.473 54.6388 113.881 54.6388 114.289C54.6388 114.841 54.4308 115.257 53.8228 115.257H53.4948V115.897H53.8468C54.5348 115.897 54.7668 116.257 54.7668 116.953C54.7668 117.513 54.5428 117.969 53.9748 117.969C53.3588 117.969 53.1988 117.417 53.1988 116.921H52.3348Z" fill="black"/>
<path d="M93.3539 117.729H91.0579C91.4899 116.345 93.3299 116.225 93.3299 114.345C93.3299 113.521 92.8899 112.833 91.7299 112.833C90.5219 112.833 90.0579 113.529 90.0579 114.657H90.9219C90.9219 114.081 91.0339 113.473 91.7139 113.473C92.2179 113.473 92.4179 113.865 92.4179 114.329C92.4179 116.089 90.0419 116.033 90.0419 118.497H93.3539V117.729ZM94.7577 115.721C94.7577 114.073 94.9177 113.473 95.5417 113.473C96.1657 113.473 96.3257 114.073 96.3257 115.721C96.3257 117.369 96.1657 117.969 95.5417 117.969C94.9177 117.969 94.7577 117.369 94.7577 115.721ZM93.8457 115.721C93.8457 117.921 94.4537 118.609 95.5417 118.609C96.6297 118.609 97.2377 117.921 97.2377 115.721C97.2377 113.521 96.6297 112.833 95.5417 112.833C94.4537 112.833 93.8457 113.521 93.8457 115.721ZM100.033 118.497V112.833H99.3694V112.945C99.2094 113.665 98.5774 113.793 98.0334 113.793H97.9454V114.385H99.1214V118.497H100.033ZM101.477 117.225H103.501V118.497H104.365V117.225H104.981V116.497H104.365V112.833H103.437L101.477 116.441V117.225ZM103.501 116.497H102.213L103.485 114.161H103.501V116.497Z" fill="black"/>
<path d="M142.577 117.729H140.281C140.713 116.345 142.553 116.225 142.553 114.345C142.553 113.521 142.113 112.833 140.953 112.833C139.745 112.833 139.281 113.529 139.281 114.657H140.145C140.145 114.081 140.257 113.473 140.937 113.473C141.441 113.473 141.641 113.865 141.641 114.329C141.641 116.089 139.265 116.033 139.265 118.497H142.577V117.729ZM143.98 115.721C143.98 114.073 144.14 113.473 144.764 113.473C145.388 113.473 145.548 114.073 145.548 115.721C145.548 117.369 145.388 117.969 144.764 117.969C144.14 117.969 143.98 117.369 143.98 115.721ZM143.068 115.721C143.068 117.921 143.676 118.609 144.764 118.609C145.852 118.609 146.46 117.921 146.46 115.721C146.46 113.521 145.852 112.833 144.764 112.833C143.676 112.833 143.068 113.521 143.068 115.721ZM149.256 118.497V112.833H148.592V112.945C148.432 113.665 147.8 113.793 147.256 113.793H147.168V114.385H148.344V118.497H149.256ZM150.788 117.089C150.788 118.089 151.364 118.609 152.372 118.609C153.596 118.609 154.116 117.745 154.116 116.609C154.116 115.737 153.82 114.737 152.636 114.737C152.268 114.737 151.924 114.905 151.684 115.177L151.668 115.161L151.852 113.673H153.9V112.945H151.172L150.892 115.913L151.7 115.945C151.78 115.633 152.06 115.425 152.444 115.425C153.028 115.425 153.204 115.977 153.204 116.633C153.204 117.297 153.028 117.921 152.396 117.921C151.884 117.921 151.652 117.545 151.652 117.121V116.969H150.788V117.089Z" fill="black"/>
<path d="M191.799 117.729H189.503C189.935 116.345 191.775 116.225 191.775 114.345C191.775 113.521 191.335 112.833 190.175 112.833C188.967 112.833 188.503 113.529 188.503 114.657H189.367C189.367 114.081 189.479 113.473 190.159 113.473C190.663 113.473 190.863 113.865 190.863 114.329C190.863 116.089 188.487 116.033 188.487 118.497H191.799V117.729ZM193.203 115.721C193.203 114.073 193.363 113.473 193.987 113.473C194.611 113.473 194.771 114.073 194.771 115.721C194.771 117.369 194.611 117.969 193.987 117.969C193.363 117.969 193.203 117.369 193.203 115.721ZM192.291 115.721C192.291 117.921 192.899 118.609 193.987 118.609C195.075 118.609 195.683 117.921 195.683 115.721C195.683 113.521 195.075 112.833 193.987 112.833C192.899 112.833 192.291 113.521 192.291 115.721ZM198.479 118.497V112.833H197.815V112.945C197.655 113.665 197.023 113.793 196.479 113.793H196.391V114.385H197.567V118.497H198.479ZM203.291 114.209C203.291 113.281 202.755 112.833 201.763 112.833C200.267 112.833 199.955 114.201 199.955 115.897C199.955 117.521 200.227 118.609 201.659 118.609C202.859 118.609 203.395 117.833 203.395 116.529C203.395 115.401 202.771 114.841 201.995 114.841C201.499 114.841 201.115 115.033 200.891 115.441L200.867 115.425C200.867 114.601 200.915 113.473 201.771 113.473C202.227 113.473 202.379 113.881 202.379 114.209H203.291ZM200.947 116.793C200.947 116.113 201.067 115.529 201.731 115.529C202.251 115.529 202.483 115.969 202.483 116.753C202.483 117.417 202.291 117.969 201.731 117.969C201.195 117.969 200.947 117.449 200.947 116.793Z" fill="black"/>
<path d="M241.022 117.729H238.726C239.158 116.345 240.998 116.225 240.998 114.345C240.998 113.521 240.558 112.833 239.398 112.833C238.19 112.833 237.726 113.529 237.726 114.657H238.59C238.59 114.081 238.702 113.473 239.382 113.473C239.886 113.473 240.086 113.865 240.086 114.329C240.086 116.089 237.71 116.033 237.71 118.497H241.022V117.729ZM242.426 115.721C242.426 114.073 242.586 113.473 243.21 113.473C243.834 113.473 243.994 114.073 243.994 115.721C243.994 117.369 243.834 117.969 243.21 117.969C242.586 117.969 242.426 117.369 242.426 115.721ZM241.514 115.721C241.514 117.921 242.122 118.609 243.21 118.609C244.298 118.609 244.906 117.921 244.906 115.721C244.906 113.521 244.298 112.833 243.21 112.833C242.122 112.833 241.514 113.521 241.514 115.721ZM247.702 118.497V112.833H247.038V112.945C246.878 113.665 246.246 113.793 245.702 113.793H245.614V114.385H246.79V118.497H247.702ZM249.217 113.761H251.697C250.793 114.921 249.961 116.809 249.833 118.497H250.793C250.921 116.793 251.689 114.825 252.577 113.665V112.945H249.217V113.761Z" fill="black"/>
<path d="M290.245 117.729H287.949C288.381 116.345 290.221 116.225 290.221 114.345C290.221 113.521 289.781 112.833 288.621 112.833C287.413 112.833 286.949 113.529 286.949 114.657H287.813C287.813 114.081 287.925 113.473 288.605 113.473C289.109 113.473 289.309 113.865 289.309 114.329C289.309 116.089 286.933 116.033 286.933 118.497H290.245V117.729ZM291.649 115.721C291.649 114.073 291.809 113.473 292.433 113.473C293.057 113.473 293.217 114.073 293.217 115.721C293.217 117.369 293.057 117.969 292.433 117.969C291.809 117.969 291.649 117.369 291.649 115.721ZM290.737 115.721C290.737 117.921 291.345 118.609 292.433 118.609C293.521 118.609 294.129 117.921 294.129 115.721C294.129 113.521 293.521 112.833 292.433 112.833C291.345 112.833 290.737 113.521 290.737 115.721ZM296.924 118.497V112.833H296.26V112.945C296.1 113.665 295.468 113.793 294.924 113.793H294.836V114.385H296.012V118.497H296.924ZM299.408 114.321C299.408 113.873 299.552 113.473 300.12 113.473C300.688 113.473 300.832 113.873 300.832 114.321C300.832 114.777 300.688 115.185 300.12 115.185C299.552 115.185 299.408 114.777 299.408 114.321ZM299.32 116.897C299.32 116.297 299.48 115.825 300.12 115.825C300.76 115.825 300.92 116.297 300.92 116.897C300.92 117.489 300.76 117.969 300.12 117.969C299.48 117.969 299.32 117.489 299.32 116.897ZM300.12 118.609C301.28 118.609 301.832 118.025 301.832 116.913C301.832 116.073 301.424 115.609 300.864 115.497V115.481C301.352 115.313 301.648 114.937 301.648 114.257C301.648 113.377 301.064 112.833 300.12 112.833C299.176 112.833 298.592 113.377 298.592 114.257C298.592 114.937 298.888 115.313 299.376 115.481V115.497C298.816 115.609 298.408 116.073 298.408 116.913C298.408 118.025 298.96 118.609 300.12 118.609Z" fill="black"/>
<path d="M339.468 117.729H337.172C337.604 116.345 339.444 116.225 339.444 114.345C339.444 113.521 339.004 112.833 337.844 112.833C336.636 112.833 336.172 113.529 336.172 114.657H337.036C337.036 114.081 337.148 113.473 337.828 113.473C338.332 113.473 338.532 113.865 338.532 114.329C338.532 116.089 336.156 116.033 336.156 118.497H339.468V117.729ZM340.871 115.721C340.871 114.073 341.031 113.473 341.655 113.473C342.279 113.473 342.439 114.073 342.439 115.721C342.439 117.369 342.279 117.969 341.655 117.969C341.031 117.969 340.871 117.369 340.871 115.721ZM339.959 115.721C339.959 117.921 340.567 118.609 341.655 118.609C342.743 118.609 343.351 117.921 343.351 115.721C343.351 113.521 342.743 112.833 341.655 112.833C340.567 112.833 339.959 113.521 339.959 115.721ZM346.147 118.497V112.833H345.483V112.945C345.323 113.665 344.691 113.793 344.147 113.793H344.059V114.385H345.235V118.497H346.147ZM347.727 117.233C347.727 118.161 348.263 118.609 349.255 118.609C350.751 118.609 351.063 117.241 351.063 115.545C351.063 113.921 350.791 112.833 349.359 112.833C348.159 112.833 347.623 113.609 347.623 114.913C347.623 116.041 348.247 116.601 349.023 116.601C349.519 116.601 349.903 116.409 350.127 116.001L350.151 116.017C350.151 116.841 350.103 117.969 349.247 117.969C348.791 117.969 348.639 117.561 348.639 117.233H347.727ZM350.071 114.649C350.071 115.329 349.951 115.913 349.287 115.913C348.767 115.913 348.535 115.473 348.535 114.689C348.535 114.025 348.727 113.473 349.287 113.473C349.823 113.473 350.071 113.993 350.071 114.649Z" fill="black"/>
<path d="M388.69 117.729H386.394C386.826 116.345 388.666 116.225 388.666 114.345C388.666 113.521 388.226 112.833 387.066 112.833C385.858 112.833 385.394 113.529 385.394 114.657H386.258C386.258 114.081 386.37 113.473 387.05 113.473C387.554 113.473 387.754 113.865 387.754 114.329C387.754 116.089 385.378 116.033 385.378 118.497H388.69V117.729ZM390.094 115.721C390.094 114.073 390.254 113.473 390.878 113.473C391.502 113.473 391.662 114.073 391.662 115.721C391.662 117.369 391.502 117.969 390.878 117.969C390.254 117.969 390.094 117.369 390.094 115.721ZM389.182 115.721C389.182 117.921 389.79 118.609 390.878 118.609C391.966 118.609 392.574 117.921 392.574 115.721C392.574 113.521 391.966 112.833 390.878 112.833C389.79 112.833 389.182 113.521 389.182 115.721ZM396.378 117.729H394.082C394.514 116.345 396.354 116.225 396.354 114.345C396.354 113.521 395.914 112.833 394.754 112.833C393.546 112.833 393.082 113.529 393.082 114.657H393.946C393.946 114.081 394.058 113.473 394.738 113.473C395.242 113.473 395.442 113.865 395.442 114.329C395.442 116.089 393.066 116.033 393.066 118.497H396.378V117.729ZM397.782 115.721C397.782 114.073 397.942 113.473 398.566 113.473C399.19 113.473 399.35 114.073 399.35 115.721C399.35 117.369 399.19 117.969 398.566 117.969C397.942 117.969 397.782 117.369 397.782 115.721ZM396.87 115.721C396.87 117.921 397.478 118.609 398.566 118.609C399.654 118.609 400.262 117.921 400.262 115.721C400.262 113.521 399.654 112.833 398.566 112.833C397.478 112.833 396.87 113.521 396.87 115.721Z" fill="black"/>
<path d="M428.942 118.497H429.854V115.905H431.862V115.137H429.854V113.553H431.99V112.785H428.942V118.497ZM432.629 118.497H433.493V114.193H432.629V118.497ZM432.629 113.585H433.493V112.721H432.629V113.585ZM434.363 118.497H435.227V115.921C435.227 115.121 435.699 114.945 436.091 114.945C436.235 114.945 436.387 114.977 436.451 114.993V114.113C436.395 114.097 436.339 114.081 436.243 114.081C435.755 114.081 435.435 114.385 435.243 114.865H435.227V114.193H434.363V118.497ZM439.558 115.449V115.257C439.558 114.721 439.31 114.081 438.214 114.081C437.326 114.081 436.742 114.457 436.742 115.265C436.742 115.953 437.014 116.281 437.662 116.505L438.366 116.753C438.67 116.857 438.838 117.065 438.838 117.385C438.838 117.777 438.606 118.017 438.134 118.017C437.638 118.017 437.462 117.745 437.462 117.249V117.113H436.694V117.273C436.694 118.105 437.022 118.609 438.11 118.609C438.982 118.609 439.654 118.217 439.654 117.297C439.654 116.617 439.358 116.273 438.718 116.057L438.166 115.865C437.71 115.705 437.558 115.569 437.558 115.233C437.558 114.833 437.83 114.673 438.174 114.673C438.622 114.673 438.742 114.993 438.742 115.337V115.449H439.558ZM439.908 114.833H440.5V117.505C440.5 118.385 440.788 118.545 441.372 118.545C441.644 118.545 441.884 118.521 442.068 118.473V117.833C441.988 117.849 441.884 117.857 441.756 117.857C441.46 117.857 441.364 117.737 441.364 117.401V114.833H442.068V114.193H441.364V112.969H440.5V114.193H439.908V114.833ZM444.441 118.497H445.305V115.609C445.305 115.049 445.641 114.769 445.993 114.769C446.425 114.769 446.593 114.985 446.593 115.545V118.497H447.457V115.249C447.457 114.377 447.041 114.081 446.385 114.081C445.945 114.081 445.569 114.305 445.329 114.673L445.305 114.657V112.785H444.441V118.497ZM451.116 115.137C451.116 114.377 450.508 114.081 449.748 114.081C448.612 114.081 448.236 114.585 448.236 115.497H449.052C449.052 115.081 449.132 114.673 449.708 114.673C450.164 114.673 450.3 114.921 450.3 115.313C450.3 115.689 450.108 115.777 449.796 115.865L449.124 116.049C448.54 116.241 448.124 116.441 448.124 117.401C448.124 118.225 448.556 118.609 449.244 118.609C449.748 118.609 450.084 118.401 450.316 117.977H450.332C450.356 118.393 450.676 118.545 451.06 118.545C451.228 118.545 451.38 118.489 451.484 118.441V117.881C451.452 117.897 451.396 117.905 451.34 117.905C451.212 117.905 451.116 117.761 451.116 117.601V115.137ZM450.3 116.945C450.3 117.577 450.044 117.969 449.524 117.969C449.164 117.969 448.988 117.681 448.988 117.321C448.988 117.001 449.092 116.745 449.34 116.625C449.596 116.505 450.076 116.401 450.3 116.225V116.945ZM452.035 118.497H452.899V112.785H452.035V118.497ZM454.033 118.497H454.897V114.833H455.601V114.193H454.897V113.817C454.897 113.529 455.041 113.409 455.361 113.409H455.601V112.745C455.473 112.729 455.313 112.721 455.129 112.721C454.425 112.721 454.033 112.977 454.033 113.793V114.193H453.433V114.833H454.033V118.497ZM430.659 126.345C430.659 127.681 431.067 128.609 432.259 128.609C433.459 128.609 433.867 127.681 433.867 126.345C433.867 125.009 433.515 124.081 432.259 124.081C431.011 124.081 430.659 125.009 430.659 126.345ZM431.523 126.345C431.523 125.393 431.635 124.721 432.259 124.721C432.891 124.721 433.003 125.393 433.003 126.345C433.003 127.441 432.891 127.969 432.259 127.969C431.635 127.969 431.523 127.441 431.523 126.345ZM434.795 128.497H435.659V124.833H436.363V124.193H435.659V123.817C435.659 123.529 435.803 123.409 436.123 123.409H436.363V122.745C436.235 122.729 436.075 122.721 435.891 122.721C435.187 122.721 434.795 122.977 434.795 123.793V124.193H434.195V124.833H434.795V128.497ZM441.839 127.729H439.543C439.975 126.345 441.815 126.225 441.815 124.345C441.815 123.521 441.375 122.833 440.215 122.833C439.007 122.833 438.543 123.529 438.543 124.657H439.407C439.407 124.081 439.519 123.473 440.199 123.473C440.703 123.473 440.903 123.865 440.903 124.329C440.903 126.089 438.527 126.033 438.527 128.497H441.839V127.729ZM443.243 125.721C443.243 124.073 443.403 123.473 444.027 123.473C444.651 123.473 444.811 124.073 444.811 125.721C444.811 127.369 444.651 127.969 444.027 127.969C443.403 127.969 443.243 127.369 443.243 125.721ZM442.331 125.721C442.331 127.921 442.939 128.609 444.027 128.609C445.115 128.609 445.723 127.921 445.723 125.721C445.723 123.521 445.115 122.833 444.027 122.833C442.939 122.833 442.331 123.521 442.331 125.721ZM449.527 127.729H447.231C447.663 126.345 449.503 126.225 449.503 124.345C449.503 123.521 449.063 122.833 447.903 122.833C446.695 122.833 446.231 123.529 446.231 124.657H447.095C447.095 124.081 447.207 123.473 447.887 123.473C448.391 123.473 448.591 123.865 448.591 124.329C448.591 126.089 446.215 126.033 446.215 128.497H449.527V127.729ZM452.362 128.497V122.833H451.698V122.945C451.538 123.665 450.906 123.793 450.362 123.793H450.274V124.385H451.45V128.497H452.362Z" fill="black"/>
<path d="M11.7847 104.306C11.7847 102.658 11.9447 102.058 12.5687 102.058C13.1927 102.058 13.3527 102.658 13.3527 104.306C13.3527 105.954 13.1927 106.554 12.5687 106.554C11.9447 106.554 11.7847 105.954 11.7847 104.306ZM10.8727 104.306C10.8727 106.506 11.4807 107.194 12.5687 107.194C13.6567 107.194 14.2647 106.506 14.2647 104.306C14.2647 102.106 13.6567 101.418 12.5687 101.418C11.4807 101.418 10.8727 102.106 10.8727 104.306ZM15.8764 101.914C16.2044 101.914 16.2844 102.21 16.2844 102.954C16.2844 103.698 16.2044 103.994 15.8764 103.994C15.5484 103.994 15.4684 103.698 15.4684 102.954C15.4684 102.21 15.5484 101.914 15.8764 101.914ZM18.4684 101.418L15.9324 107.194H16.5324L19.0844 101.418H18.4684ZM19.1804 104.618C19.5084 104.618 19.5884 104.914 19.5884 105.658C19.5884 106.402 19.5084 106.698 19.1804 106.698C18.8524 106.698 18.7724 106.402 18.7724 105.658C18.7724 104.914 18.8524 104.618 19.1804 104.618ZM15.8764 101.418C15.2444 101.418 14.7804 101.762 14.7804 102.954C14.7804 104.146 15.2444 104.49 15.8764 104.49C16.5084 104.49 16.9724 104.146 16.9724 102.954C16.9724 101.762 16.5084 101.418 15.8764 101.418ZM19.1804 104.122C18.5484 104.122 18.0844 104.466 18.0844 105.658C18.0844 106.85 18.5484 107.194 19.1804 107.194C19.8124 107.194 20.2764 106.85 20.2764 105.658C20.2764 104.466 19.8124 104.122 19.1804 104.122Z" fill="black"/>
<path d="M10.3811 86.3465H8.08509C8.51709 84.9625 10.3571 84.8425 10.3571 82.9625C10.3571 82.1385 9.91709 81.4505 8.75709 81.4505C7.54909 81.4505 7.08509 82.1465 7.08509 83.2745H7.94909C7.94909 82.6985 8.06109 82.0905 8.74109 82.0905C9.24509 82.0905 9.44509 82.4825 9.44509 82.9465C9.44509 84.7065 7.06909 84.6505 7.06909 87.1145H10.3811V86.3465ZM11.7848 84.3385C11.7848 82.6905 11.9448 82.0905 12.5688 82.0905C13.1928 82.0905 13.3528 82.6905 13.3528 84.3385C13.3528 85.9865 13.1928 86.5865 12.5688 86.5865C11.9448 86.5865 11.7848 85.9865 11.7848 84.3385ZM10.8728 84.3385C10.8728 86.5385 11.4808 87.2265 12.5688 87.2265C13.6568 87.2265 14.2648 86.5385 14.2648 84.3385C14.2648 82.1385 13.6568 81.4505 12.5688 81.4505C11.4808 81.4505 10.8728 82.1385 10.8728 84.3385ZM15.8766 81.9465C16.2046 81.9465 16.2846 82.2425 16.2846 82.9865C16.2846 83.7305 16.2046 84.0265 15.8766 84.0265C15.5486 84.0265 15.4686 83.7305 15.4686 82.9865C15.4686 82.2425 15.5486 81.9465 15.8766 81.9465ZM18.4686 81.4505L15.9326 87.2265H16.5326L19.0846 81.4505H18.4686ZM19.1806 84.6505C19.5086 84.6505 19.5886 84.9465 19.5886 85.6905C19.5886 86.4345 19.5086 86.7305 19.1806 86.7305C18.8526 86.7305 18.7726 86.4345 18.7726 85.6905C18.7726 84.9465 18.8526 84.6505 19.1806 84.6505ZM15.8766 81.4505C15.2446 81.4505 14.7806 81.7945 14.7806 82.9865C14.7806 84.1785 15.2446 84.5225 15.8766 84.5225C16.5086 84.5225 16.9726 84.1785 16.9726 82.9865C16.9726 81.7945 16.5086 81.4505 15.8766 81.4505ZM19.1806 84.1545C18.5486 84.1545 18.0846 84.4985 18.0846 85.6905C18.0846 86.8825 18.5486 87.2265 19.1806 87.2265C19.8126 87.2265 20.2766 86.8825 20.2766 85.6905C20.2766 84.4985 19.8126 84.1545 19.1806 84.1545Z" fill="black"/>
<path d="M6.97298 65.8752H8.99698V67.1472H9.86098V65.8752H10.477V65.1472H9.86098V61.4832H8.93298L6.97298 65.0912V65.8752ZM8.99698 65.1472H7.70898L8.98098 62.8112H8.99698V65.1472ZM11.7847 64.3712C11.7847 62.7232 11.9447 62.1232 12.5687 62.1232C13.1927 62.1232 13.3527 62.7232 13.3527 64.3712C13.3527 66.0192 13.1927 66.6192 12.5687 66.6192C11.9447 66.6192 11.7847 66.0192 11.7847 64.3712ZM10.8727 64.3712C10.8727 66.5712 11.4807 67.2592 12.5687 67.2592C13.6567 67.2592 14.2647 66.5712 14.2647 64.3712C14.2647 62.1712 13.6567 61.4832 12.5687 61.4832C11.4807 61.4832 10.8727 62.1712 10.8727 64.3712ZM15.8765 61.9792C16.2045 61.9792 16.2845 62.2752 16.2845 63.0192C16.2845 63.7632 16.2045 64.0592 15.8765 64.0592C15.5485 64.0592 15.4685 63.7632 15.4685 63.0192C15.4685 62.2752 15.5485 61.9792 15.8765 61.9792ZM18.4685 61.4832L15.9325 67.2592H16.5325L19.0845 61.4832H18.4685ZM19.1805 64.6832C19.5085 64.6832 19.5885 64.9792 19.5885 65.7232C19.5885 66.4672 19.5085 66.7632 19.1805 66.7632C18.8525 66.7632 18.7725 66.4672 18.7725 65.7232C18.7725 64.9792 18.8525 64.6832 19.1805 64.6832ZM15.8765 61.4832C15.2445 61.4832 14.7805 61.8272 14.7805 63.0192C14.7805 64.2112 15.2445 64.5552 15.8765 64.5552C16.5085 64.5552 16.9725 64.2112 16.9725 63.0192C16.9725 61.8272 16.5085 61.4832 15.8765 61.4832ZM19.1805 64.1872C18.5485 64.1872 18.0845 64.5312 18.0845 65.7232C18.0845 66.9152 18.5485 67.2592 19.1805 67.2592C19.8125 67.2592 20.2765 66.9152 20.2765 65.7232C20.2765 64.5312 19.8125 64.1872 19.1805 64.1872Z" fill="black"/>
<path d="M10.341 42.8919C10.341 41.9639 9.80498 41.5159 8.81298 41.5159C7.31698 41.5159 7.00498 42.8839 7.00498 44.5799C7.00498 46.2039 7.27698 47.2919 8.70898 47.2919C9.90898 47.2919 10.445 46.5159 10.445 45.2119C10.445 44.0839 9.82098 43.5239 9.04498 43.5239C8.54898 43.5239 8.16498 43.7159 7.94098 44.1239L7.91698 44.1079C7.91698 43.2839 7.96498 42.1559 8.82098 42.1559C9.27698 42.1559 9.42898 42.5639 9.42898 42.8919H10.341ZM7.99698 45.4759C7.99698 44.7959 8.11698 44.2119 8.78098 44.2119C9.30098 44.2119 9.53298 44.6519 9.53298 45.4359C9.53298 46.0999 9.34098 46.6519 8.78098 46.6519C8.24498 46.6519 7.99698 46.1319 7.99698 45.4759ZM11.7847 44.4039C11.7847 42.7559 11.9447 42.1559 12.5687 42.1559C13.1927 42.1559 13.3527 42.7559 13.3527 44.4039C13.3527 46.0519 13.1927 46.6519 12.5687 46.6519C11.9447 46.6519 11.7847 46.0519 11.7847 44.4039ZM10.8727 44.4039C10.8727 46.6039 11.4807 47.2919 12.5687 47.2919C13.6567 47.2919 14.2647 46.6039 14.2647 44.4039C14.2647 42.2039 13.6567 41.5159 12.5687 41.5159C11.4807 41.5159 10.8727 42.2039 10.8727 44.4039ZM15.8765 42.0119C16.2045 42.0119 16.2845 42.3079 16.2845 43.0519C16.2845 43.7959 16.2045 44.0919 15.8765 44.0919C15.5485 44.0919 15.4685 43.7959 15.4685 43.0519C15.4685 42.3079 15.5485 42.0119 15.8765 42.0119ZM18.4685 41.5159L15.9325 47.2919H16.5325L19.0845 41.5159H18.4685ZM19.1805 44.7159C19.5085 44.7159 19.5885 45.0119 19.5885 45.7559C19.5885 46.4999 19.5085 46.7959 19.1805 46.7959C18.8525 46.7959 18.7725 46.4999 18.7725 45.7559C18.7725 45.0119 18.8525 44.7159 19.1805 44.7159ZM15.8765 41.5159C15.2445 41.5159 14.7805 41.8599 14.7805 43.0519C14.7805 44.2439 15.2445 44.5879 15.8765 44.5879C16.5085 44.5879 16.9725 44.2439 16.9725 43.0519C16.9725 41.8599 16.5085 41.5159 15.8765 41.5159ZM19.1805 44.2199C18.5485 44.2199 18.0845 44.5639 18.0845 45.7559C18.0845 46.9479 18.5485 47.2919 19.1805 47.2919C19.8125 47.2919 20.2765 46.9479 20.2765 45.7559C20.2765 44.5639 19.8125 44.2199 19.1805 44.2199Z" fill="black"/>
<path d="M8.01298 23.0359C8.01298 22.5879 8.15698 22.1879 8.72498 22.1879C9.29298 22.1879 9.43698 22.5879 9.43698 23.0359C9.43698 23.4919 9.29298 23.8999 8.72498 23.8999C8.15698 23.8999 8.01298 23.4919 8.01298 23.0359ZM7.92498 25.6119C7.92498 25.0119 8.08498 24.5399 8.72498 24.5399C9.36498 24.5399 9.52498 25.0119 9.52498 25.6119C9.52498 26.2039 9.36498 26.6839 8.72498 26.6839C8.08498 26.6839 7.92498 26.2039 7.92498 25.6119ZM8.72498 27.3239C9.88498 27.3239 10.437 26.7399 10.437 25.6279C10.437 24.7879 10.029 24.3239 9.46898 24.2119V24.1959C9.95698 24.0279 10.253 23.6519 10.253 22.9719C10.253 22.0919 9.66898 21.5479 8.72498 21.5479C7.78098 21.5479 7.19698 22.0919 7.19698 22.9719C7.19698 23.6519 7.49298 24.0279 7.98098 24.1959V24.2119C7.42098 24.3239 7.01298 24.7879 7.01298 25.6279C7.01298 26.7399 7.56498 27.3239 8.72498 27.3239ZM11.7847 24.4359C11.7847 22.7879 11.9447 22.1879 12.5687 22.1879C13.1927 22.1879 13.3527 22.7879 13.3527 24.4359C13.3527 26.0839 13.1927 26.6839 12.5687 26.6839C11.9447 26.6839 11.7847 26.0839 11.7847 24.4359ZM10.8727 24.4359C10.8727 26.6359 11.4807 27.3239 12.5687 27.3239C13.6567 27.3239 14.2647 26.6359 14.2647 24.4359C14.2647 22.2359 13.6567 21.5479 12.5687 21.5479C11.4807 21.5479 10.8727 22.2359 10.8727 24.4359ZM15.8765 22.0439C16.2045 22.0439 16.2845 22.3399 16.2845 23.0839C16.2845 23.8279 16.2045 24.1239 15.8765 24.1239C15.5485 24.1239 15.4685 23.8279 15.4685 23.0839C15.4685 22.3399 15.5485 22.0439 15.8765 22.0439ZM18.4685 21.5479L15.9325 27.3239H16.5325L19.0845 21.5479H18.4685ZM19.1805 24.7479C19.5085 24.7479 19.5885 25.0439 19.5885 25.7879C19.5885 26.5319 19.5085 26.8279 19.1805 26.8279C18.8525 26.8279 18.7725 26.5319 18.7725 25.7879C18.7725 25.0439 18.8525 24.7479 19.1805 24.7479ZM15.8765 21.5479C15.2445 21.5479 14.7805 21.8919 14.7805 23.0839C14.7805 24.2759 15.2445 24.6199 15.8765 24.6199C16.5085 24.6199 16.9725 24.2759 16.9725 23.0839C16.9725 21.8919 16.5085 21.5479 15.8765 21.5479ZM19.1805 24.2519C18.5485 24.2519 18.0845 24.5959 18.0845 25.7879C18.0845 26.9799 18.5485 27.3239 19.1805 27.3239C19.8125 27.3239 20.2765 26.9799 20.2765 25.7879C20.2765 24.5959 19.8125 24.2519 19.1805 24.2519Z" fill="black"/>
<path d="M5.52923 7.24463V1.58063H4.86523V1.69263C4.70523 2.41263 4.07323 2.54063 3.52923 2.54063H3.44123V3.13263H4.61723V7.24463H5.52923ZM7.94098 4.46863C7.94098 2.82063 8.10098 2.22063 8.72498 2.22063C9.34898 2.22063 9.50898 2.82063 9.50898 4.46863C9.50898 6.11663 9.34898 6.71663 8.72498 6.71663C8.10098 6.71663 7.94098 6.11663 7.94098 4.46863ZM7.02898 4.46863C7.02898 6.66863 7.63698 7.35663 8.72498 7.35663C9.81298 7.35663 10.421 6.66863 10.421 4.46863C10.421 2.26863 9.81298 1.58063 8.72498 1.58063C7.63698 1.58063 7.02898 2.26863 7.02898 4.46863ZM11.7847 4.46863C11.7847 2.82063 11.9447 2.22063 12.5687 2.22063C13.1927 2.22063 13.3527 2.82063 13.3527 4.46863C13.3527 6.11663 13.1927 6.71663 12.5687 6.71663C11.9447 6.71663 11.7847 6.11663 11.7847 4.46863ZM10.8727 4.46863C10.8727 6.66863 11.4807 7.35663 12.5687 7.35663C13.6567 7.35663 14.2647 6.66863 14.2647 4.46863C14.2647 2.26863 13.6567 1.58063 12.5687 1.58063C11.4807 1.58063 10.8727 2.26863 10.8727 4.46863ZM15.8765 2.07663C16.2045 2.07663 16.2845 2.37263 16.2845 3.11663C16.2845 3.86063 16.2045 4.15663 15.8765 4.15663C15.5485 4.15663 15.4685 3.86063 15.4685 3.11663C15.4685 2.37263 15.5485 2.07663 15.8765 2.07663ZM18.4685 1.58063L15.9325 7.35663H16.5325L19.0845 1.58063H18.4685ZM19.1805 4.78063C19.5085 4.78063 19.5885 5.07663 19.5885 5.82063C19.5885 6.56463 19.5085 6.86063 19.1805 6.86063C18.8525 6.86063 18.7725 6.56463 18.7725 5.82063C18.7725 5.07663 18.8525 4.78063 19.1805 4.78063ZM15.8765 1.58063C15.2445 1.58063 14.7805 1.92463 14.7805 3.11663C14.7805 4.30863 15.2445 4.65263 15.8765 4.65263C16.5085 4.65263 16.9725 4.30863 16.9725 3.11663C16.9725 1.92463 16.5085 1.58063 15.8765 1.58063ZM19.1805 4.28463C18.5485 4.28463 18.0845 4.62863 18.0845 5.82063C18.0845 7.01263 18.5485 7.35663 19.1805 7.35663C19.8125 7.35663 20.2765 7.01263 20.2765 5.82063C20.2765 4.62863 19.8125 4.28463 19.1805 4.28463Z" fill="black"/>
<rect x="34.236" y="14.2456" width="28.014" height="12.7012" rx="1" fill="#342180"/>
<path d="M37.7679 18.9854C37.7679 18.5374 37.9119 18.1374 38.4799 18.1374C39.0479 18.1374 39.1919 18.5374 39.1919 18.9854C39.1919 19.4414 39.0479 19.8494 38.4799 19.8494C37.9119 19.8494 37.7679 19.4414 37.7679 18.9854ZM37.6799 21.5614C37.6799 20.9614 37.8399 20.4894 38.4799 20.4894C39.1199 20.4894 39.2799 20.9614 39.2799 21.5614C39.2799 22.1534 39.1199 22.6334 38.4799 22.6334C37.8399 22.6334 37.6799 22.1534 37.6799 21.5614ZM38.4799 23.2734C39.6399 23.2734 40.1919 22.6894 40.1919 21.5774C40.1919 20.7374 39.7839 20.2734 39.2239 20.1614V20.1454C39.7119 19.9774 40.0079 19.6014 40.0079 18.9214C40.0079 18.0414 39.4239 17.4974 38.4799 17.4974C37.5359 17.4974 36.9519 18.0414 36.9519 18.9214C36.9519 19.6014 37.2479 19.9774 37.7359 20.1454V20.1614C37.1759 20.2734 36.7679 20.7374 36.7679 21.5774C36.7679 22.6894 37.3199 23.2734 38.4799 23.2734ZM43.9797 22.3934H41.6837C42.1157 21.0094 43.9557 20.8894 43.9557 19.0094C43.9557 18.1854 43.5157 17.4974 42.3557 17.4974C41.1477 17.4974 40.6837 18.1934 40.6837 19.3214H41.5477C41.5477 18.7454 41.6597 18.1374 42.3397 18.1374C42.8437 18.1374 43.0437 18.5294 43.0437 18.9934C43.0437 20.7534 40.6677 20.6974 40.6677 23.1614H43.9797V22.3934ZM44.7514 23.1614H45.6634V22.1054H44.7514V23.1614ZM49.7453 22.3934H47.4493C47.8813 21.0094 49.7213 20.8894 49.7213 19.0094C49.7213 18.1854 49.2813 17.4974 48.1213 17.4974C46.9133 17.4974 46.4493 18.1934 46.4493 19.3214H47.3133C47.3133 18.7454 47.4253 18.1374 48.1053 18.1374C48.6093 18.1374 48.8093 18.5294 48.8093 18.9934C48.8093 20.7534 46.4333 20.6974 46.4333 23.1614H49.7453V22.3934ZM53.589 22.3934H51.293C51.725 21.0094 53.565 20.8894 53.565 19.0094C53.565 18.1854 53.125 17.4974 51.965 17.4974C50.757 17.4974 50.293 18.1934 50.293 19.3214H51.157C51.157 18.7454 51.269 18.1374 51.949 18.1374C52.453 18.1374 52.653 18.5294 52.653 18.9934C52.653 20.7534 50.277 20.6974 50.277 23.1614H53.589V22.3934ZM55.2408 17.9934C55.5688 17.9934 55.6488 18.2894 55.6488 19.0334C55.6488 19.7774 55.5688 20.0734 55.2408 20.0734C54.9128 20.0734 54.8328 19.7774 54.8328 19.0334C54.8328 18.2894 54.9128 17.9934 55.2408 17.9934ZM57.8328 17.4974L55.2968 23.2734H55.8968L58.4488 17.4974H57.8328ZM58.5448 20.6974C58.8728 20.6974 58.9528 20.9934 58.9528 21.7374C58.9528 22.4814 58.8728 22.7774 58.5448 22.7774C58.2168 22.7774 58.1368 22.4814 58.1368 21.7374C58.1368 20.9934 58.2168 20.6974 58.5448 20.6974ZM55.2408 17.4974C54.6088 17.4974 54.1448 17.8414 54.1448 19.0334C54.1448 20.2254 54.6088 20.5694 55.2408 20.5694C55.8728 20.5694 56.3368 20.2254 56.3368 19.0334C56.3368 17.8414 55.8728 17.4974 55.2408 17.4974ZM58.5448 20.2014C57.9128 20.2014 57.4488 20.5454 57.4488 21.7374C57.4488 22.9294 57.9128 23.2734 58.5448 23.2734C59.1768 23.2734 59.6408 22.9294 59.6408 21.7374C59.6408 20.5454 59.1768 20.2014 58.5448 20.2014Z" fill="white"/>
<rect x="83.4587" y="73.5757" width="28.014" height="12.7012" rx="1" fill="#342180"/>
<path d="M89.3586 81.7235H87.0626C87.4946 80.3395 89.3346 80.2195 89.3346 78.3395C89.3346 77.5155 88.8946 76.8275 87.7346 76.8275C86.5266 76.8275 86.0626 77.5235 86.0626 78.6515H86.9266C86.9266 78.0755 87.0386 77.4675 87.7186 77.4675C88.2226 77.4675 88.4226 77.8595 88.4226 78.3235C88.4226 80.0835 86.0466 80.0275 86.0466 82.4915H89.3586V81.7235ZM93.2024 81.7235H90.9064C91.3384 80.3395 93.1784 80.2195 93.1784 78.3395C93.1784 77.5155 92.7384 76.8275 91.5784 76.8275C90.3704 76.8275 89.9064 77.5235 89.9064 78.6515H90.7704C90.7704 78.0755 90.8824 77.4675 91.5624 77.4675C92.0664 77.4675 92.2664 77.8595 92.2664 78.3235C92.2664 80.0835 89.8904 80.0275 89.8904 82.4915H93.2024V81.7235ZM93.9741 82.4915H94.8861V81.4355H93.9741V82.4915ZM96.6 78.3155C96.6 77.8675 96.744 77.4675 97.312 77.4675C97.88 77.4675 98.024 77.8675 98.024 78.3155C98.024 78.7715 97.88 79.1795 97.312 79.1795C96.744 79.1795 96.6 78.7715 96.6 78.3155ZM96.512 80.8915C96.512 80.2915 96.672 79.8195 97.312 79.8195C97.952 79.8195 98.112 80.2915 98.112 80.8915C98.112 81.4835 97.952 81.9635 97.312 81.9635C96.672 81.9635 96.512 81.4835 96.512 80.8915ZM97.312 82.6035C98.472 82.6035 99.024 82.0195 99.024 80.9075C99.024 80.0675 98.616 79.6035 98.056 79.4915V79.4755C98.544 79.3075 98.84 78.9315 98.84 78.2515C98.84 77.3715 98.256 76.8275 97.312 76.8275C96.368 76.8275 95.784 77.3715 95.784 78.2515C95.784 78.9315 96.08 79.3075 96.568 79.4755V79.4915C96.008 79.6035 95.6 80.0675 95.6 80.9075C95.6 82.0195 96.152 82.6035 97.312 82.6035ZM99.5397 81.2275C99.5397 82.1555 100.076 82.6035 101.068 82.6035C102.564 82.6035 102.876 81.2355 102.876 79.5395C102.876 77.9155 102.604 76.8275 101.172 76.8275C99.9717 76.8275 99.4357 77.6035 99.4357 78.9075C99.4357 80.0355 100.06 80.5955 100.836 80.5955C101.332 80.5955 101.716 80.4035 101.94 79.9955L101.964 80.0115C101.964 80.8355 101.916 81.9635 101.06 81.9635C100.604 81.9635 100.452 81.5555 100.452 81.2275H99.5397ZM101.884 78.6435C101.884 79.3235 101.764 79.9075 101.1 79.9075C100.58 79.9075 100.348 79.4675 100.348 78.6835C100.348 78.0195 100.54 77.4675 101.1 77.4675C101.636 77.4675 101.884 77.9875 101.884 78.6435ZM104.463 77.3235C104.791 77.3235 104.871 77.6195 104.871 78.3635C104.871 79.1075 104.791 79.4035 104.463 79.4035C104.135 79.4035 104.055 79.1075 104.055 78.3635C104.055 77.6195 104.135 77.3235 104.463 77.3235ZM107.055 76.8275L104.519 82.6035H105.119L107.671 76.8275H107.055ZM107.767 80.0275C108.095 80.0275 108.175 80.3235 108.175 81.0675C108.175 81.8115 108.095 82.1075 107.767 82.1075C107.439 82.1075 107.359 81.8115 107.359 81.0675C107.359 80.3235 107.439 80.0275 107.767 80.0275ZM104.463 76.8275C103.831 76.8275 103.367 77.1715 103.367 78.3635C103.367 79.5555 103.831 79.8995 104.463 79.8995C105.095 79.8995 105.559 79.5555 105.559 78.3635C105.559 77.1715 105.095 76.8275 104.463 76.8275ZM107.767 79.5315C107.135 79.5315 106.671 79.8755 106.671 81.0675C106.671 82.2595 107.135 82.6035 107.767 82.6035C108.399 82.6035 108.863 82.2595 108.863 81.0675C108.863 79.8755 108.399 79.5315 107.767 79.5315Z" fill="white"/>
<rect x="132.681" y="65.624" width="28.014" height="12.7012" rx="1" fill="#342180"/>
<path d="M135.253 72.9638C135.253 74.1478 135.845 74.6518 136.869 74.6518C138.037 74.6518 138.597 74.0198 138.597 72.8998C138.597 72.1078 138.149 71.6358 137.565 71.5878V71.5638C138.125 71.4758 138.469 70.9078 138.469 70.3238C138.469 69.1878 137.629 68.8758 136.949 68.8758C135.869 68.8758 135.317 69.4518 135.317 70.5078H136.181C136.181 69.9958 136.341 69.5158 136.901 69.5158C137.373 69.5158 137.557 69.9238 137.557 70.3318C137.557 70.8838 137.349 71.2998 136.741 71.2998H136.413V71.9398H136.765C137.453 71.9398 137.685 72.2998 137.685 72.9958C137.685 73.5558 137.461 74.0118 136.893 74.0118C136.277 74.0118 136.117 73.4598 136.117 72.9638H135.253ZM139.985 71.7638C139.985 70.1158 140.145 69.5158 140.769 69.5158C141.393 69.5158 141.553 70.1158 141.553 71.7638C141.553 73.4118 141.393 74.0118 140.769 74.0118C140.145 74.0118 139.985 73.4118 139.985 71.7638ZM139.073 71.7638C139.073 73.9638 139.681 74.6518 140.769 74.6518C141.857 74.6518 142.465 73.9638 142.465 71.7638C142.465 69.5638 141.857 68.8758 140.769 68.8758C139.681 68.8758 139.073 69.5638 139.073 71.7638ZM143.197 74.5398H144.109V73.4838H143.197V74.5398ZM148.151 70.2518C148.151 69.3238 147.615 68.8758 146.623 68.8758C145.127 68.8758 144.815 70.2438 144.815 71.9398C144.815 73.5638 145.087 74.6518 146.519 74.6518C147.719 74.6518 148.255 73.8758 148.255 72.5718C148.255 71.4438 147.631 70.8838 146.855 70.8838C146.359 70.8838 145.975 71.0758 145.751 71.4838L145.727 71.4678C145.727 70.6438 145.775 69.5158 146.631 69.5158C147.087 69.5158 147.239 69.9238 147.239 70.2518H148.151ZM145.807 72.8358C145.807 72.1558 145.927 71.5718 146.591 71.5718C147.111 71.5718 147.343 72.0118 147.343 72.7958C147.343 73.4598 147.151 74.0118 146.591 74.0118C146.055 74.0118 145.807 73.4918 145.807 72.8358ZM149.666 70.3638C149.666 69.9158 149.81 69.5158 150.378 69.5158C150.946 69.5158 151.09 69.9158 151.09 70.3638C151.09 70.8198 150.946 71.2278 150.378 71.2278C149.81 71.2278 149.666 70.8198 149.666 70.3638ZM149.578 72.9398C149.578 72.3398 149.738 71.8678 150.378 71.8678C151.018 71.8678 151.178 72.3398 151.178 72.9398C151.178 73.5318 151.018 74.0118 150.378 74.0118C149.738 74.0118 149.578 73.5318 149.578 72.9398ZM150.378 74.6518C151.538 74.6518 152.09 74.0678 152.09 72.9558C152.09 72.1158 151.682 71.6518 151.122 71.5398V71.5238C151.61 71.3558 151.906 70.9798 151.906 70.2998C151.906 69.4198 151.322 68.8758 150.378 68.8758C149.434 68.8758 148.85 69.4198 148.85 70.2998C148.85 70.9798 149.146 71.3558 149.634 71.5238V71.5398C149.074 71.6518 148.666 72.1158 148.666 72.9558C148.666 74.0678 149.218 74.6518 150.378 74.6518ZM153.686 69.3718C154.014 69.3718 154.094 69.6678 154.094 70.4118C154.094 71.1558 154.014 71.4518 153.686 71.4518C153.358 71.4518 153.278 71.1558 153.278 70.4118C153.278 69.6678 153.358 69.3718 153.686 69.3718ZM156.278 68.8758L153.742 74.6518H154.342L156.894 68.8758H156.278ZM156.99 72.0758C157.318 72.0758 157.398 72.3718 157.398 73.1158C157.398 73.8598 157.318 74.1558 156.99 74.1558C156.662 74.1558 156.582 73.8598 156.582 73.1158C156.582 72.3718 156.662 72.0758 156.99 72.0758ZM153.686 68.8758C153.054 68.8758 152.59 69.2198 152.59 70.4118C152.59 71.6038 153.054 71.9478 153.686 71.9478C154.318 71.9478 154.782 71.6038 154.782 70.4118C154.782 69.2198 154.318 68.8758 153.686 68.8758ZM156.99 71.5798C156.358 71.5798 155.894 71.9238 155.894 73.1158C155.894 74.3078 156.358 74.6518 156.99 74.6518C157.622 74.6518 158.086 74.3078 158.086 73.1158C158.086 71.9238 157.622 71.5798 156.99 71.5798Z" fill="white"/>
<rect x="181.904" y="44.2456" width="28.014" height="12.7012" rx="1" fill="#342180"/>
<path d="M184.484 51.7534C184.484 52.7534 185.06 53.2734 186.068 53.2734C187.292 53.2734 187.812 52.4094 187.812 51.2734C187.812 50.4014 187.516 49.4014 186.332 49.4014C185.964 49.4014 185.62 49.5694 185.38 49.8414L185.364 49.8254L185.548 48.3374H187.596V47.6094H184.868L184.588 50.5774L185.396 50.6094C185.476 50.2974 185.756 50.0894 186.14 50.0894C186.724 50.0894 186.9 50.6414 186.9 51.2974C186.9 51.9614 186.724 52.5854 186.092 52.5854C185.58 52.5854 185.348 52.2094 185.348 51.7854V51.6334H184.484V51.7534ZM191.648 52.3934H189.352C189.784 51.0094 191.624 50.8894 191.624 49.0094C191.624 48.1854 191.184 47.4974 190.024 47.4974C188.816 47.4974 188.352 48.1934 188.352 49.3214H189.216C189.216 48.7454 189.328 48.1374 190.008 48.1374C190.512 48.1374 190.712 48.5294 190.712 48.9934C190.712 50.7534 188.336 50.6974 188.336 53.1614H191.648V52.3934ZM192.42 53.1614H193.332V52.1054H192.42V53.1614ZM197.413 52.3934H195.117C195.549 51.0094 197.389 50.8894 197.389 49.0094C197.389 48.1854 196.949 47.4974 195.789 47.4974C194.581 47.4974 194.117 48.1934 194.117 49.3214H194.981C194.981 48.7454 195.093 48.1374 195.773 48.1374C196.277 48.1374 196.477 48.5294 196.477 48.9934C196.477 50.7534 194.101 50.6974 194.101 53.1614H197.413V52.3934ZM201.257 52.3934H198.961C199.393 51.0094 201.233 50.8894 201.233 49.0094C201.233 48.1854 200.793 47.4974 199.633 47.4974C198.425 47.4974 197.961 48.1934 197.961 49.3214H198.825C198.825 48.7454 198.937 48.1374 199.617 48.1374C200.121 48.1374 200.321 48.5294 200.321 48.9934C200.321 50.7534 197.945 50.6974 197.945 53.1614H201.257V52.3934ZM202.909 47.9934C203.237 47.9934 203.317 48.2894 203.317 49.0334C203.317 49.7774 203.237 50.0734 202.909 50.0734C202.581 50.0734 202.501 49.7774 202.501 49.0334C202.501 48.2894 202.581 47.9934 202.909 47.9934ZM205.501 47.4974L202.965 53.2734H203.565L206.117 47.4974H205.501ZM206.213 50.6974C206.541 50.6974 206.621 50.9934 206.621 51.7374C206.621 52.4814 206.541 52.7774 206.213 52.7774C205.885 52.7774 205.805 52.4814 205.805 51.7374C205.805 50.9934 205.885 50.6974 206.213 50.6974ZM202.909 47.4974C202.277 47.4974 201.813 47.8414 201.813 49.0334C201.813 50.2254 202.277 50.5694 202.909 50.5694C203.541 50.5694 204.005 50.2254 204.005 49.0334C204.005 47.8414 203.541 47.4974 202.909 47.4974ZM206.213 50.2014C205.581 50.2014 205.117 50.5454 205.117 51.7374C205.117 52.9294 205.581 53.2734 206.213 53.2734C206.845 53.2734 207.309 52.9294 207.309 51.7374C207.309 50.5454 206.845 50.2014 206.213 50.2014Z" fill="white"/>
<rect x="231.127" y="19.5757" width="28.014" height="12.7012" rx="1" fill="#342180"/>
<path d="M233.691 23.7555H236.171C235.267 24.9155 234.435 26.8035 234.307 28.4915H235.267C235.395 26.7875 236.163 24.8195 237.051 23.6595V22.9395H233.691V23.7555ZM240.831 24.2035C240.831 23.2755 240.295 22.8275 239.303 22.8275C237.807 22.8275 237.495 24.1955 237.495 25.8915C237.495 27.5155 237.767 28.6035 239.199 28.6035C240.399 28.6035 240.935 27.8275 240.935 26.5235C240.935 25.3955 240.311 24.8355 239.535 24.8355C239.039 24.8355 238.655 25.0275 238.431 25.4355L238.407 25.4195C238.407 24.5955 238.455 23.4675 239.311 23.4675C239.767 23.4675 239.919 23.8755 239.919 24.2035H240.831ZM238.487 26.7875C238.487 26.1075 238.607 25.5235 239.271 25.5235C239.791 25.5235 240.023 25.9635 240.023 26.7475C240.023 27.4115 239.831 27.9635 239.271 27.9635C238.735 27.9635 238.487 27.4435 238.487 26.7875ZM241.642 28.4915H242.554V27.4355H241.642V28.4915ZM244.268 24.3155C244.268 23.8675 244.412 23.4675 244.98 23.4675C245.548 23.4675 245.692 23.8675 245.692 24.3155C245.692 24.7715 245.548 25.1795 244.98 25.1795C244.412 25.1795 244.268 24.7715 244.268 24.3155ZM244.18 26.8915C244.18 26.2915 244.34 25.8195 244.98 25.8195C245.62 25.8195 245.78 26.2915 245.78 26.8915C245.78 27.4835 245.62 27.9635 244.98 27.9635C244.34 27.9635 244.18 27.4835 244.18 26.8915ZM244.98 28.6035C246.14 28.6035 246.692 28.0195 246.692 26.9075C246.692 26.0675 246.284 25.6035 245.724 25.4915V25.4755C246.212 25.3075 246.508 24.9315 246.508 24.2515C246.508 23.3715 245.924 22.8275 244.98 22.8275C244.036 22.8275 243.452 23.3715 243.452 24.2515C243.452 24.9315 243.748 25.3075 244.236 25.4755V25.4915C243.676 25.6035 243.268 26.0675 243.268 26.9075C243.268 28.0195 243.82 28.6035 244.98 28.6035ZM247.208 27.2275C247.208 28.1555 247.744 28.6035 248.736 28.6035C250.232 28.6035 250.544 27.2355 250.544 25.5395C250.544 23.9155 250.272 22.8275 248.84 22.8275C247.64 22.8275 247.104 23.6035 247.104 24.9075C247.104 26.0355 247.728 26.5955 248.504 26.5955C249 26.5955 249.384 26.4035 249.608 25.9955L249.632 26.0115C249.632 26.8355 249.584 27.9635 248.728 27.9635C248.272 27.9635 248.12 27.5555 248.12 27.2275H247.208ZM249.552 24.6435C249.552 25.3235 249.432 25.9075 248.768 25.9075C248.248 25.9075 248.016 25.4675 248.016 24.6835C248.016 24.0195 248.208 23.4675 248.768 23.4675C249.304 23.4675 249.552 23.9875 249.552 24.6435ZM252.132 23.3235C252.46 23.3235 252.54 23.6195 252.54 24.3635C252.54 25.1075 252.46 25.4035 252.132 25.4035C251.804 25.4035 251.724 25.1075 251.724 24.3635C251.724 23.6195 251.804 23.3235 252.132 23.3235ZM254.724 22.8275L252.188 28.6035H252.788L255.34 22.8275H254.724ZM255.436 26.0275C255.764 26.0275 255.844 26.3235 255.844 27.0675C255.844 27.8115 255.764 28.1075 255.436 28.1075C255.108 28.1075 255.028 27.8115 255.028 27.0675C255.028 26.3235 255.108 26.0275 255.436 26.0275ZM252.132 22.8275C251.5 22.8275 251.036 23.1715 251.036 24.3635C251.036 25.5555 251.5 25.8995 252.132 25.8995C252.764 25.8995 253.228 25.5555 253.228 24.3635C253.228 23.1715 252.764 22.8275 252.132 22.8275ZM255.436 25.5315C254.804 25.5315 254.34 25.8755 254.34 27.0675C254.34 28.2595 254.804 28.6035 255.436 28.6035C256.068 28.6035 256.532 28.2595 256.532 27.0675C256.532 25.8755 256.068 25.5315 255.436 25.5315Z" fill="white"/>
<rect x="280.35" y="23.1655" width="28.014" height="12.7012" rx="1" fill="#342180"/>
<path d="M282.914 27.3453H285.394C284.49 28.5053 283.658 30.3933 283.53 32.0813H284.49C284.618 30.3773 285.386 28.4093 286.274 27.2493V26.5293H282.914V27.3453ZM286.765 30.5053C286.765 31.6893 287.357 32.1933 288.381 32.1933C289.549 32.1933 290.109 31.5613 290.109 30.4413C290.109 29.6493 289.661 29.1773 289.077 29.1293V29.1053C289.637 29.0173 289.981 28.4493 289.981 27.8653C289.981 26.7293 289.141 26.4173 288.461 26.4173C287.381 26.4173 286.829 26.9933 286.829 28.0493H287.693C287.693 27.5373 287.853 27.0573 288.413 27.0573C288.885 27.0573 289.069 27.4653 289.069 27.8733C289.069 28.4253 288.861 28.8413 288.253 28.8413H287.925V29.4813H288.277C288.965 29.4813 289.197 29.8413 289.197 30.5373C289.197 31.0973 288.973 31.5533 288.405 31.5533C287.789 31.5533 287.629 31.0013 287.629 30.5053H286.765ZM290.865 32.0813H291.777V31.0253H290.865V32.0813ZM292.531 30.5053C292.531 31.6893 293.123 32.1933 294.147 32.1933C295.315 32.1933 295.875 31.5613 295.875 30.4413C295.875 29.6493 295.427 29.1773 294.843 29.1293V29.1053C295.403 29.0173 295.747 28.4493 295.747 27.8653C295.747 26.7293 294.907 26.4173 294.227 26.4173C293.147 26.4173 292.595 26.9933 292.595 28.0493H293.459C293.459 27.5373 293.619 27.0573 294.179 27.0573C294.651 27.0573 294.835 27.4653 294.835 27.8733C294.835 28.4253 294.627 28.8413 294.019 28.8413H293.691V29.4813H294.043C294.731 29.4813 294.963 29.8413 294.963 30.5373C294.963 31.0973 294.739 31.5533 294.171 31.5533C293.555 31.5533 293.395 31.0013 293.395 30.5053H292.531ZM297.263 29.3053C297.263 27.6573 297.423 27.0573 298.047 27.0573C298.671 27.0573 298.831 27.6573 298.831 29.3053C298.831 30.9533 298.671 31.5533 298.047 31.5533C297.423 31.5533 297.263 30.9533 297.263 29.3053ZM296.351 29.3053C296.351 31.5053 296.959 32.1933 298.047 32.1933C299.135 32.1933 299.743 31.5053 299.743 29.3053C299.743 27.1053 299.135 26.4173 298.047 26.4173C296.959 26.4173 296.351 27.1053 296.351 29.3053ZM301.354 26.9133C301.682 26.9133 301.762 27.2093 301.762 27.9533C301.762 28.6973 301.682 28.9933 301.354 28.9933C301.026 28.9933 300.946 28.6973 300.946 27.9533C300.946 27.2093 301.026 26.9133 301.354 26.9133ZM303.946 26.4173L301.41 32.1933H302.01L304.562 26.4173H303.946ZM304.658 29.6173C304.986 29.6173 305.066 29.9133 305.066 30.6573C305.066 31.4013 304.986 31.6973 304.658 31.6973C304.33 31.6973 304.25 31.4013 304.25 30.6573C304.25 29.9133 304.33 29.6173 304.658 29.6173ZM301.354 26.4173C300.722 26.4173 300.258 26.7613 300.258 27.9533C300.258 29.1453 300.722 29.4893 301.354 29.4893C301.986 29.4893 302.45 29.1453 302.45 27.9533C302.45 26.7613 301.986 26.4173 301.354 26.4173ZM304.658 29.1213C304.026 29.1213 303.562 29.4653 303.562 30.6573C303.562 31.8493 304.026 32.1933 304.658 32.1933C305.29 32.1933 305.754 31.8493 305.754 30.6573C305.754 29.4653 305.29 29.1213 304.658 29.1213Z" fill="white"/>
<rect x="329.573" y="13.7056" width="28.014" height="12.7012" rx="1" fill="#342180"/>
<path d="M333.104 18.4453C333.104 17.9973 333.248 17.5973 333.816 17.5973C334.384 17.5973 334.528 17.9973 334.528 18.4453C334.528 18.9013 334.384 19.3093 333.816 19.3093C333.248 19.3093 333.104 18.9013 333.104 18.4453ZM333.016 21.0213C333.016 20.4213 333.176 19.9493 333.816 19.9493C334.456 19.9493 334.616 20.4213 334.616 21.0213C334.616 21.6133 334.456 22.0933 333.816 22.0933C333.176 22.0933 333.016 21.6133 333.016 21.0213ZM333.816 22.7333C334.976 22.7333 335.528 22.1493 335.528 21.0373C335.528 20.1973 335.12 19.7333 334.56 19.6213V19.6053C335.048 19.4373 335.344 19.0613 335.344 18.3813C335.344 17.5013 334.76 16.9573 333.816 16.9573C332.872 16.9573 332.288 17.5013 332.288 18.3813C332.288 19.0613 332.584 19.4373 333.072 19.6053V19.6213C332.512 19.7333 332.104 20.1973 332.104 21.0373C332.104 22.1493 332.656 22.7333 333.816 22.7333ZM339.316 21.8533H337.02C337.452 20.4693 339.292 20.3493 339.292 18.4693C339.292 17.6453 338.852 16.9573 337.692 16.9573C336.484 16.9573 336.02 17.6533 336.02 18.7813H336.884C336.884 18.2053 336.996 17.5973 337.676 17.5973C338.18 17.5973 338.38 17.9893 338.38 18.4533C338.38 20.2133 336.004 20.1573 336.004 22.6213H339.316V21.8533ZM340.088 22.6213H341V21.5653H340.088V22.6213ZM341.746 17.8853H344.226C343.322 19.0453 342.49 20.9333 342.362 22.6213H343.322C343.45 20.9173 344.218 18.9493 345.106 17.7893V17.0693H341.746V17.8853ZM348.886 18.3333C348.886 17.4053 348.35 16.9573 347.358 16.9573C345.862 16.9573 345.55 18.3253 345.55 20.0213C345.55 21.6453 345.822 22.7333 347.254 22.7333C348.454 22.7333 348.99 21.9573 348.99 20.6533C348.99 19.5253 348.366 18.9653 347.59 18.9653C347.094 18.9653 346.71 19.1573 346.486 19.5653L346.462 19.5493C346.462 18.7253 346.51 17.5973 347.366 17.5973C347.822 17.5973 347.974 18.0053 347.974 18.3333H348.886ZM346.542 20.9173C346.542 20.2373 346.662 19.6533 347.326 19.6533C347.846 19.6533 348.078 20.0933 348.078 20.8773C348.078 21.5413 347.886 22.0933 347.326 22.0933C346.79 22.0933 346.542 21.5733 346.542 20.9173ZM350.577 17.4533C350.905 17.4533 350.985 17.7493 350.985 18.4933C350.985 19.2373 350.905 19.5333 350.577 19.5333C350.249 19.5333 350.169 19.2373 350.169 18.4933C350.169 17.7493 350.249 17.4533 350.577 17.4533ZM353.169 16.9573L350.633 22.7333H351.233L353.785 16.9573H353.169ZM353.881 20.1573C354.209 20.1573 354.289 20.4533 354.289 21.1973C354.289 21.9413 354.209 22.2373 353.881 22.2373C353.553 22.2373 353.473 21.9413 353.473 21.1973C353.473 20.4533 353.553 20.1573 353.881 20.1573ZM350.577 16.9573C349.945 16.9573 349.481 17.3013 349.481 18.4933C349.481 19.6853 349.945 20.0293 350.577 20.0293C351.209 20.0293 351.673 19.6853 351.673 18.4933C351.673 17.3013 351.209 16.9573 350.577 16.9573ZM353.881 19.6613C353.249 19.6613 352.785 20.0053 352.785 21.1973C352.785 22.3893 353.249 22.7333 353.881 22.7333C354.513 22.7333 354.977 22.3893 354.977 21.1973C354.977 20.0053 354.513 19.6613 353.881 19.6613Z" fill="white"/>
<rect x="378.795" y="12.1255" width="28.014" height="12.7012" rx="1" fill="#342180"/>
<path d="M382.327 16.8653C382.327 16.4173 382.471 16.0173 383.039 16.0173C383.607 16.0173 383.751 16.4173 383.751 16.8653C383.751 17.3213 383.607 17.7293 383.039 17.7293C382.471 17.7293 382.327 17.3213 382.327 16.8653ZM382.239 19.4413C382.239 18.8413 382.399 18.3693 383.039 18.3693C383.679 18.3693 383.839 18.8413 383.839 19.4413C383.839 20.0333 383.679 20.5133 383.039 20.5133C382.399 20.5133 382.239 20.0333 382.239 19.4413ZM383.039 21.1533C384.199 21.1533 384.751 20.5693 384.751 19.4573C384.751 18.6173 384.343 18.1533 383.783 18.0413V18.0253C384.271 17.8573 384.567 17.4813 384.567 16.8013C384.567 15.9213 383.983 15.3773 383.039 15.3773C382.095 15.3773 381.511 15.9213 381.511 16.8013C381.511 17.4813 381.807 17.8573 382.295 18.0253V18.0413C381.735 18.1533 381.327 18.6173 381.327 19.4573C381.327 20.5693 381.879 21.1533 383.039 21.1533ZM385.131 19.7693H387.155V21.0413H388.019V19.7693H388.635V19.0413H388.019V15.3773H387.091L385.131 18.9853V19.7693ZM387.155 19.0413H385.867L387.139 16.7053H387.155V19.0413ZM389.311 21.0413H390.223V19.9853H389.311V21.0413ZM390.977 19.4653C390.977 20.6493 391.569 21.1533 392.593 21.1533C393.761 21.1533 394.321 20.5213 394.321 19.4013C394.321 18.6093 393.873 18.1373 393.289 18.0893V18.0653C393.849 17.9773 394.193 17.4093 394.193 16.8253C394.193 15.6893 393.353 15.3773 392.673 15.3773C391.593 15.3773 391.041 15.9533 391.041 17.0093H391.905C391.905 16.4973 392.065 16.0173 392.625 16.0173C393.097 16.0173 393.281 16.4253 393.281 16.8333C393.281 17.3853 393.073 17.8013 392.465 17.8013H392.137V18.4413H392.489C393.177 18.4413 393.409 18.8013 393.409 19.4973C393.409 20.0573 393.185 20.5133 392.617 20.5133C392.001 20.5133 391.841 19.9613 391.841 19.4653H390.977ZM394.74 19.7693H396.764V21.0413H397.628V19.7693H398.244V19.0413H397.628V15.3773H396.7L394.74 18.9853V19.7693ZM396.764 19.0413H395.476L396.748 16.7053H396.764V19.0413ZM399.8 15.8733C400.128 15.8733 400.208 16.1693 400.208 16.9133C400.208 17.6573 400.128 17.9533 399.8 17.9533C399.472 17.9533 399.392 17.6573 399.392 16.9133C399.392 16.1693 399.472 15.8733 399.8 15.8733ZM402.392 15.3773L399.856 21.1533H400.456L403.008 15.3773H402.392ZM403.104 18.5773C403.432 18.5773 403.512 18.8733 403.512 19.6173C403.512 20.3613 403.432 20.6573 403.104 20.6573C402.776 20.6573 402.696 20.3613 402.696 19.6173C402.696 18.8733 402.776 18.5773 403.104 18.5773ZM399.8 15.3773C399.168 15.3773 398.704 15.7213 398.704 16.9133C398.704 18.1053 399.168 18.4493 399.8 18.4493C400.432 18.4493 400.896 18.1053 400.896 16.9133C400.896 15.7213 400.432 15.3773 399.8 15.3773ZM403.104 18.0813C402.472 18.0813 402.008 18.4253 402.008 19.6173C402.008 20.8093 402.472 21.1533 403.104 21.1533C403.736 21.1533 404.2 20.8093 404.2 19.6173C404.2 18.4253 403.736 18.0813 403.104 18.0813Z" fill="white"/>
<rect x="428.018" y="9.27075" width="28.014" height="12.7012" rx="1" fill="#342180"/>
<path d="M431.55 14.0105C431.55 13.5625 431.694 13.1625 432.262 13.1625C432.83 13.1625 432.974 13.5625 432.974 14.0105C432.974 14.4665 432.83 14.8745 432.262 14.8745C431.694 14.8745 431.55 14.4665 431.55 14.0105ZM431.462 16.5865C431.462 15.9865 431.622 15.5145 432.262 15.5145C432.902 15.5145 433.062 15.9865 433.062 16.5865C433.062 17.1785 432.902 17.6585 432.262 17.6585C431.622 17.6585 431.462 17.1785 431.462 16.5865ZM432.262 18.2985C433.422 18.2985 433.974 17.7145 433.974 16.6025C433.974 15.7625 433.566 15.2985 433.006 15.1865V15.1705C433.494 15.0025 433.79 14.6265 433.79 13.9465C433.79 13.0665 433.206 12.5225 432.262 12.5225C431.318 12.5225 430.734 13.0665 430.734 13.9465C430.734 14.6265 431.03 15.0025 431.518 15.1705V15.1865C430.958 15.2985 430.55 15.7625 430.55 16.6025C430.55 17.7145 431.102 18.2985 432.262 18.2985ZM434.426 13.4505H436.906C436.002 14.6105 435.17 16.4985 435.042 18.1865H436.002C436.13 16.4825 436.898 14.5145 437.786 13.3545V12.6345H434.426V13.4505ZM438.533 18.1865H439.445V17.1305H438.533V18.1865ZM441.159 14.0105C441.159 13.5625 441.303 13.1625 441.871 13.1625C442.439 13.1625 442.583 13.5625 442.583 14.0105C442.583 14.4665 442.439 14.8745 441.871 14.8745C441.303 14.8745 441.159 14.4665 441.159 14.0105ZM441.071 16.5865C441.071 15.9865 441.231 15.5145 441.871 15.5145C442.511 15.5145 442.671 15.9865 442.671 16.5865C442.671 17.1785 442.511 17.6585 441.871 17.6585C441.231 17.6585 441.071 17.1785 441.071 16.5865ZM441.871 18.2985C443.031 18.2985 443.583 17.7145 443.583 16.6025C443.583 15.7625 443.175 15.2985 442.615 15.1865V15.1705C443.103 15.0025 443.399 14.6265 443.399 13.9465C443.399 13.0665 442.815 12.5225 441.871 12.5225C440.927 12.5225 440.343 13.0665 440.343 13.9465C440.343 14.6265 440.639 15.0025 441.127 15.1705V15.1865C440.567 15.2985 440.159 15.7625 440.159 16.6025C440.159 17.7145 440.711 18.2985 441.871 18.2985ZM444.043 16.6105C444.043 17.7945 444.635 18.2985 445.659 18.2985C446.827 18.2985 447.387 17.6665 447.387 16.5465C447.387 15.7545 446.939 15.2825 446.355 15.2345V15.2105C446.915 15.1225 447.259 14.5545 447.259 13.9705C447.259 12.8345 446.419 12.5225 445.739 12.5225C444.659 12.5225 444.107 13.0985 444.107 14.1545H444.971C444.971 13.6425 445.131 13.1625 445.691 13.1625C446.163 13.1625 446.347 13.5705 446.347 13.9785C446.347 14.5305 446.139 14.9465 445.531 14.9465H445.203V15.5865H445.555C446.243 15.5865 446.475 15.9465 446.475 16.6425C446.475 17.2025 446.251 17.6585 445.683 17.6585C445.067 17.6585 444.907 17.1065 444.907 16.6105H444.043ZM449.023 13.0185C449.351 13.0185 449.431 13.3145 449.431 14.0585C449.431 14.8025 449.351 15.0985 449.023 15.0985C448.695 15.0985 448.615 14.8025 448.615 14.0585C448.615 13.3145 448.695 13.0185 449.023 13.0185ZM451.615 12.5225L449.079 18.2985H449.679L452.231 12.5225H451.615ZM452.327 15.7225C452.655 15.7225 452.735 16.0185 452.735 16.7625C452.735 17.5065 452.655 17.8025 452.327 17.8025C451.999 17.8025 451.919 17.5065 451.919 16.7625C451.919 16.0185 451.999 15.7225 452.327 15.7225ZM449.023 12.5225C448.391 12.5225 447.927 12.8665 447.927 14.0585C447.927 15.2505 448.391 15.5945 449.023 15.5945C449.655 15.5945 450.119 15.2505 450.119 14.0585C450.119 12.8665 449.655 12.5225 449.023 12.5225ZM452.327 15.2265C451.695 15.2265 451.231 15.5705 451.231 16.7625C451.231 17.9545 451.695 18.2985 452.327 18.2985C452.959 18.2985 453.423 17.9545 453.423 16.7625C453.423 15.5705 452.959 15.2265 452.327 15.2265Z" fill="white"/>
</svg>
